<svg width="46" height="159" viewBox="0 0 46 159" fill="none" xmlns="http://www.w3.org/2000/svg">
<g clip-path="url(#clip0_6_1354)">
<path d="M21.9413 1.51646C19.5291 19.2447 17.519 36.9898 15.8841 54.7264C14.2492 72.4631 13.0163 90.351 12.1319 108.163C11.6494 118.153 11.0598 128.143 11.033 138.133C11.033 138.873 11.8103 140.007 14.0348 140.41C16.2593 140.814 17.251 140.066 17.2778 139.478C18.055 121.724 18.4035 103.971 19.5827 86.2172C20.762 68.4637 22.3165 50.5843 24.2998 32.772C25.3987 22.782 26.6316 12.8004 27.9717 2.81037C28.0789 2.1046 27.1676 0.987129 25.0503 0.609038C22.933 0.230947 21.9949 0.945119 21.9145 1.51646L21.9413 1.51646Z" fill="#333333"/>
<path d="M39.684 120.279C34.6453 126.606 29.4726 132.916 24.0854 139.217C21.4589 142.301 18.7787 145.376 16.0717 148.451C14.1956 150.594 12.9091 154.249 5.08305 155.106L9.53212 157.433C8.56726 144.46 7.5488 131.479 6.34273 118.506C6.28912 117.809 5.64588 116.75 3.52855 116.364C1.49163 115.994 0.446364 116.675 0.473166 117.246C1.33082 130.21 2.37608 143.166 3.47495 156.131C3.52855 156.668 4.81503 158.811 7.92402 158.458C15.8573 157.567 18.0014 154.761 20.0116 152.484C22.9598 149.14 25.8543 145.788 28.7221 142.435C34.4309 135.731 39.952 129.009 45.3124 122.279C45.8752 121.556 45.0175 120.514 43.3558 119.977C41.8013 119.481 40.22 119.607 39.684 120.288L39.684 120.279Z" fill="#333333"/>
</g>
<defs>
<clipPath id="clip0_6_1354">
<rect width="158" height="45" fill="white" transform="translate(45.5 0.5) rotate(90)"/>
</clipPath>
</defs>
</svg>
