<svg width="25" height="50" viewBox="0 0 25 50" fill="none" xmlns="http://www.w3.org/2000/svg">
<g clip-path="url(#clip0_131_787)">
<path d="M3.00591 48.8092C2.72717 36.7416 2.75372 24.6674 3.08555 12.6064C3.132 10.9499 3.1851 9.30013 3.23819 7.64367C3.29128 5.9872 3.51692 4.18438 3.35101 2.50131C3.2581 1.58992 0.822473 2.28177 0.689741 3.02685C0.424278 4.53696 0.490644 6.14021 0.437551 7.66363C0.384458 9.18704 0.338002 10.6439 0.298183 12.1274C0.211907 15.161 0.145542 18.1945 0.0924489 21.228C-0.00046326 27.2552 -0.0270096 33.2757 0.0260831 39.3028C0.059266 42.7222 0.112359 46.1415 0.191998 49.5609C0.211907 50.4457 3.02582 49.8935 2.99927 48.8092H3.00591Z" fill="#333333"/>
<path d="M24.3296 47.2259C24.6814 35.3379 24.7942 23.4499 24.6681 11.562C24.6349 8.13594 24.5752 4.70992 24.5022 1.28389C24.4823 0.478944 21.9139 0.97788 21.9404 1.97575C22.1993 13.7972 22.2258 25.6253 22.0134 37.4467C21.9537 40.8196 21.8674 44.1924 21.7679 47.5585C21.7347 48.6096 24.3097 48.0907 24.3296 47.2392V47.2259Z" fill="#333333"/>
<path d="M1.99132 4.11788C4.89814 4.09127 7.85142 3.28632 10.7051 2.80734C14.8397 2.10883 19.0274 1.4702 23.2284 1.45689C23.7792 1.45689 24.6221 1.27728 24.9207 0.758382C25.2194 0.239489 24.6685 0 24.2239 0C19.9632 0.0133049 15.729 0.612028 11.5347 1.31054C9.75612 1.60325 7.98415 1.92922 6.21218 2.22858C5.55516 2.34167 4.89814 2.44811 4.24112 2.54125C3.98229 2.57451 3.72346 2.60777 3.458 2.63438C3.33191 2.64768 3.20581 2.66099 3.07308 2.66764C2.99344 2.66764 3.27218 2.66764 2.9868 2.66764C2.43597 2.66764 1.59976 2.84061 1.29448 3.36615C0.989193 3.8917 1.54667 4.12453 1.99132 4.12453V4.11788Z" fill="#333333"/>
<path d="M3.68328 48.6563C7.95724 41.8242 10.9503 34.2603 14.6535 27.1222C15.211 26.0445 12.6559 26.3172 12.2644 27.069C8.56117 34.2071 5.56807 41.7709 1.29411 48.603C0.975555 49.1153 1.57285 49.3348 1.99095 49.3614C2.52851 49.388 3.37136 49.1552 3.68328 48.6629V48.6563Z" fill="#333333"/>
<path d="M11.8262 27.681C15.1047 34.094 18.8344 40.2874 22.5376 46.4676C22.969 47.1861 25.4644 46.3745 24.9202 45.4631C21.2767 39.3894 17.6199 33.3023 14.3946 26.9958C13.9499 26.1177 11.4545 26.9492 11.8328 27.6877L11.8262 27.681Z" fill="#333333"/>
</g>
<defs>
<clipPath id="clip0_131_787">
<rect width="25" height="50" fill="white"/>
</clipPath>
</defs>
</svg>
