<svg width="725" height="156" viewBox="0 0 725 156" fill="none" xmlns="http://www.w3.org/2000/svg">
<path d="M7.294 9.376L0.7 6.478V5.778L7.294 2.488V3.58L2.016 6.072L7.294 8.284V9.376ZM12.9797 11.168C11.8317 11.168 10.8517 10.888 10.2637 10.594L10.3337 8.564H10.7537C11.0897 9.964 11.9297 10.636 13.0637 10.636C13.9737 10.636 14.5477 10.146 14.5477 9.404C14.5477 8.578 13.7357 8.354 13.0357 8.13L12.5317 7.962C11.2437 7.556 10.4037 7.094 10.4037 5.96C10.4037 4.77 11.6077 3.916 13.0217 3.916C13.9737 3.916 14.7717 4.154 15.2477 4.308L15.2337 6.016H14.8137C14.5757 5.106 13.9597 4.448 12.8537 4.448C12.0977 4.448 11.5097 4.896 11.5097 5.54C11.5097 6.114 11.8737 6.436 12.9797 6.786L13.4977 6.954C14.9677 7.416 15.6957 7.92 15.6957 9.026C15.6957 10.328 14.5197 11.168 12.9797 11.168ZM22.2086 11.168C20.3046 11.168 18.9326 9.838 18.9326 7.724C18.9326 5.442 20.5566 3.944 22.2086 3.944C24.2246 3.944 25.2886 5.456 25.1626 7.08H20.1646C20.1786 9.264 21.4666 10.076 22.7686 10.076C23.7206 10.076 24.4206 9.67 24.9946 8.928L25.3026 9.138C24.6306 10.524 23.4826 11.168 22.2086 11.168ZM20.2066 6.478H23.7766C23.6646 5.33 23.0626 4.49 22.0126 4.49C21.1726 4.49 20.3886 5.204 20.2066 6.478ZM31.4656 11.154C29.3796 11.154 28.0496 9.684 28.0496 7.654C28.0496 5.498 29.6876 3.93 31.6616 3.93C33.5516 3.93 34.3216 4.938 34.4616 5.372C34.2796 5.666 33.9576 5.918 33.5376 5.918C33.2016 5.918 32.9776 5.736 32.7676 5.386C32.5296 4.98 32.2216 4.476 31.3256 4.476C30.4296 4.476 29.3516 5.246 29.3516 7.164C29.3516 9.068 30.5976 10.062 31.9976 10.062C33.0336 10.062 33.6916 9.642 34.3076 8.858L34.5736 9.026C33.9996 10.342 32.9356 11.154 31.4656 11.154ZM41.1845 11.154C39.9385 11.154 38.9305 10.622 38.9305 9.404V4.896H37.1525V4.518C38.5665 4.224 39.3645 3.244 39.8125 2.208H40.3165V4.112H43.4945L43.2285 4.896H40.3165V9.236C40.3165 9.936 40.9465 10.272 41.8705 10.272C42.4025 10.272 42.9765 10.188 43.5085 9.936V10.272C43.0185 10.762 42.0105 11.154 41.1845 11.154ZM47.2494 11V10.622L47.7114 10.594C48.6214 10.552 48.9714 10.384 48.9714 9.754V5.82C48.9714 5.246 48.7054 5.134 47.2494 4.91V4.588L50.1754 3.958H50.4274V9.754C50.4274 10.384 50.7774 10.552 51.6874 10.594L52.1494 10.622V11H47.2494ZM48.5234 1.564C48.5234 1.004 49.0134 0.528 49.5874 0.528C50.1614 0.528 50.6514 1.004 50.6514 1.564C50.6514 2.124 50.1334 2.6 49.5874 2.6C49.0134 2.6 48.5234 2.124 48.5234 1.564ZM58.6063 11.168C56.7303 11.168 55.1063 9.74 55.1063 7.584C55.1063 5.428 56.7303 3.944 58.6063 3.944C60.4823 3.944 62.1063 5.372 62.1063 7.528C62.1063 9.684 60.4823 11.168 58.6063 11.168ZM56.5623 7.276C56.5623 8.97 57.3183 10.608 58.6903 10.608C59.9923 10.608 60.6503 9.432 60.6503 7.836C60.6503 5.96 59.8243 4.504 58.5223 4.504C57.2203 4.504 56.5623 5.68 56.5623 7.276ZM68.3953 11V10.622L68.6333 10.594C69.1653 10.538 69.3193 10.342 69.3193 9.81V6.282C69.3193 5.302 68.7873 4.742 67.9053 4.742C67.2613 4.742 66.6593 5.092 66.3373 5.456V9.81C66.3373 10.398 66.5473 10.538 67.0233 10.594L67.2893 10.622V11H64.1253V10.622L64.3773 10.594C64.8393 10.538 65.0493 10.412 65.0493 9.81V5.75C65.0493 5.162 64.8533 5.078 64.1253 4.91V4.588L66.1833 3.958H66.3093V5.106C66.7433 4.518 67.5833 3.916 68.5493 3.916C70.0473 3.916 70.6073 4.98 70.6073 5.932V9.81C70.6073 10.426 70.8313 10.538 71.2933 10.594L71.5453 10.622V11H68.3953ZM86.3351 11.154C84.2491 11.154 82.9191 9.684 82.9191 7.654C82.9191 5.498 84.5571 3.93 86.5311 3.93C88.4211 3.93 89.1911 4.938 89.3311 5.372C89.1491 5.666 88.8271 5.918 88.4071 5.918C88.0711 5.918 87.8471 5.736 87.6371 5.386C87.3991 4.98 87.0911 4.476 86.1951 4.476C85.2991 4.476 84.2211 5.246 84.2211 7.164C84.2211 9.068 85.4671 10.062 86.8671 10.062C87.9031 10.062 88.5611 9.642 89.1771 8.858L89.4431 9.026C88.8691 10.342 87.8051 11.154 86.3351 11.154ZM92.792 11V10.622L93.184 10.58C94.22 10.51 94.542 10.37 94.542 9.74V2.446C94.542 1.802 94.234 1.634 92.792 1.466V1.144L95.732 0.499999H95.956V9.74C95.956 10.37 96.334 10.51 97.3 10.58L97.706 10.622V11H92.792ZM106.585 11.098C105.787 11.098 105.507 10.58 105.451 10.048C105.059 10.65 104.219 11.154 103.337 11.154C102.245 11.154 101.265 10.398 101.265 9.292C101.265 8.312 101.951 7.836 103.267 7.458L105.437 6.828V5.988C105.437 4.91 104.891 4.392 104.065 4.392C103.379 4.392 103.169 4.714 102.931 5.456C102.819 5.848 102.581 5.988 102.217 5.988C101.811 5.988 101.475 5.722 101.321 5.484C101.545 4.756 102.581 3.916 104.149 3.916C106.039 3.916 106.753 4.896 106.753 5.974V9.67C106.753 10.16 106.977 10.342 107.425 10.342C107.607 10.342 107.789 10.314 107.873 10.286V10.538C107.523 10.902 106.963 11.098 106.585 11.098ZM102.623 9.096C102.623 9.726 103.071 10.356 104.009 10.356C104.653 10.356 105.129 10.104 105.437 9.768V7.374L103.771 7.892C102.847 8.186 102.623 8.55 102.623 9.096ZM113.574 11.168C112.426 11.168 111.446 10.888 110.858 10.594L110.928 8.564H111.348C111.684 9.964 112.524 10.636 113.658 10.636C114.568 10.636 115.142 10.146 115.142 9.404C115.142 8.578 114.33 8.354 113.63 8.13L113.126 7.962C111.838 7.556 110.998 7.094 110.998 5.96C110.998 4.77 112.202 3.916 113.616 3.916C114.568 3.916 115.366 4.154 115.842 4.308L115.828 6.016H115.408C115.17 5.106 114.554 4.448 113.448 4.448C112.692 4.448 112.104 4.896 112.104 5.54C112.104 6.114 112.468 6.436 113.574 6.786L114.092 6.954C115.562 7.416 116.29 7.92 116.29 9.026C116.29 10.328 115.114 11.168 113.574 11.168ZM122.719 11.168C121.571 11.168 120.591 10.888 120.003 10.594L120.073 8.564H120.493C120.829 9.964 121.669 10.636 122.803 10.636C123.713 10.636 124.287 10.146 124.287 9.404C124.287 8.578 123.475 8.354 122.775 8.13L122.271 7.962C120.983 7.556 120.143 7.094 120.143 5.96C120.143 4.77 121.347 3.916 122.761 3.916C123.713 3.916 124.511 4.154 124.987 4.308L124.973 6.016H124.553C124.315 5.106 123.699 4.448 122.593 4.448C121.837 4.448 121.249 4.896 121.249 5.54C121.249 6.114 121.613 6.436 122.719 6.786L123.237 6.954C124.707 7.416 125.435 7.92 125.435 9.026C125.435 10.328 124.259 11.168 122.719 11.168ZM128.28 5.176V4.182H134.692V5.176H128.28ZM128.28 7.962V6.968H134.692V7.962H128.28ZM138.347 1.004L138.067 4.616H137.297L137.017 1.004H138.347ZM140.909 1.004L140.629 4.616H139.859L139.579 1.004H140.909ZM146.986 11.154C144.9 11.154 143.57 9.684 143.57 7.654C143.57 5.498 145.208 3.93 147.182 3.93C149.072 3.93 149.842 4.938 149.982 5.372C149.8 5.666 149.478 5.918 149.058 5.918C148.722 5.918 148.498 5.736 148.288 5.386C148.05 4.98 147.742 4.476 146.846 4.476C145.95 4.476 144.872 5.246 144.872 7.164C144.872 9.068 146.118 10.062 147.518 10.062C148.554 10.062 149.212 9.642 149.828 8.858L150.094 9.026C149.52 10.342 148.456 11.154 146.986 11.154ZM155.837 11.168C153.961 11.168 152.337 9.74 152.337 7.584C152.337 5.428 153.961 3.944 155.837 3.944C157.713 3.944 159.337 5.372 159.337 7.528C159.337 9.684 157.713 11.168 155.837 11.168ZM153.793 7.276C153.793 8.97 154.549 10.608 155.921 10.608C157.223 10.608 157.881 9.432 157.881 7.836C157.881 5.96 157.055 4.504 155.753 4.504C154.451 4.504 153.793 5.68 153.793 7.276ZM165.626 11V10.622L165.864 10.594C166.396 10.538 166.55 10.342 166.55 9.81V6.282C166.55 5.302 166.018 4.742 165.136 4.742C164.492 4.742 163.89 5.092 163.568 5.456V9.81C163.568 10.398 163.778 10.538 164.254 10.594L164.52 10.622V11H161.356V10.622L161.608 10.594C162.07 10.538 162.28 10.412 162.28 9.81V5.75C162.28 5.162 162.084 5.078 161.356 4.91V4.588L163.414 3.958H163.54V5.106C163.974 4.518 164.814 3.916 165.78 3.916C167.278 3.916 167.838 4.98 167.838 5.932V9.81C167.838 10.426 168.062 10.538 168.524 10.594L168.776 10.622V11H165.626ZM174.995 11.154C173.749 11.154 172.741 10.622 172.741 9.404V4.896H170.963V4.518C172.377 4.224 173.175 3.244 173.623 2.208H174.127V4.112H177.305L177.039 4.896H174.127V9.236C174.127 9.936 174.757 10.272 175.681 10.272C176.213 10.272 176.787 10.188 177.319 9.936V10.272C176.829 10.762 175.821 11.154 174.995 11.154ZM185.526 11.098C184.728 11.098 184.448 10.58 184.392 10.048C184 10.65 183.16 11.154 182.278 11.154C181.186 11.154 180.206 10.398 180.206 9.292C180.206 8.312 180.892 7.836 182.208 7.458L184.378 6.828V5.988C184.378 4.91 183.832 4.392 183.006 4.392C182.32 4.392 182.11 4.714 181.872 5.456C181.76 5.848 181.522 5.988 181.158 5.988C180.752 5.988 180.416 5.722 180.262 5.484C180.486 4.756 181.522 3.916 183.09 3.916C184.98 3.916 185.694 4.896 185.694 5.974V9.67C185.694 10.16 185.918 10.342 186.366 10.342C186.548 10.342 186.73 10.314 186.814 10.286V10.538C186.464 10.902 185.904 11.098 185.526 11.098ZM181.564 9.096C181.564 9.726 182.012 10.356 182.95 10.356C183.594 10.356 184.07 10.104 184.378 9.768V7.374L182.712 7.892C181.788 8.186 181.564 8.55 181.564 9.096ZM190.205 11V10.622L190.667 10.594C191.577 10.552 191.927 10.384 191.927 9.754V5.82C191.927 5.246 191.661 5.134 190.205 4.91V4.588L193.131 3.958H193.383V9.754C193.383 10.384 193.733 10.552 194.643 10.594L195.105 10.622V11H190.205ZM191.479 1.564C191.479 1.004 191.969 0.528 192.543 0.528C193.117 0.528 193.607 1.004 193.607 1.564C193.607 2.124 193.089 2.6 192.543 2.6C191.969 2.6 191.479 2.124 191.479 1.564ZM202.206 11V10.622L202.444 10.594C202.976 10.538 203.13 10.342 203.13 9.81V6.282C203.13 5.302 202.598 4.742 201.716 4.742C201.072 4.742 200.47 5.092 200.148 5.456V9.81C200.148 10.398 200.358 10.538 200.834 10.594L201.1 10.622V11H197.936V10.622L198.188 10.594C198.65 10.538 198.86 10.412 198.86 9.81V5.75C198.86 5.162 198.664 5.078 197.936 4.91V4.588L199.994 3.958H200.12V5.106C200.554 4.518 201.394 3.916 202.36 3.916C203.858 3.916 204.418 4.98 204.418 5.932V9.81C204.418 10.426 204.642 10.538 205.104 10.594L205.356 10.622V11H202.206ZM210.889 11.168C208.985 11.168 207.613 9.838 207.613 7.724C207.613 5.442 209.237 3.944 210.889 3.944C212.905 3.944 213.969 5.456 213.843 7.08H208.845C208.859 9.264 210.147 10.076 211.449 10.076C212.401 10.076 213.101 9.67 213.675 8.928L213.983 9.138C213.311 10.524 212.163 11.168 210.889 11.168ZM208.887 6.478H212.457C212.345 5.33 211.743 4.49 210.693 4.49C209.853 4.49 209.069 5.204 208.887 6.478ZM216.968 11V10.566L217.192 10.538C217.934 10.482 218.256 10.314 218.256 9.698V5.792C218.256 5.232 218.088 5.078 217.122 4.91V4.588L219.432 3.958H219.586V5.638C219.936 4.896 220.734 3.972 221.812 3.972C222.498 3.972 223.114 4.266 223.366 4.532C223.198 5.12 222.806 5.512 222.344 5.512C222.106 5.512 221.924 5.442 221.658 5.316C221.35 5.176 221.098 5.092 220.832 5.092C220.314 5.092 219.894 5.54 219.628 6.072V9.726C219.628 10.412 220.146 10.454 221.238 10.538L221.574 10.566V11H216.968ZM239.975 11V10.636L240.101 10.608C240.395 10.552 240.479 10.384 240.479 9.922V5.862C240.479 5.106 240.143 4.77 239.653 4.77C239.303 4.77 238.981 5.022 238.757 5.344C238.771 5.414 238.771 5.47 238.771 5.54V9.922C238.771 10.398 238.841 10.552 239.135 10.608L239.275 10.636V11H237.063V10.636L237.231 10.608C237.525 10.552 237.567 10.384 237.567 9.922V5.862C237.567 5.12 237.231 4.77 236.727 4.77C236.391 4.77 236.069 4.994 235.873 5.344V9.922C235.873 10.398 235.929 10.552 236.237 10.608L236.391 10.636V11H234.123V10.636L234.263 10.608C234.585 10.552 234.669 10.398 234.669 9.922V5.792C234.669 5.232 234.599 5.05 234.109 4.91V4.588L235.705 3.958H235.831V5.05C236.097 4.476 236.685 3.916 237.427 3.916C238.183 3.916 238.589 4.434 238.729 5.064C238.995 4.49 239.569 3.916 240.311 3.916C241.361 3.916 241.669 4.728 241.669 5.568V9.922C241.669 10.37 241.753 10.552 242.061 10.608L242.215 10.636V11H239.975ZM247.748 11V10.622L248.07 10.58C248.588 10.51 248.518 10.146 248.126 9.614L246.95 8.032L245.774 9.614C245.354 10.188 245.508 10.496 246.11 10.58L246.404 10.622V11H243.59V10.622C244.024 10.524 244.528 10.216 245.088 9.474L246.53 7.598L244.948 5.54C244.388 4.812 244.192 4.574 243.758 4.504V4.112H246.894V4.504L246.6 4.546C245.928 4.63 246.096 5.022 246.46 5.498L247.496 6.87L248.532 5.498C248.938 4.966 248.91 4.616 248.378 4.546L248.07 4.504V4.112H250.772V4.504C250.156 4.588 249.778 4.938 249.246 5.61L247.902 7.304L249.638 9.572C250.254 10.384 250.506 10.566 250.94 10.622V11H247.748ZM254.429 7.472V6.324H258.433V7.472H254.429ZM267.83 11.098C267.032 11.098 266.752 10.58 266.696 10.048C266.304 10.65 265.464 11.154 264.582 11.154C263.49 11.154 262.51 10.398 262.51 9.292C262.51 8.312 263.196 7.836 264.512 7.458L266.682 6.828V5.988C266.682 4.91 266.136 4.392 265.31 4.392C264.624 4.392 264.414 4.714 264.176 5.456C264.064 5.848 263.826 5.988 263.462 5.988C263.056 5.988 262.72 5.722 262.566 5.484C262.79 4.756 263.826 3.916 265.394 3.916C267.284 3.916 267.998 4.896 267.998 5.974V9.67C267.998 10.16 268.222 10.342 268.67 10.342C268.852 10.342 269.034 10.314 269.118 10.286V10.538C268.768 10.902 268.208 11.098 267.83 11.098ZM263.868 9.096C263.868 9.726 264.316 10.356 265.254 10.356C265.898 10.356 266.374 10.104 266.682 9.768V7.374L265.016 7.892C264.092 8.186 263.868 8.55 263.868 9.096ZM273.951 11.154C272.621 11.154 271.893 10.37 271.893 8.956V5.484C271.893 4.938 271.697 4.826 270.913 4.644V4.322L273.055 3.958H273.195V8.774C273.195 9.684 273.573 10.342 274.595 10.342C275.281 10.342 275.799 10.048 276.149 9.684C276.135 9.544 276.135 9.39 276.135 9.236V5.498C276.135 4.994 276.009 4.84 275.169 4.658V4.322L277.283 3.958H277.409V9.516C277.409 10.146 277.563 10.314 278.347 10.44V10.762L276.513 11.098C276.345 10.832 276.233 10.426 276.177 9.964C275.827 10.524 274.987 11.154 273.951 11.154ZM284.734 11.154C283.488 11.154 282.48 10.622 282.48 9.404V4.896H280.702V4.518C282.116 4.224 282.914 3.244 283.362 2.208H283.866V4.112H287.044L286.778 4.896H283.866V9.236C283.866 9.936 284.496 10.272 285.42 10.272C285.952 10.272 286.526 10.188 287.058 9.936V10.272C286.568 10.762 285.56 11.154 284.734 11.154ZM293.011 11.168C291.135 11.168 289.511 9.74 289.511 7.584C289.511 5.428 291.135 3.944 293.011 3.944C294.887 3.944 296.511 5.372 296.511 7.528C296.511 9.684 294.887 11.168 293.011 11.168ZM290.967 7.276C290.967 8.97 291.723 10.608 293.095 10.608C294.397 10.608 295.055 9.432 295.055 7.836C295.055 5.96 294.229 4.504 292.927 4.504C291.625 4.504 290.967 5.68 290.967 7.276ZM312.169 11.154C310.923 11.154 309.915 10.622 309.915 9.404V4.896H308.137V4.518C309.551 4.224 310.349 3.244 310.797 2.208H311.301V4.112H314.479L314.213 4.896H311.301V9.236C311.301 9.936 311.931 10.272 312.855 10.272C313.387 10.272 313.961 10.188 314.493 9.936V10.272C314.003 10.762 312.995 11.154 312.169 11.154ZM320.628 11.168C318.724 11.168 317.352 9.838 317.352 7.724C317.352 5.442 318.976 3.944 320.628 3.944C322.644 3.944 323.708 5.456 323.582 7.08H318.584C318.598 9.264 319.886 10.076 321.188 10.076C322.14 10.076 322.84 9.67 323.414 8.928L323.722 9.138C323.05 10.524 321.902 11.168 320.628 11.168ZM318.626 6.478H322.196C322.084 5.33 321.482 4.49 320.432 4.49C319.592 4.49 318.808 5.204 318.626 6.478ZM330.053 11V10.622L330.375 10.58C330.893 10.51 330.823 10.146 330.431 9.614L329.255 8.032L328.079 9.614C327.659 10.188 327.813 10.496 328.415 10.58L328.709 10.622V11H325.895V10.622C326.329 10.524 326.833 10.216 327.393 9.474L328.835 7.598L327.253 5.54C326.693 4.812 326.497 4.574 326.063 4.504V4.112H329.199V4.504L328.905 4.546C328.233 4.63 328.401 5.022 328.765 5.498L329.801 6.87L330.837 5.498C331.243 4.966 331.215 4.616 330.683 4.546L330.375 4.504V4.112H333.077V4.504C332.461 4.588 332.083 4.938 331.551 5.61L330.207 7.304L331.943 9.572C332.559 10.384 332.811 10.566 333.245 10.622V11H330.053ZM339.604 11.154C338.358 11.154 337.35 10.622 337.35 9.404V4.896H335.572V4.518C336.986 4.224 337.784 3.244 338.232 2.208H338.736V4.112H341.914L341.648 4.896H338.736V9.236C338.736 9.936 339.366 10.272 340.29 10.272C340.822 10.272 341.396 10.188 341.928 9.936V10.272C341.438 10.762 340.43 11.154 339.604 11.154ZM345.879 7.472V6.324H349.883V7.472H345.879ZM356.773 11.154C355.849 11.154 354.757 10.958 354.113 10.496V2.334C354.113 1.788 353.973 1.62 353.161 1.466V1.144L355.303 0.499999H355.429V4.924C355.793 4.49 356.479 3.972 357.515 3.972C359.167 3.972 360.441 5.274 360.441 7.374C360.441 9.628 358.957 11.154 356.773 11.154ZM355.429 10.076C355.751 10.384 356.227 10.608 356.899 10.608C358.187 10.608 358.999 9.684 358.999 7.626C358.999 5.764 358.089 4.756 356.829 4.756C356.255 4.756 355.793 4.952 355.429 5.302V10.076ZM363.776 11V10.622L364.168 10.58C365.204 10.51 365.526 10.37 365.526 9.74V2.446C365.526 1.802 365.218 1.634 363.776 1.466V1.144L366.716 0.499999H366.94V9.74C366.94 10.37 367.318 10.51 368.284 10.58L368.69 10.622V11H363.776ZM377.569 11.098C376.771 11.098 376.491 10.58 376.435 10.048C376.043 10.65 375.203 11.154 374.321 11.154C373.229 11.154 372.249 10.398 372.249 9.292C372.249 8.312 372.935 7.836 374.251 7.458L376.421 6.828V5.988C376.421 4.91 375.875 4.392 375.049 4.392C374.363 4.392 374.153 4.714 373.915 5.456C373.803 5.848 373.565 5.988 373.201 5.988C372.795 5.988 372.459 5.722 372.305 5.484C372.529 4.756 373.565 3.916 375.133 3.916C377.023 3.916 377.737 4.896 377.737 5.974V9.67C377.737 10.16 377.961 10.342 378.409 10.342C378.591 10.342 378.773 10.314 378.857 10.286V10.538C378.507 10.902 377.947 11.098 377.569 11.098ZM373.607 9.096C373.607 9.726 374.055 10.356 374.993 10.356C375.637 10.356 376.113 10.104 376.421 9.768V7.374L374.755 7.892C373.831 8.186 373.607 8.55 373.607 9.096ZM384.754 11.154C382.668 11.154 381.338 9.684 381.338 7.654C381.338 5.498 382.976 3.93 384.95 3.93C386.84 3.93 387.61 4.938 387.75 5.372C387.568 5.666 387.246 5.918 386.826 5.918C386.49 5.918 386.266 5.736 386.056 5.386C385.818 4.98 385.51 4.476 384.614 4.476C383.718 4.476 382.64 5.246 382.64 7.164C382.64 9.068 383.886 10.062 385.286 10.062C386.322 10.062 386.98 9.642 387.596 8.858L387.862 9.026C387.288 10.342 386.224 11.154 384.754 11.154ZM390.077 11V10.622L390.329 10.594C390.833 10.538 391.015 10.384 391.015 9.726V2.334C391.015 1.788 390.889 1.62 390.119 1.466V1.144L392.219 0.499999H392.345V7.472L394.305 5.568C394.907 4.98 394.879 4.602 394.417 4.532L394.235 4.49V4.112H397.035V4.476C396.447 4.588 395.733 5.078 394.725 6.002L393.997 6.674L395.957 9.39C396.433 10.048 396.671 10.454 397.273 10.58L397.469 10.622V11H394.431V10.622L394.585 10.608C394.935 10.58 395.047 10.258 394.711 9.796L393.101 7.5L392.345 8.214V9.726C392.345 10.384 392.513 10.538 392.989 10.594L393.241 10.622V11H390.077ZM400.72 1.004L400.44 4.616H399.67L399.39 1.004H400.72ZM403.282 1.004L403.002 4.616H402.232L401.952 1.004H403.282ZM405.495 8.284L410.773 6.086L405.495 3.58V2.488L412.089 5.778V6.478L405.495 9.376V8.284ZM80.4534 33.376L73.8594 30.478V29.778L80.4534 26.488V27.58L75.1754 30.072L80.4534 32.284V33.376ZM82.3871 35V34.622L82.6391 34.594C83.0871 34.538 83.3111 34.426 83.3111 33.81V26.334C83.3111 25.788 83.1851 25.634 82.3871 25.466V25.144L84.4871 24.5H84.6131V29.106C85.0191 28.518 85.8451 27.916 86.8391 27.916C88.3371 27.916 88.9251 28.994 88.9251 29.96V33.81C88.9251 34.426 89.1491 34.538 89.6111 34.594L89.8491 34.622V35H86.6991V34.622L86.9511 34.594C87.4411 34.538 87.6231 34.398 87.6231 33.81V30.31C87.6231 29.316 87.1051 28.742 86.1951 28.742C85.5511 28.742 84.9771 29.05 84.6131 29.456V33.81C84.6131 34.412 84.7951 34.524 85.2851 34.594L85.5371 34.622V35H82.3871ZM92.554 35V34.608L92.904 34.58C93.996 34.496 94.696 34.384 94.696 33.6V27.496C94.696 27.034 94.556 26.866 93.884 26.866H92.554V26.502C93.87 26.222 94.878 25.718 95.788 25.102H96.068V33.6C96.068 34.426 96.922 34.51 97.874 34.58L98.224 34.608V35H92.554ZM113.77 35.154C111.684 35.154 110.354 33.684 110.354 31.654C110.354 29.498 111.992 27.93 113.966 27.93C115.856 27.93 116.626 28.938 116.766 29.372C116.584 29.666 116.262 29.918 115.842 29.918C115.506 29.918 115.282 29.736 115.072 29.386C114.834 28.98 114.526 28.476 113.63 28.476C112.734 28.476 111.656 29.246 111.656 31.164C111.656 33.068 112.902 34.062 114.302 34.062C115.338 34.062 115.996 33.642 116.612 32.858L116.878 33.026C116.304 34.342 115.24 35.154 113.77 35.154ZM120.227 35V34.622L120.619 34.58C121.655 34.51 121.977 34.37 121.977 33.74V26.446C121.977 25.802 121.669 25.634 120.227 25.466V25.144L123.167 24.5H123.391V33.74C123.391 34.37 123.769 34.51 124.735 34.58L125.141 34.622V35H120.227ZM134.02 35.098C133.222 35.098 132.942 34.58 132.886 34.048C132.494 34.65 131.654 35.154 130.772 35.154C129.68 35.154 128.7 34.398 128.7 33.292C128.7 32.312 129.386 31.836 130.702 31.458L132.872 30.828V29.988C132.872 28.91 132.326 28.392 131.5 28.392C130.814 28.392 130.604 28.714 130.366 29.456C130.254 29.848 130.016 29.988 129.652 29.988C129.246 29.988 128.91 29.722 128.756 29.484C128.98 28.756 130.016 27.916 131.584 27.916C133.474 27.916 134.188 28.896 134.188 29.974V33.67C134.188 34.16 134.412 34.342 134.86 34.342C135.042 34.342 135.224 34.314 135.308 34.286V34.538C134.958 34.902 134.398 35.098 134.02 35.098ZM130.058 33.096C130.058 33.726 130.506 34.356 131.444 34.356C132.088 34.356 132.564 34.104 132.872 33.768V31.374L131.206 31.892C130.282 32.186 130.058 32.55 130.058 33.096ZM141.009 35.168C139.861 35.168 138.881 34.888 138.293 34.594L138.363 32.564H138.783C139.119 33.964 139.959 34.636 141.093 34.636C142.003 34.636 142.577 34.146 142.577 33.404C142.577 32.578 141.765 32.354 141.065 32.13L140.561 31.962C139.273 31.556 138.433 31.094 138.433 29.96C138.433 28.77 139.637 27.916 141.051 27.916C142.003 27.916 142.801 28.154 143.277 28.308L143.263 30.016H142.843C142.605 29.106 141.989 28.448 140.883 28.448C140.127 28.448 139.539 28.896 139.539 29.54C139.539 30.114 139.903 30.436 141.009 30.786L141.527 30.954C142.997 31.416 143.725 31.92 143.725 33.026C143.725 34.328 142.549 35.168 141.009 35.168ZM150.154 35.168C149.006 35.168 148.026 34.888 147.438 34.594L147.508 32.564H147.928C148.264 33.964 149.104 34.636 150.238 34.636C151.148 34.636 151.722 34.146 151.722 33.404C151.722 32.578 150.91 32.354 150.21 32.13L149.706 31.962C148.418 31.556 147.578 31.094 147.578 29.96C147.578 28.77 148.782 27.916 150.196 27.916C151.148 27.916 151.946 28.154 152.422 28.308L152.408 30.016H151.988C151.75 29.106 151.134 28.448 150.028 28.448C149.272 28.448 148.684 28.896 148.684 29.54C148.684 30.114 149.048 30.436 150.154 30.786L150.672 30.954C152.142 31.416 152.87 31.92 152.87 33.026C152.87 34.328 151.694 35.168 150.154 35.168ZM155.714 29.176V28.182H162.126V29.176H155.714ZM155.714 31.962V30.968H162.126V31.962H155.714ZM165.782 25.004L165.502 28.616H164.732L164.452 25.004H165.782ZM168.344 25.004L168.064 28.616H167.294L167.014 25.004H168.344ZM174.085 35.154C173.595 35.154 173.133 35.084 172.713 34.972V36.75C172.713 37.324 172.895 37.478 173.399 37.534L173.637 37.562V37.94H170.459V37.562L170.711 37.534C171.173 37.478 171.383 37.366 171.383 36.75V29.792C171.383 29.246 171.285 29.064 170.459 28.91V28.588L172.559 27.958H172.685V28.924C173.035 28.49 173.749 27.972 174.771 27.972C176.423 27.972 177.669 29.288 177.669 31.374C177.669 33.628 176.171 35.154 174.085 35.154ZM172.713 33.964C173.049 34.356 173.553 34.608 174.197 34.608C175.401 34.608 176.241 33.684 176.241 31.626C176.241 29.792 175.345 28.756 174.085 28.756C173.497 28.756 173.035 28.994 172.713 29.302V33.964ZM184.14 35.154C182.894 35.154 181.886 34.622 181.886 33.404V28.896H180.108V28.518C181.522 28.224 182.32 27.244 182.768 26.208H183.272V28.112H186.45L186.184 28.896H183.272V33.236C183.272 33.936 183.902 34.272 184.826 34.272C185.358 34.272 185.932 34.188 186.464 33.936V34.272C185.974 34.762 184.966 35.154 184.14 35.154ZM190.415 31.472V30.324H194.419V31.472H190.415ZM202.36 35V32.718H198.132V31.808L202.5 25.2H203.676V31.738H205.076L204.824 32.718H203.676V35H202.36ZM198.888 31.738H202.36V26.46L198.888 31.738ZM219.81 35.154C219.32 35.154 218.858 35.084 218.438 34.972V36.75C218.438 37.324 218.62 37.478 219.124 37.534L219.362 37.562V37.94H216.184V37.562L216.436 37.534C216.898 37.478 217.108 37.366 217.108 36.75V29.792C217.108 29.246 217.01 29.064 216.184 28.91V28.588L218.284 27.958H218.41V28.924C218.76 28.49 219.474 27.972 220.496 27.972C222.148 27.972 223.394 29.288 223.394 31.374C223.394 33.628 221.896 35.154 219.81 35.154ZM218.438 33.964C218.774 34.356 219.278 34.608 219.922 34.608C221.126 34.608 221.966 33.684 221.966 31.626C221.966 29.792 221.07 28.756 219.81 28.756C219.222 28.756 218.76 28.994 218.438 29.302V33.964ZM228.745 35.154C227.821 35.154 226.729 34.958 226.085 34.496V26.334C226.085 25.788 225.945 25.62 225.133 25.466V25.144L227.275 24.5H227.401V28.924C227.765 28.49 228.451 27.972 229.487 27.972C231.139 27.972 232.413 29.274 232.413 31.374C232.413 33.628 230.929 35.154 228.745 35.154ZM227.401 34.076C227.723 34.384 228.199 34.608 228.871 34.608C230.159 34.608 230.971 33.684 230.971 31.626C230.971 29.764 230.061 28.756 228.801 28.756C228.227 28.756 227.765 28.952 227.401 29.302V34.076ZM236.139 31.472V30.324H240.143V31.472H236.139ZM244.654 35V34.608L245.004 34.58C246.096 34.496 246.796 34.384 246.796 33.6V27.496C246.796 27.034 246.656 26.866 245.984 26.866H244.654V26.502C245.97 26.222 246.978 25.718 247.888 25.102H248.168V33.6C248.168 34.426 249.022 34.51 249.974 34.58L250.324 34.608V35H244.654ZM256.669 35.182C254.541 35.182 253.239 33.446 253.239 31.206C253.239 27.692 255.745 25.438 258.769 24.99L258.895 25.34C256.809 26.138 255.199 27.3 254.821 29.904C255.269 29.33 255.983 28.854 256.963 28.854C258.587 28.854 259.819 30.002 259.819 31.85C259.819 33.614 258.405 35.182 256.669 35.182ZM254.737 31.15C254.737 33.11 255.339 34.622 256.697 34.622C257.789 34.622 258.377 33.516 258.377 32.046C258.377 30.604 257.691 29.652 256.361 29.652C255.633 29.652 255.115 29.918 254.779 30.268C254.751 30.548 254.737 30.842 254.737 31.15ZM271.599 30.03C271.319 28.868 271.193 28.588 270.885 28.504V28.112H273.181V28.504L273.027 28.532C272.649 28.602 272.523 28.896 272.733 29.848L273.559 33.6L274.469 29.75C274.217 28.7 274.077 28.56 273.881 28.504V28.112H276.079V28.504L275.939 28.532C275.477 28.658 275.407 28.966 275.603 29.876L276.429 33.544L277.255 29.96C277.465 29.036 277.479 28.644 277.059 28.532L276.905 28.504V28.112H278.613V28.504C278.235 28.616 278.081 29.022 277.843 30.072L276.695 35H275.673L274.763 30.996L273.783 35H272.761L271.599 30.03ZM281.864 31.472V30.324H285.868V31.472H281.864ZM289.427 35V34.664L290.435 33.628C293.207 30.772 294.229 29.47 294.229 27.888C294.229 26.698 293.417 26.082 292.339 26.082C291.303 26.082 290.603 26.6 290.071 27.552L289.665 27.356C290.029 26.348 290.953 25.004 292.843 25.004C294.635 25.004 295.671 26.194 295.671 27.58C295.671 29.512 293.781 31.178 291.121 33.642L290.883 33.852H293.473C294.985 33.852 295.265 33.628 295.685 32.452H296.105L295.783 35H289.427ZM302.954 25.004L299.23 35H298.026L301.75 25.004H302.954ZM307.811 35.196C306.131 35.196 305.025 34.524 304.591 33.754C304.815 33.376 305.193 33.124 305.585 33.124C305.837 33.124 306.047 33.194 306.383 33.628C306.817 34.202 307.167 34.65 308.035 34.65C308.931 34.65 309.673 33.88 309.673 32.662C309.673 31.01 308.091 30.212 306.621 30.17V29.792C307.587 29.61 309.169 28.882 309.169 27.538C309.169 26.544 308.441 26.026 307.321 26.026C306.257 26.026 305.599 26.642 305.235 27.23L304.871 26.978C305.319 26.026 306.285 25.004 307.909 25.004C309.533 25.004 310.499 25.956 310.499 27.09C310.499 28.448 309.225 29.134 308.441 29.372C309.771 29.708 310.989 30.716 310.989 32.172C310.989 33.95 309.463 35.196 307.811 35.196ZM327.123 35.154C325.877 35.154 324.869 34.622 324.869 33.404V28.896H323.091V28.518C324.505 28.224 325.303 27.244 325.751 26.208H326.255V28.112H329.433L329.167 28.896H326.255V33.236C326.255 33.936 326.885 34.272 327.809 34.272C328.341 34.272 328.915 34.188 329.447 33.936V34.272C328.957 34.762 327.949 35.154 327.123 35.154ZM335.582 35.168C333.678 35.168 332.306 33.838 332.306 31.724C332.306 29.442 333.93 27.944 335.582 27.944C337.598 27.944 338.662 29.456 338.536 31.08H333.538C333.552 33.264 334.84 34.076 336.142 34.076C337.094 34.076 337.794 33.67 338.368 32.928L338.676 33.138C338.004 34.524 336.856 35.168 335.582 35.168ZM333.58 30.478H337.15C337.038 29.33 336.436 28.49 335.386 28.49C334.546 28.49 333.762 29.204 333.58 30.478ZM345.007 35V34.622L345.329 34.58C345.847 34.51 345.777 34.146 345.385 33.614L344.209 32.032L343.033 33.614C342.613 34.188 342.767 34.496 343.369 34.58L343.663 34.622V35H340.849V34.622C341.283 34.524 341.787 34.216 342.347 33.474L343.789 31.598L342.207 29.54C341.647 28.812 341.451 28.574 341.017 28.504V28.112H344.153V28.504L343.859 28.546C343.187 28.63 343.355 29.022 343.719 29.498L344.755 30.87L345.791 29.498C346.197 28.966 346.169 28.616 345.637 28.546L345.329 28.504V28.112H348.031V28.504C347.415 28.588 347.037 28.938 346.505 29.61L345.161 31.304L346.897 33.572C347.513 34.384 347.765 34.566 348.199 34.622V35H345.007ZM354.558 35.154C353.312 35.154 352.304 34.622 352.304 33.404V28.896H350.526V28.518C351.94 28.224 352.738 27.244 353.186 26.208H353.69V28.112H356.868L356.602 28.896H353.69V33.236C353.69 33.936 354.32 34.272 355.244 34.272C355.776 34.272 356.35 34.188 356.882 33.936V34.272C356.392 34.762 355.384 35.154 354.558 35.154ZM360.832 31.472V30.324H364.836V31.472H360.832ZM372.007 35.182C370.047 35.182 368.773 33.992 368.773 32.592C368.773 31.472 369.487 30.478 371.027 29.946C369.669 29.134 369.207 28.28 369.207 27.454C369.207 26.11 370.453 25.018 372.091 25.018C373.659 25.018 374.877 26.026 374.877 27.342C374.877 28.378 374.023 29.232 372.959 29.61C374.667 30.66 375.171 31.402 375.171 32.508C375.171 33.978 373.813 35.182 372.007 35.182ZM370.047 32.452C370.047 33.642 370.901 34.622 372.105 34.622C373.281 34.622 373.911 33.796 373.911 32.83C373.911 31.808 373.211 31.22 372.049 30.548L371.307 30.114C370.355 30.716 370.047 31.556 370.047 32.452ZM370.439 27.118C370.439 27.832 370.845 28.322 371.853 28.938L372.637 29.414C373.309 29.008 373.729 28.364 373.729 27.454C373.729 26.32 372.959 25.578 371.979 25.578C371.041 25.578 370.439 26.194 370.439 27.118ZM381.586 35V34.622L381.908 34.58C382.426 34.51 382.356 34.146 381.964 33.614L380.788 32.032L379.612 33.614C379.192 34.188 379.346 34.496 379.948 34.58L380.242 34.622V35H377.428V34.622C377.862 34.524 378.366 34.216 378.926 33.474L380.368 31.598L378.786 29.54C378.226 28.812 378.03 28.574 377.596 28.504V28.112H380.732V28.504L380.438 28.546C379.766 28.63 379.934 29.022 380.298 29.498L381.334 30.87L382.37 29.498C382.776 28.966 382.748 28.616 382.216 28.546L381.908 28.504V28.112H384.61V28.504C383.994 28.588 383.616 28.938 383.084 29.61L381.74 31.304L383.476 33.572C384.092 34.384 384.344 34.566 384.778 34.622V35H381.586ZM387.875 35V34.622L388.267 34.58C389.303 34.51 389.625 34.37 389.625 33.74V26.446C389.625 25.802 389.317 25.634 387.875 25.466V25.144L390.815 24.5H391.039V33.74C391.039 34.37 391.417 34.51 392.383 34.58L392.789 34.622V35H387.875ZM406.151 35V34.622L406.543 34.594C407.145 34.552 407.439 34.342 407.439 33.726V28.896H405.801V28.504L407.439 28.112V27.37C407.439 25.312 409.161 24.5 410.547 24.5C411.863 24.5 412.689 25.06 412.885 25.438C412.675 25.802 412.395 26.054 411.961 26.054C411.583 26.054 411.373 25.872 411.121 25.648C410.841 25.41 410.449 25.06 409.987 25.06C409.119 25.06 408.811 25.746 408.811 27.314V28.112H411.331L411.065 28.896H408.811V33.726C408.811 34.412 409.133 34.496 410.379 34.594L410.757 34.622V35H406.151ZM417.704 35.168C415.828 35.168 414.204 33.74 414.204 31.584C414.204 29.428 415.828 27.944 417.704 27.944C419.58 27.944 421.204 29.372 421.204 31.528C421.204 33.684 419.58 35.168 417.704 35.168ZM415.66 31.276C415.66 32.97 416.416 34.608 417.788 34.608C419.09 34.608 419.748 33.432 419.748 31.836C419.748 29.96 418.922 28.504 417.62 28.504C416.318 28.504 415.66 29.68 415.66 31.276ZM427.493 35V34.622L427.731 34.594C428.263 34.538 428.417 34.342 428.417 33.81V30.282C428.417 29.302 427.885 28.742 427.003 28.742C426.359 28.742 425.757 29.092 425.435 29.456V33.81C425.435 34.398 425.645 34.538 426.121 34.594L426.387 34.622V35H423.223V34.622L423.475 34.594C423.937 34.538 424.147 34.412 424.147 33.81V29.75C424.147 29.162 423.951 29.078 423.223 28.91V28.588L425.281 27.958H425.407V29.106C425.841 28.518 426.681 27.916 427.647 27.916C429.145 27.916 429.705 28.98 429.705 29.932V33.81C429.705 34.426 429.929 34.538 430.391 34.594L430.643 34.622V35H427.493ZM436.862 35.154C435.616 35.154 434.608 34.622 434.608 33.404V28.896H432.83V28.518C434.244 28.224 435.042 27.244 435.49 26.208H435.994V28.112H439.172L438.906 28.896H435.994V33.236C435.994 33.936 436.624 34.272 437.548 34.272C438.08 34.272 438.654 34.188 439.186 33.936V34.272C438.696 34.762 437.688 35.154 436.862 35.154ZM443.137 31.472V30.324H447.141V31.472H443.137ZM454.382 35.168C453.234 35.168 452.254 34.888 451.666 34.594L451.736 32.564H452.156C452.492 33.964 453.332 34.636 454.466 34.636C455.376 34.636 455.95 34.146 455.95 33.404C455.95 32.578 455.138 32.354 454.438 32.13L453.934 31.962C452.646 31.556 451.806 31.094 451.806 29.96C451.806 28.77 453.01 27.916 454.424 27.916C455.376 27.916 456.174 28.154 456.65 28.308L456.636 30.016H456.216C455.978 29.106 455.362 28.448 454.256 28.448C453.5 28.448 452.912 28.896 452.912 29.54C452.912 30.114 453.276 30.436 454.382 30.786L454.9 30.954C456.37 31.416 457.098 31.92 457.098 33.026C457.098 34.328 455.922 35.168 454.382 35.168ZM465.683 35.098C464.885 35.098 464.605 34.58 464.549 34.048C464.157 34.65 463.317 35.154 462.435 35.154C461.343 35.154 460.363 34.398 460.363 33.292C460.363 32.312 461.049 31.836 462.365 31.458L464.535 30.828V29.988C464.535 28.91 463.989 28.392 463.163 28.392C462.477 28.392 462.267 28.714 462.029 29.456C461.917 29.848 461.679 29.988 461.315 29.988C460.909 29.988 460.573 29.722 460.419 29.484C460.643 28.756 461.679 27.916 463.247 27.916C465.137 27.916 465.851 28.896 465.851 29.974V33.67C465.851 34.16 466.075 34.342 466.523 34.342C466.705 34.342 466.887 34.314 466.971 34.286V34.538C466.621 34.902 466.061 35.098 465.683 35.098ZM461.721 33.096C461.721 33.726 462.169 34.356 463.107 34.356C463.751 34.356 464.227 34.104 464.535 33.768V31.374L462.869 31.892C461.945 32.186 461.721 32.55 461.721 33.096ZM473.218 35V34.622L473.456 34.594C473.988 34.538 474.142 34.342 474.142 33.81V30.282C474.142 29.302 473.61 28.742 472.728 28.742C472.084 28.742 471.482 29.092 471.16 29.456V33.81C471.16 34.398 471.37 34.538 471.846 34.594L472.112 34.622V35H468.948V34.622L469.2 34.594C469.662 34.538 469.872 34.412 469.872 33.81V29.75C469.872 29.162 469.676 29.078 468.948 28.91V28.588L471.006 27.958H471.132V29.106C471.566 28.518 472.406 27.916 473.372 27.916C474.87 27.916 475.43 28.98 475.43 29.932V33.81C475.43 34.426 475.654 34.538 476.116 34.594L476.368 34.622V35H473.218ZM481.816 35.168C480.668 35.168 479.688 34.888 479.1 34.594L479.17 32.564H479.59C479.926 33.964 480.766 34.636 481.9 34.636C482.81 34.636 483.384 34.146 483.384 33.404C483.384 32.578 482.572 32.354 481.872 32.13L481.368 31.962C480.08 31.556 479.24 31.094 479.24 29.96C479.24 28.77 480.444 27.916 481.858 27.916C482.81 27.916 483.608 28.154 484.084 28.308L484.07 30.016H483.65C483.412 29.106 482.796 28.448 481.69 28.448C480.934 28.448 480.346 28.896 480.346 29.54C480.346 30.114 480.71 30.436 481.816 30.786L482.334 30.954C483.804 31.416 484.532 31.92 484.532 33.026C484.532 34.328 483.356 35.168 481.816 35.168ZM497.6 35V34.622L497.992 34.594C498.594 34.552 498.888 34.342 498.888 33.726V28.896H497.25V28.504L498.888 28.112V27.37C498.888 25.312 500.61 24.5 501.996 24.5C503.312 24.5 504.138 25.06 504.334 25.438C504.124 25.802 503.844 26.054 503.41 26.054C503.032 26.054 502.822 25.872 502.57 25.648C502.29 25.41 501.898 25.06 501.436 25.06C500.568 25.06 500.26 25.746 500.26 27.314V28.112H502.78L502.514 28.896H500.26V33.726C500.26 34.412 500.582 34.496 501.828 34.594L502.206 34.622V35H497.6ZM509.153 35.168C507.277 35.168 505.653 33.74 505.653 31.584C505.653 29.428 507.277 27.944 509.153 27.944C511.029 27.944 512.653 29.372 512.653 31.528C512.653 33.684 511.029 35.168 509.153 35.168ZM507.109 31.276C507.109 32.97 507.865 34.608 509.237 34.608C510.539 34.608 511.197 33.432 511.197 31.836C511.197 29.96 510.371 28.504 509.069 28.504C507.767 28.504 507.109 29.68 507.109 31.276ZM518.942 35V34.622L519.18 34.594C519.712 34.538 519.866 34.342 519.866 33.81V30.282C519.866 29.302 519.334 28.742 518.452 28.742C517.808 28.742 517.206 29.092 516.884 29.456V33.81C516.884 34.398 517.094 34.538 517.57 34.594L517.836 34.622V35H514.672V34.622L514.924 34.594C515.386 34.538 515.596 34.412 515.596 33.81V29.75C515.596 29.162 515.4 29.078 514.672 28.91V28.588L516.73 27.958H516.856V29.106C517.29 28.518 518.13 27.916 519.096 27.916C520.594 27.916 521.154 28.98 521.154 29.932V33.81C521.154 34.426 521.378 34.538 521.84 34.594L522.092 34.622V35H518.942ZM528.311 35.154C527.065 35.154 526.057 34.622 526.057 33.404V28.896H524.279V28.518C525.693 28.224 526.491 27.244 526.939 26.208H527.443V28.112H530.621L530.355 28.896H527.443V33.236C527.443 33.936 528.073 34.272 528.997 34.272C529.529 34.272 530.103 34.188 530.635 33.936V34.272C530.145 34.762 529.137 35.154 528.311 35.154ZM534.586 31.472V30.324H538.59V31.472H534.586ZM547.567 35V34.636L547.693 34.608C547.987 34.552 548.071 34.384 548.071 33.922V29.862C548.071 29.106 547.735 28.77 547.245 28.77C546.895 28.77 546.573 29.022 546.349 29.344C546.363 29.414 546.363 29.47 546.363 29.54V33.922C546.363 34.398 546.433 34.552 546.727 34.608L546.867 34.636V35H544.655V34.636L544.823 34.608C545.117 34.552 545.159 34.384 545.159 33.922V29.862C545.159 29.12 544.823 28.77 544.319 28.77C543.983 28.77 543.661 28.994 543.465 29.344V33.922C543.465 34.398 543.521 34.552 543.829 34.608L543.983 34.636V35H541.715V34.636L541.855 34.608C542.177 34.552 542.261 34.398 542.261 33.922V29.792C542.261 29.232 542.191 29.05 541.701 28.91V28.588L543.297 27.958H543.423V29.05C543.689 28.476 544.277 27.916 545.019 27.916C545.775 27.916 546.181 28.434 546.321 29.064C546.587 28.49 547.161 27.916 547.903 27.916C548.953 27.916 549.261 28.728 549.261 29.568V33.922C549.261 34.37 549.345 34.552 549.653 34.608L549.807 34.636V35H547.567ZM555.06 35.168C553.156 35.168 551.784 33.838 551.784 31.724C551.784 29.442 553.408 27.944 555.06 27.944C557.076 27.944 558.14 29.456 558.014 31.08H553.016C553.03 33.264 554.318 34.076 555.62 34.076C556.572 34.076 557.272 33.67 557.846 32.928L558.154 33.138C557.482 34.524 556.334 35.168 555.06 35.168ZM553.058 30.478H556.628C556.516 29.33 555.914 28.49 554.864 28.49C554.024 28.49 553.24 29.204 553.058 30.478ZM563.407 35.14C561.755 35.14 560.495 33.838 560.495 31.738C560.495 29.512 561.979 27.958 564.177 27.958C564.625 27.958 565.073 28.028 565.479 28.168V26.348C565.479 25.788 565.325 25.62 564.513 25.466V25.144L566.669 24.5H566.795V33.572C566.795 34.202 567.005 34.314 567.705 34.44V34.762L565.843 35.098C565.689 34.79 565.591 34.496 565.535 34.118C565.185 34.608 564.471 35.14 563.407 35.14ZM561.909 31.486C561.909 33.362 562.805 34.37 564.121 34.37C564.695 34.37 565.171 34.16 565.507 33.852C565.493 33.628 565.479 33.39 565.479 33.096V29.232C565.199 28.812 564.737 28.504 563.995 28.504C562.763 28.504 561.909 29.442 561.909 31.486ZM570.956 35V34.622L571.418 34.594C572.328 34.552 572.678 34.384 572.678 33.754V29.82C572.678 29.246 572.412 29.134 570.956 28.91V28.588L573.882 27.958H574.134V33.754C574.134 34.384 574.484 34.552 575.394 34.594L575.856 34.622V35H570.956ZM572.23 25.564C572.23 25.004 572.72 24.528 573.294 24.528C573.868 24.528 574.358 25.004 574.358 25.564C574.358 26.124 573.84 26.6 573.294 26.6C572.72 26.6 572.23 26.124 572.23 25.564ZM581.543 35.154C580.213 35.154 579.485 34.37 579.485 32.956V29.484C579.485 28.938 579.289 28.826 578.505 28.644V28.322L580.647 27.958H580.787V32.774C580.787 33.684 581.165 34.342 582.187 34.342C582.873 34.342 583.391 34.048 583.741 33.684C583.727 33.544 583.727 33.39 583.727 33.236V29.498C583.727 28.994 583.601 28.84 582.761 28.658V28.322L584.875 27.958H585.001V33.516C585.001 34.146 585.155 34.314 585.939 34.44V34.762L584.105 35.098C583.937 34.832 583.825 34.426 583.769 33.964C583.419 34.524 582.579 35.154 581.543 35.154ZM593.292 35V34.636L593.418 34.608C593.712 34.552 593.796 34.384 593.796 33.922V29.862C593.796 29.106 593.46 28.77 592.97 28.77C592.62 28.77 592.298 29.022 592.074 29.344C592.088 29.414 592.088 29.47 592.088 29.54V33.922C592.088 34.398 592.158 34.552 592.452 34.608L592.592 34.636V35H590.38V34.636L590.548 34.608C590.842 34.552 590.883 34.384 590.883 33.922V29.862C590.883 29.12 590.548 28.77 590.044 28.77C589.708 28.77 589.386 28.994 589.19 29.344V33.922C589.19 34.398 589.245 34.552 589.554 34.608L589.708 34.636V35H587.44V34.636L587.58 34.608C587.902 34.552 587.986 34.398 587.986 33.922V29.792C587.986 29.232 587.916 29.05 587.426 28.91V28.588L589.022 27.958H589.148V29.05C589.414 28.476 590.002 27.916 590.744 27.916C591.5 27.916 591.906 28.434 592.046 29.064C592.312 28.49 592.886 27.916 593.628 27.916C594.678 27.916 594.986 28.728 594.986 29.568V33.922C594.986 34.37 595.07 34.552 595.378 34.608L595.532 34.636V35H593.292ZM598.572 25.004L598.292 28.616H597.522L597.242 25.004H598.572ZM601.134 25.004L600.854 28.616H600.084L599.804 25.004H601.134ZM603.347 32.284L608.625 30.086L603.347 27.58V26.488L609.941 29.778V30.478L603.347 33.376V32.284ZM612.295 35V34.608L612.505 34.58C612.911 34.524 613.261 34.37 613.261 33.796V26.404C613.261 25.83 612.911 25.676 612.505 25.62L612.295 25.592V25.2H616.019C617.461 25.2 618.917 26.11 618.917 28C618.917 29.988 617.503 30.912 616.019 30.912H614.633V33.796C614.633 34.37 614.969 34.496 615.557 34.58L615.753 34.608V35H612.295ZM614.633 30.296H615.697C616.915 30.296 617.503 29.554 617.503 28.098C617.503 26.432 616.579 25.816 615.655 25.816H614.633V30.296ZM621.79 35V34.566L622.014 34.538C622.756 34.482 623.078 34.314 623.078 33.698V29.792C623.078 29.232 622.91 29.078 621.944 28.91V28.588L624.254 27.958H624.408V29.638C624.758 28.896 625.556 27.972 626.634 27.972C627.32 27.972 627.936 28.266 628.188 28.532C628.02 29.12 627.628 29.512 627.166 29.512C626.928 29.512 626.746 29.442 626.48 29.316C626.172 29.176 625.92 29.092 625.654 29.092C625.136 29.092 624.716 29.54 624.45 30.072V33.726C624.45 34.412 624.968 34.454 626.06 34.538L626.396 34.566V35H621.79ZM633.819 35.168C631.943 35.168 630.319 33.74 630.319 31.584C630.319 29.428 631.943 27.944 633.819 27.944C635.695 27.944 637.319 29.372 637.319 31.528C637.319 33.684 635.695 35.168 633.819 35.168ZM631.775 31.276C631.775 32.97 632.531 34.608 633.903 34.608C635.205 34.608 635.863 33.432 635.863 31.836C635.863 29.96 635.037 28.504 633.735 28.504C632.433 28.504 631.775 29.68 631.775 31.276ZM640.836 38.094C639.506 38.094 638.624 37.604 638.414 37.24C638.596 36.932 638.946 36.61 639.436 36.61C639.856 36.61 640.108 36.834 640.304 37.016C640.64 37.324 640.934 37.604 641.396 37.604C642.222 37.604 642.404 36.988 642.404 35.532V29.82C642.404 29.232 642.054 29.12 640.668 28.91V28.588L643.678 27.958H643.86V35.49C643.86 37.296 642.432 38.094 640.836 38.094ZM641.956 25.564C641.956 25.004 642.446 24.528 643.02 24.528C643.594 24.528 644.084 25.004 644.084 25.564C644.084 26.124 643.566 26.6 643.02 26.6C642.446 26.6 641.956 26.124 641.956 25.564ZM652.291 35.168C650.387 35.168 649.015 33.838 649.015 31.724C649.015 29.442 650.639 27.944 652.291 27.944C654.307 27.944 655.371 29.456 655.245 31.08H650.247C650.261 33.264 651.549 34.076 652.851 34.076C653.803 34.076 654.503 33.67 655.077 32.928L655.385 33.138C654.713 34.524 653.565 35.168 652.291 35.168ZM650.289 30.478H653.859C653.747 29.33 653.145 28.49 652.095 28.49C651.255 28.49 650.471 29.204 650.289 30.478ZM661.548 35.154C659.462 35.154 658.132 33.684 658.132 31.654C658.132 29.498 659.77 27.93 661.744 27.93C663.634 27.93 664.404 28.938 664.544 29.372C664.362 29.666 664.04 29.918 663.62 29.918C663.284 29.918 663.06 29.736 662.85 29.386C662.612 28.98 662.304 28.476 661.408 28.476C660.512 28.476 659.434 29.246 659.434 31.164C659.434 33.068 660.68 34.062 662.08 34.062C663.116 34.062 663.774 33.642 664.39 32.858L664.656 33.026C664.082 34.342 663.018 35.154 661.548 35.154ZM671.267 35.154C670.021 35.154 669.013 34.622 669.013 33.404V28.896H667.235V28.518C668.649 28.224 669.447 27.244 669.895 26.208H670.399V28.112H673.577L673.311 28.896H670.399V33.236C670.399 33.936 671.029 34.272 671.953 34.272C672.485 34.272 673.059 34.188 673.591 33.936V34.272C673.101 34.762 672.093 35.154 671.267 35.154ZM679.641 35.168C678.493 35.168 677.513 34.888 676.925 34.594L676.995 32.564H677.415C677.751 33.964 678.591 34.636 679.725 34.636C680.635 34.636 681.209 34.146 681.209 33.404C681.209 32.578 680.397 32.354 679.697 32.13L679.193 31.962C677.905 31.556 677.065 31.094 677.065 29.96C677.065 28.77 678.269 27.916 679.683 27.916C680.635 27.916 681.433 28.154 681.909 28.308L681.895 30.016H681.475C681.237 29.106 680.621 28.448 679.515 28.448C678.759 28.448 678.171 28.896 678.171 29.54C678.171 30.114 678.535 30.436 679.641 30.786L680.159 30.954C681.629 31.416 682.357 31.92 682.357 33.026C682.357 34.328 681.181 35.168 679.641 35.168ZM691.712 33.376L685.118 30.478V29.778L691.712 26.488V27.58L686.434 30.072L691.712 32.284V33.376ZM698.098 25.004L694.374 35H693.17L696.894 25.004H698.098ZM699.455 35V34.622L699.707 34.594C700.155 34.538 700.379 34.426 700.379 33.81V26.334C700.379 25.788 700.253 25.634 699.455 25.466V25.144L701.555 24.5H701.681V29.106C702.087 28.518 702.913 27.916 703.907 27.916C705.405 27.916 705.993 28.994 705.993 29.96V33.81C705.993 34.426 706.217 34.538 706.679 34.594L706.917 34.622V35H703.767V34.622L704.019 34.594C704.509 34.538 704.691 34.398 704.691 33.81V30.31C704.691 29.316 704.173 28.742 703.263 28.742C702.619 28.742 702.045 29.05 701.681 29.456V33.81C701.681 34.412 701.863 34.524 702.353 34.594L702.605 34.622V35H699.455ZM709.622 35V34.608L709.972 34.58C711.064 34.496 711.764 34.384 711.764 33.6V27.496C711.764 27.034 711.624 26.866 710.952 26.866H709.622V26.502C710.938 26.222 711.946 25.718 712.856 25.102H713.136V33.6C713.136 34.426 713.99 34.51 714.942 34.58L715.292 34.608V35H709.622ZM717.829 32.284L723.107 30.086L717.829 27.58V26.488L724.423 29.778V30.478L717.829 33.376V32.284ZM80.4534 57.376L73.8594 54.478V53.778L80.4534 50.488V51.58L75.1754 54.072L80.4534 56.284V57.376ZM85.4251 59.14C83.7731 59.14 82.5131 57.838 82.5131 55.738C82.5131 53.512 83.9971 51.958 86.1951 51.958C86.6431 51.958 87.0911 52.028 87.4971 52.168V50.348C87.4971 49.788 87.3431 49.62 86.5311 49.466V49.144L88.6871 48.5H88.8131V57.572C88.8131 58.202 89.0231 58.314 89.7231 58.44V58.762L87.8611 59.098C87.7071 58.79 87.6091 58.496 87.5531 58.118C87.2031 58.608 86.4891 59.14 85.4251 59.14ZM83.9271 55.486C83.9271 57.362 84.8231 58.37 86.1391 58.37C86.7131 58.37 87.1891 58.16 87.5251 57.852C87.5111 57.628 87.4971 57.39 87.4971 57.096V53.232C87.2171 52.812 86.7551 52.504 86.0131 52.504C84.7811 52.504 83.9271 53.442 83.9271 55.486ZM92.974 59V58.622L93.436 58.594C94.346 58.552 94.696 58.384 94.696 57.754V53.82C94.696 53.246 94.43 53.134 92.974 52.91V52.588L95.9 51.958H96.152V57.754C96.152 58.384 96.502 58.552 97.412 58.594L97.874 58.622V59H92.974ZM94.248 49.564C94.248 49.004 94.738 48.528 95.312 48.528C95.886 48.528 96.376 49.004 96.376 49.564C96.376 50.124 95.858 50.6 95.312 50.6C94.738 50.6 94.248 50.124 94.248 49.564ZM101.895 54.142C101.377 52.994 101.195 52.588 100.635 52.49V52.112H103.925V52.49L103.645 52.546C102.833 52.7 102.819 53.05 103.169 53.876L104.653 57.306L106.095 53.96C106.501 53.022 106.403 52.686 105.675 52.546L105.395 52.49V52.112H108.139V52.49C107.551 52.616 107.229 53.064 106.753 54.114L104.513 59.07H104.079L101.895 54.142ZM122.915 59.154C120.829 59.154 119.499 57.684 119.499 55.654C119.499 53.498 121.137 51.93 123.111 51.93C125.001 51.93 125.771 52.938 125.911 53.372C125.729 53.666 125.407 53.918 124.987 53.918C124.651 53.918 124.427 53.736 124.217 53.386C123.979 52.98 123.671 52.476 122.775 52.476C121.879 52.476 120.801 53.246 120.801 55.164C120.801 57.068 122.047 58.062 123.447 58.062C124.483 58.062 125.141 57.642 125.757 56.858L126.023 57.026C125.449 58.342 124.385 59.154 122.915 59.154ZM129.372 59V58.622L129.764 58.58C130.8 58.51 131.122 58.37 131.122 57.74V50.446C131.122 49.802 130.814 49.634 129.372 49.466V49.144L132.312 48.5H132.536V57.74C132.536 58.37 132.914 58.51 133.88 58.58L134.286 58.622V59H129.372ZM143.165 59.098C142.367 59.098 142.087 58.58 142.031 58.048C141.639 58.65 140.799 59.154 139.917 59.154C138.825 59.154 137.845 58.398 137.845 57.292C137.845 56.312 138.531 55.836 139.847 55.458L142.017 54.828V53.988C142.017 52.91 141.471 52.392 140.645 52.392C139.959 52.392 139.749 52.714 139.511 53.456C139.399 53.848 139.161 53.988 138.797 53.988C138.391 53.988 138.055 53.722 137.901 53.484C138.125 52.756 139.161 51.916 140.729 51.916C142.619 51.916 143.333 52.896 143.333 53.974V57.67C143.333 58.16 143.557 58.342 144.005 58.342C144.187 58.342 144.369 58.314 144.453 58.286V58.538C144.103 58.902 143.543 59.098 143.165 59.098ZM139.203 57.096C139.203 57.726 139.651 58.356 140.589 58.356C141.233 58.356 141.709 58.104 142.017 57.768V55.374L140.351 55.892C139.427 56.186 139.203 56.55 139.203 57.096ZM150.154 59.168C149.006 59.168 148.026 58.888 147.438 58.594L147.508 56.564H147.928C148.264 57.964 149.104 58.636 150.238 58.636C151.148 58.636 151.722 58.146 151.722 57.404C151.722 56.578 150.91 56.354 150.21 56.13L149.706 55.962C148.418 55.556 147.578 55.094 147.578 53.96C147.578 52.77 148.782 51.916 150.196 51.916C151.148 51.916 151.946 52.154 152.422 52.308L152.408 54.016H151.988C151.75 53.106 151.134 52.448 150.028 52.448C149.272 52.448 148.684 52.896 148.684 53.54C148.684 54.114 149.048 54.436 150.154 54.786L150.672 54.954C152.142 55.416 152.87 55.92 152.87 57.026C152.87 58.328 151.694 59.168 150.154 59.168ZM159.298 59.168C158.15 59.168 157.17 58.888 156.582 58.594L156.652 56.564H157.072C157.408 57.964 158.248 58.636 159.382 58.636C160.292 58.636 160.866 58.146 160.866 57.404C160.866 56.578 160.054 56.354 159.354 56.13L158.85 55.962C157.562 55.556 156.722 55.094 156.722 53.96C156.722 52.77 157.926 51.916 159.34 51.916C160.292 51.916 161.09 52.154 161.566 52.308L161.552 54.016H161.132C160.894 53.106 160.278 52.448 159.172 52.448C158.416 52.448 157.828 52.896 157.828 53.54C157.828 54.114 158.192 54.436 159.298 54.786L159.816 54.954C161.286 55.416 162.014 55.92 162.014 57.026C162.014 58.328 160.838 59.168 159.298 59.168ZM164.859 53.176V52.182H171.271V53.176H164.859ZM164.859 55.962V54.968H171.271V55.962H164.859ZM174.927 49.004L174.647 52.616H173.877L173.597 49.004H174.927ZM177.489 49.004L177.209 52.616H176.439L176.159 49.004H177.489ZM180.864 59V58.622L181.256 58.594C181.858 58.552 182.152 58.342 182.152 57.726V52.896H180.514V52.504L182.152 52.112V51.37C182.152 49.312 183.874 48.5 185.26 48.5C186.576 48.5 187.402 49.06 187.598 49.438C187.388 49.802 187.108 50.054 186.674 50.054C186.296 50.054 186.086 49.872 185.834 49.648C185.554 49.41 185.162 49.06 184.7 49.06C183.832 49.06 183.524 49.746 183.524 51.314V52.112H186.044L185.778 52.896H183.524V57.726C183.524 58.412 183.846 58.496 185.092 58.594L185.47 58.622V59H180.864ZM190.023 59V58.622L190.415 58.58C191.451 58.51 191.773 58.37 191.773 57.74V50.446C191.773 49.802 191.465 49.634 190.023 49.466V49.144L192.963 48.5H193.187V57.74C193.187 58.37 193.565 58.51 194.531 58.58L194.937 58.622V59H190.023ZM201.744 59.168C199.84 59.168 198.468 57.838 198.468 55.724C198.468 53.442 200.092 51.944 201.744 51.944C203.76 51.944 204.824 53.456 204.698 55.08H199.7C199.714 57.264 201.002 58.076 202.304 58.076C203.256 58.076 203.956 57.67 204.53 56.928L204.838 57.138C204.166 58.524 203.018 59.168 201.744 59.168ZM199.742 54.478H203.312C203.2 53.33 202.598 52.49 201.548 52.49C200.708 52.49 199.924 53.204 199.742 54.478ZM211.169 59V58.622L211.491 58.58C212.009 58.51 211.939 58.146 211.547 57.614L210.371 56.032L209.195 57.614C208.775 58.188 208.929 58.496 209.531 58.58L209.825 58.622V59H207.011V58.622C207.445 58.524 207.949 58.216 208.509 57.474L209.951 55.598L208.369 53.54C207.809 52.812 207.613 52.574 207.179 52.504V52.112H210.315V52.504L210.021 52.546C209.349 52.63 209.517 53.022 209.881 53.498L210.917 54.87L211.953 53.498C212.359 52.966 212.331 52.616 211.799 52.546L211.491 52.504V52.112H214.193V52.504C213.577 52.588 213.199 52.938 212.667 53.61L211.323 55.304L213.059 57.572C213.675 58.384 213.927 58.566 214.361 58.622V59H211.169ZM217.822 49.004L217.542 52.616H216.772L216.492 49.004H217.822ZM220.384 49.004L220.104 52.616H219.334L219.054 49.004H220.384ZM222.596 56.284L227.874 54.086L222.596 51.58V50.488L229.19 53.778V54.478L222.596 57.376V56.284ZM117.033 81.376L110.439 78.478V77.778L117.033 74.488V75.58L111.755 78.072L117.033 80.284V81.376ZM122.943 83.21C120.857 83.21 119.373 81.18 119.373 78.184C119.373 75.076 120.997 72.99 123.097 72.99C123.853 72.99 124.777 73.186 125.547 73.662V76.056H125.127C124.777 74.222 123.965 73.592 123.083 73.592C121.669 73.592 120.787 75.258 120.787 77.68C120.787 80.228 121.683 82.174 123.433 82.174C124.273 82.174 124.987 81.698 125.561 80.354L125.953 80.522C125.491 82.02 124.553 83.21 122.943 83.21ZM134.02 83.098C133.222 83.098 132.942 82.58 132.886 82.048C132.494 82.65 131.654 83.154 130.772 83.154C129.68 83.154 128.7 82.398 128.7 81.292C128.7 80.312 129.386 79.836 130.702 79.458L132.872 78.828V77.988C132.872 76.91 132.326 76.392 131.5 76.392C130.814 76.392 130.604 76.714 130.366 77.456C130.254 77.848 130.016 77.988 129.652 77.988C129.246 77.988 128.91 77.722 128.756 77.484C128.98 76.756 130.016 75.916 131.584 75.916C133.474 75.916 134.188 76.896 134.188 77.974V81.67C134.188 82.16 134.412 82.342 134.86 82.342C135.042 82.342 135.224 82.314 135.308 82.286V82.538C134.958 82.902 134.398 83.098 134.02 83.098ZM130.058 81.096C130.058 81.726 130.506 82.356 131.444 82.356C132.088 82.356 132.564 82.104 132.872 81.768V79.374L131.206 79.892C130.282 80.186 130.058 80.55 130.058 81.096ZM138.027 83V82.566L138.251 82.538C138.993 82.482 139.315 82.314 139.315 81.698V77.792C139.315 77.232 139.147 77.078 138.181 76.91V76.588L140.491 75.958H140.645V77.638C140.995 76.896 141.793 75.972 142.871 75.972C143.557 75.972 144.173 76.266 144.425 76.532C144.257 77.12 143.865 77.512 143.403 77.512C143.165 77.512 142.983 77.442 142.717 77.316C142.409 77.176 142.157 77.092 141.891 77.092C141.373 77.092 140.953 77.54 140.687 78.072V81.726C140.687 82.412 141.205 82.454 142.297 82.538L142.633 82.566V83H138.027ZM149.44 83.14C147.788 83.14 146.528 81.838 146.528 79.738C146.528 77.512 148.012 75.958 150.21 75.958C150.658 75.958 151.106 76.028 151.512 76.168V74.348C151.512 73.788 151.358 73.62 150.546 73.466V73.144L152.702 72.5H152.828V81.572C152.828 82.202 153.038 82.314 153.738 82.44V82.762L151.876 83.098C151.722 82.79 151.624 82.496 151.568 82.118C151.218 82.608 150.504 83.14 149.44 83.14ZM147.942 79.486C147.942 81.362 148.838 82.37 150.154 82.37C150.728 82.37 151.204 82.16 151.54 81.852C151.526 81.628 151.512 81.39 151.512 81.096V77.232C151.232 76.812 150.77 76.504 150.028 76.504C148.796 76.504 147.942 77.442 147.942 79.486ZM159.298 83.168C158.15 83.168 157.17 82.888 156.582 82.594L156.652 80.564H157.072C157.408 81.964 158.248 82.636 159.382 82.636C160.292 82.636 160.866 82.146 160.866 81.404C160.866 80.578 160.054 80.354 159.354 80.13L158.85 79.962C157.562 79.556 156.722 79.094 156.722 77.96C156.722 76.77 157.926 75.916 159.34 75.916C160.292 75.916 161.09 76.154 161.566 76.308L161.552 78.016H161.132C160.894 77.106 160.278 76.448 159.172 76.448C158.416 76.448 157.828 76.896 157.828 77.54C157.828 78.114 158.192 78.436 159.298 78.786L159.816 78.954C161.286 79.416 162.014 79.92 162.014 81.026C162.014 82.328 160.838 83.168 159.298 83.168ZM165.111 83V82.608L165.321 82.58C165.727 82.524 166.077 82.37 166.077 81.796V74.404C166.077 73.83 165.727 73.676 165.321 73.62L165.111 73.592V73.2H168.835C170.277 73.2 171.733 74.11 171.733 76C171.733 77.988 170.319 78.912 168.835 78.912H167.449V81.796C167.449 82.37 167.785 82.496 168.373 82.58L168.569 82.608V83H165.111ZM167.449 78.296H168.513C169.731 78.296 170.319 77.554 170.319 76.098C170.319 74.432 169.395 73.816 168.471 73.816H167.449V78.296ZM174.606 83V82.566L174.83 82.538C175.572 82.482 175.894 82.314 175.894 81.698V77.792C175.894 77.232 175.726 77.078 174.76 76.91V76.588L177.07 75.958H177.224V77.638C177.574 76.896 178.372 75.972 179.45 75.972C180.136 75.972 180.752 76.266 181.004 76.532C180.836 77.12 180.444 77.512 179.982 77.512C179.744 77.512 179.562 77.442 179.296 77.316C178.988 77.176 178.736 77.092 178.47 77.092C177.952 77.092 177.532 77.54 177.266 78.072V81.726C177.266 82.412 177.784 82.454 178.876 82.538L179.212 82.566V83H174.606ZM186.635 83.168C184.759 83.168 183.135 81.74 183.135 79.584C183.135 77.428 184.759 75.944 186.635 75.944C188.511 75.944 190.135 77.372 190.135 79.528C190.135 81.684 188.511 83.168 186.635 83.168ZM184.591 79.276C184.591 80.97 185.347 82.608 186.719 82.608C188.021 82.608 188.679 81.432 188.679 79.836C188.679 77.96 187.853 76.504 186.551 76.504C185.249 76.504 184.591 77.68 184.591 79.276ZM193.652 86.094C192.322 86.094 191.44 85.604 191.23 85.24C191.412 84.932 191.762 84.61 192.252 84.61C192.672 84.61 192.924 84.834 193.12 85.016C193.456 85.324 193.75 85.604 194.212 85.604C195.038 85.604 195.22 84.988 195.22 83.532V77.82C195.22 77.232 194.87 77.12 193.484 76.91V76.588L196.494 75.958H196.676V83.49C196.676 85.296 195.248 86.094 193.652 86.094ZM194.772 73.564C194.772 73.004 195.262 72.528 195.836 72.528C196.41 72.528 196.9 73.004 196.9 73.564C196.9 74.124 196.382 74.6 195.836 74.6C195.262 74.6 194.772 74.124 194.772 73.564ZM205.107 83.168C203.203 83.168 201.831 81.838 201.831 79.724C201.831 77.442 203.455 75.944 205.107 75.944C207.123 75.944 208.187 77.456 208.061 79.08H203.063C203.077 81.264 204.365 82.076 205.667 82.076C206.619 82.076 207.319 81.67 207.893 80.928L208.201 81.138C207.529 82.524 206.381 83.168 205.107 83.168ZM203.105 78.478H206.675C206.563 77.33 205.961 76.49 204.911 76.49C204.071 76.49 203.287 77.204 203.105 78.478ZM214.364 83.154C212.278 83.154 210.948 81.684 210.948 79.654C210.948 77.498 212.586 75.93 214.56 75.93C216.45 75.93 217.22 76.938 217.36 77.372C217.178 77.666 216.856 77.918 216.436 77.918C216.1 77.918 215.876 77.736 215.666 77.386C215.428 76.98 215.12 76.476 214.224 76.476C213.328 76.476 212.25 77.246 212.25 79.164C212.25 81.068 213.496 82.062 214.896 82.062C215.932 82.062 216.59 81.642 217.206 80.858L217.472 81.026C216.898 82.342 215.834 83.154 214.364 83.154ZM224.083 83.154C222.837 83.154 221.829 82.622 221.829 81.404V76.896H220.051V76.518C221.465 76.224 222.263 75.244 222.711 74.208H223.215V76.112H226.393L226.127 76.896H223.215V81.236C223.215 81.936 223.845 82.272 224.769 82.272C225.301 82.272 225.875 82.188 226.407 81.936V82.272C225.917 82.762 224.909 83.154 224.083 83.154ZM229.154 83V82.608L229.378 82.58C229.84 82.524 230.19 82.356 230.19 81.796V74.404C230.19 73.83 229.826 73.676 229.378 73.62L229.154 73.592V73.2H232.724V73.592L232.514 73.62C231.954 73.69 231.548 73.774 231.548 74.404V81.698C231.548 82.272 231.884 82.356 232.374 82.356H233.032C234.586 82.356 235.034 81.754 235.552 80.032H235.972L235.748 83H229.154ZM243.759 83.098C242.961 83.098 242.681 82.58 242.625 82.048C242.233 82.65 241.393 83.154 240.511 83.154C239.419 83.154 238.439 82.398 238.439 81.292C238.439 80.312 239.125 79.836 240.441 79.458L242.611 78.828V77.988C242.611 76.91 242.065 76.392 241.239 76.392C240.553 76.392 240.343 76.714 240.105 77.456C239.993 77.848 239.755 77.988 239.391 77.988C238.985 77.988 238.649 77.722 238.495 77.484C238.719 76.756 239.755 75.916 241.323 75.916C243.213 75.916 243.927 76.896 243.927 77.974V81.67C243.927 82.16 244.151 82.342 244.599 82.342C244.781 82.342 244.963 82.314 245.047 82.286V82.538C244.697 82.902 244.137 83.098 243.759 83.098ZM239.797 81.096C239.797 81.726 240.245 82.356 241.183 82.356C241.827 82.356 242.303 82.104 242.611 81.768V79.374L240.945 79.892C240.021 80.186 239.797 80.55 239.797 81.096ZM247.766 83V82.566L247.99 82.538C248.732 82.482 249.054 82.314 249.054 81.698V77.792C249.054 77.232 248.886 77.078 247.92 76.91V76.588L250.23 75.958H250.384V77.638C250.734 76.896 251.532 75.972 252.61 75.972C253.296 75.972 253.912 76.266 254.164 76.532C253.996 77.12 253.604 77.512 253.142 77.512C252.904 77.512 252.722 77.442 252.456 77.316C252.148 77.176 251.896 77.092 251.63 77.092C251.112 77.092 250.692 77.54 250.426 78.072V81.726C250.426 82.412 250.944 82.454 252.036 82.538L252.372 82.566V83H247.766ZM259.249 86.052C257.401 86.052 256.323 85.324 256.323 84.33C256.323 83.658 256.897 83.126 257.681 82.846C257.121 82.636 256.813 82.272 256.813 81.81C256.813 81.222 257.345 80.704 258.129 80.354C257.331 79.948 256.771 79.22 256.771 78.324C256.771 76.938 258.101 75.944 259.501 75.944C260.061 75.944 260.551 76.07 260.929 76.238H263.351L263.141 77.008H261.657C262.091 77.33 262.385 77.778 262.385 78.338C262.385 79.682 261.041 80.704 259.571 80.704C259.151 80.704 258.731 80.62 258.353 80.466C258.101 80.62 257.835 80.9 257.835 81.236C257.835 81.642 258.213 81.922 259.445 81.922H260.593C262.609 81.922 263.155 82.622 263.155 83.462C263.155 84.722 261.699 86.052 259.249 86.052ZM257.485 83.924C257.485 84.876 258.521 85.422 259.921 85.422C261.433 85.422 262.105 84.694 262.105 84.036C262.105 83.462 261.783 83.07 260.313 83.07H259.207C258.703 83.07 258.269 83.014 257.919 82.916C257.625 83.168 257.485 83.518 257.485 83.924ZM258.129 78.24C258.129 79.332 258.773 80.172 259.655 80.172C260.495 80.172 261.027 79.416 261.027 78.436C261.027 77.302 260.355 76.476 259.473 76.476C258.675 76.476 258.129 77.204 258.129 78.24ZM269.122 83.168C267.218 83.168 265.846 81.838 265.846 79.724C265.846 77.442 267.47 75.944 269.122 75.944C271.138 75.944 272.202 77.456 272.076 79.08H267.078C267.092 81.264 268.38 82.076 269.682 82.076C270.634 82.076 271.334 81.67 271.908 80.928L272.216 81.138C271.544 82.524 270.396 83.168 269.122 83.168ZM267.12 78.478H270.69C270.578 77.33 269.976 76.49 268.926 76.49C268.086 76.49 267.302 77.204 267.12 78.478ZM287.523 83.154C285.437 83.154 284.107 81.684 284.107 79.654C284.107 77.498 285.745 75.93 287.719 75.93C289.609 75.93 290.379 76.938 290.519 77.372C290.337 77.666 290.015 77.918 289.595 77.918C289.259 77.918 289.035 77.736 288.825 77.386C288.587 76.98 288.279 76.476 287.383 76.476C286.487 76.476 285.409 77.246 285.409 79.164C285.409 81.068 286.655 82.062 288.055 82.062C289.091 82.062 289.749 81.642 290.365 80.858L290.631 81.026C290.057 82.342 288.993 83.154 287.523 83.154ZM293.98 83V82.622L294.372 82.58C295.408 82.51 295.73 82.37 295.73 81.74V74.446C295.73 73.802 295.422 73.634 293.98 73.466V73.144L296.92 72.5H297.144V81.74C297.144 82.37 297.522 82.51 298.488 82.58L298.894 82.622V83H293.98ZM307.773 83.098C306.975 83.098 306.695 82.58 306.639 82.048C306.247 82.65 305.407 83.154 304.525 83.154C303.433 83.154 302.453 82.398 302.453 81.292C302.453 80.312 303.139 79.836 304.455 79.458L306.625 78.828V77.988C306.625 76.91 306.079 76.392 305.253 76.392C304.567 76.392 304.357 76.714 304.119 77.456C304.007 77.848 303.769 77.988 303.405 77.988C302.999 77.988 302.663 77.722 302.509 77.484C302.733 76.756 303.769 75.916 305.337 75.916C307.227 75.916 307.941 76.896 307.941 77.974V81.67C307.941 82.16 308.165 82.342 308.613 82.342C308.795 82.342 308.977 82.314 309.061 82.286V82.538C308.711 82.902 308.151 83.098 307.773 83.098ZM303.811 81.096C303.811 81.726 304.259 82.356 305.197 82.356C305.841 82.356 306.317 82.104 306.625 81.768V79.374L304.959 79.892C304.035 80.186 303.811 80.55 303.811 81.096ZM314.762 83.168C313.614 83.168 312.634 82.888 312.046 82.594L312.116 80.564H312.536C312.872 81.964 313.712 82.636 314.846 82.636C315.756 82.636 316.33 82.146 316.33 81.404C316.33 80.578 315.518 80.354 314.818 80.13L314.314 79.962C313.026 79.556 312.186 79.094 312.186 77.96C312.186 76.77 313.39 75.916 314.804 75.916C315.756 75.916 316.554 76.154 317.03 76.308L317.016 78.016H316.596C316.358 77.106 315.742 76.448 314.636 76.448C313.88 76.448 313.292 76.896 313.292 77.54C313.292 78.114 313.656 78.436 314.762 78.786L315.28 78.954C316.75 79.416 317.478 79.92 317.478 81.026C317.478 82.328 316.302 83.168 314.762 83.168ZM323.907 83.168C322.759 83.168 321.779 82.888 321.191 82.594L321.261 80.564H321.681C322.017 81.964 322.857 82.636 323.991 82.636C324.901 82.636 325.475 82.146 325.475 81.404C325.475 80.578 324.663 80.354 323.963 80.13L323.459 79.962C322.171 79.556 321.331 79.094 321.331 77.96C321.331 76.77 322.535 75.916 323.949 75.916C324.901 75.916 325.699 76.154 326.175 76.308L326.161 78.016H325.741C325.503 77.106 324.887 76.448 323.781 76.448C323.025 76.448 322.437 76.896 322.437 77.54C322.437 78.114 322.801 78.436 323.907 78.786L324.425 78.954C325.895 79.416 326.623 79.92 326.623 81.026C326.623 82.328 325.447 83.168 323.907 83.168ZM329.468 77.176V76.182H335.88V77.176H329.468ZM329.468 79.962V78.968H335.88V79.962H329.468ZM339.536 73.004L339.256 76.616H338.486L338.206 73.004H339.536ZM342.098 73.004L341.818 76.616H341.048L340.768 73.004H342.098ZM349.715 83V82.636L349.841 82.608C350.135 82.552 350.219 82.384 350.219 81.922V77.862C350.219 77.106 349.883 76.77 349.393 76.77C349.043 76.77 348.721 77.022 348.497 77.344C348.511 77.414 348.511 77.47 348.511 77.54V81.922C348.511 82.398 348.581 82.552 348.875 82.608L349.015 82.636V83H346.803V82.636L346.971 82.608C347.265 82.552 347.307 82.384 347.307 81.922V77.862C347.307 77.12 346.971 76.77 346.467 76.77C346.131 76.77 345.809 76.994 345.613 77.344V81.922C345.613 82.398 345.669 82.552 345.977 82.608L346.131 82.636V83H343.863V82.636L344.003 82.608C344.325 82.552 344.409 82.398 344.409 81.922V77.792C344.409 77.232 344.339 77.05 343.849 76.91V76.588L345.445 75.958H345.571V77.05C345.837 76.476 346.425 75.916 347.167 75.916C347.923 75.916 348.329 76.434 348.469 77.064C348.735 76.49 349.309 75.916 350.051 75.916C351.101 75.916 351.409 76.728 351.409 77.568V81.922C351.409 82.37 351.493 82.552 351.801 82.608L351.955 82.636V83H349.715ZM354.141 83V82.566L354.365 82.538C355.107 82.482 355.429 82.314 355.429 81.698V77.792C355.429 77.232 355.261 77.078 354.295 76.91V76.588L356.605 75.958H356.759V77.638C357.109 76.896 357.907 75.972 358.985 75.972C359.671 75.972 360.287 76.266 360.539 76.532C360.371 77.12 359.979 77.512 359.517 77.512C359.279 77.512 359.097 77.442 358.831 77.316C358.523 77.176 358.271 77.092 358.005 77.092C357.487 77.092 357.067 77.54 356.801 78.072V81.726C356.801 82.412 357.319 82.454 358.411 82.538L358.747 82.566V83H354.141ZM364.168 79.472V78.324H368.172V79.472H364.168ZM376.113 83V80.718H371.885V79.808L376.253 73.2H377.429V79.738H378.829L378.577 80.718H377.429V83H376.113ZM372.641 79.738H376.113V74.46L372.641 79.738ZM382.43 73.004L382.15 76.616H381.38L381.1 73.004H382.43ZM384.992 73.004L384.712 76.616H383.942L383.662 73.004H384.992ZM400.718 73.004L396.994 83H395.79L399.514 73.004H400.718ZM402.159 80.284L407.437 78.086L402.159 75.58V74.488L408.753 77.778V78.478L402.159 81.376V80.284ZM117.033 105.376L110.439 102.478V101.778L117.033 98.488V99.58L111.755 102.072L117.033 104.284V105.376ZM122.943 107.21C120.857 107.21 119.373 105.18 119.373 102.184C119.373 99.076 120.997 96.99 123.097 96.99C123.853 96.99 124.777 97.186 125.547 97.662V100.056H125.127C124.777 98.222 123.965 97.592 123.083 97.592C121.669 97.592 120.787 99.258 120.787 101.68C120.787 104.228 121.683 106.174 123.433 106.174C124.273 106.174 124.987 105.698 125.561 104.354L125.953 104.522C125.491 106.02 124.553 107.21 122.943 107.21ZM134.02 107.098C133.222 107.098 132.942 106.58 132.886 106.048C132.494 106.65 131.654 107.154 130.772 107.154C129.68 107.154 128.7 106.398 128.7 105.292C128.7 104.312 129.386 103.836 130.702 103.458L132.872 102.828V101.988C132.872 100.91 132.326 100.392 131.5 100.392C130.814 100.392 130.604 100.714 130.366 101.456C130.254 101.848 130.016 101.988 129.652 101.988C129.246 101.988 128.91 101.722 128.756 101.484C128.98 100.756 130.016 99.916 131.584 99.916C133.474 99.916 134.188 100.896 134.188 101.974V105.67C134.188 106.16 134.412 106.342 134.86 106.342C135.042 106.342 135.224 106.314 135.308 106.286V106.538C134.958 106.902 134.398 107.098 134.02 107.098ZM130.058 105.096C130.058 105.726 130.506 106.356 131.444 106.356C132.088 106.356 132.564 106.104 132.872 105.768V103.374L131.206 103.892C130.282 104.186 130.058 104.55 130.058 105.096ZM138.027 107V106.566L138.251 106.538C138.993 106.482 139.315 106.314 139.315 105.698V101.792C139.315 101.232 139.147 101.078 138.181 100.91V100.588L140.491 99.958H140.645V101.638C140.995 100.896 141.793 99.972 142.871 99.972C143.557 99.972 144.173 100.266 144.425 100.532C144.257 101.12 143.865 101.512 143.403 101.512C143.165 101.512 142.983 101.442 142.717 101.316C142.409 101.176 142.157 101.092 141.891 101.092C141.373 101.092 140.953 101.54 140.687 102.072V105.726C140.687 106.412 141.205 106.454 142.297 106.538L142.633 106.566V107H138.027ZM149.44 107.14C147.788 107.14 146.528 105.838 146.528 103.738C146.528 101.512 148.012 99.958 150.21 99.958C150.658 99.958 151.106 100.028 151.512 100.168V98.348C151.512 97.788 151.358 97.62 150.546 97.466V97.144L152.702 96.5H152.828V105.572C152.828 106.202 153.038 106.314 153.738 106.44V106.762L151.876 107.098C151.722 106.79 151.624 106.496 151.568 106.118C151.218 106.608 150.504 107.14 149.44 107.14ZM147.942 103.486C147.942 105.362 148.838 106.37 150.154 106.37C150.728 106.37 151.204 106.16 151.54 105.852C151.526 105.628 151.512 105.39 151.512 105.096V101.232C151.232 100.812 150.77 100.504 150.028 100.504C148.796 100.504 147.942 101.442 147.942 103.486ZM159.298 107.168C158.15 107.168 157.17 106.888 156.582 106.594L156.652 104.564H157.072C157.408 105.964 158.248 106.636 159.382 106.636C160.292 106.636 160.866 106.146 160.866 105.404C160.866 104.578 160.054 104.354 159.354 104.13L158.85 103.962C157.562 103.556 156.722 103.094 156.722 101.96C156.722 100.77 157.926 99.916 159.34 99.916C160.292 99.916 161.09 100.154 161.566 100.308L161.552 102.016H161.132C160.894 101.106 160.278 100.448 159.172 100.448C158.416 100.448 157.828 100.896 157.828 101.54C157.828 102.114 158.192 102.436 159.298 102.786L159.816 102.954C161.286 103.416 162.014 103.92 162.014 105.026C162.014 106.328 160.838 107.168 159.298 107.168ZM165.111 107V106.608L165.321 106.58C165.727 106.524 166.077 106.37 166.077 105.796V98.404C166.077 97.83 165.727 97.676 165.321 97.62L165.111 97.592V97.2H168.835C170.277 97.2 171.733 98.11 171.733 100C171.733 101.988 170.319 102.912 168.835 102.912H167.449V105.796C167.449 106.37 167.785 106.496 168.373 106.58L168.569 106.608V107H165.111ZM167.449 102.296H168.513C169.731 102.296 170.319 101.554 170.319 100.098C170.319 98.432 169.395 97.816 168.471 97.816H167.449V102.296ZM174.606 107V106.566L174.83 106.538C175.572 106.482 175.894 106.314 175.894 105.698V101.792C175.894 101.232 175.726 101.078 174.76 100.91V100.588L177.07 99.958H177.224V101.638C177.574 100.896 178.372 99.972 179.45 99.972C180.136 99.972 180.752 100.266 181.004 100.532C180.836 101.12 180.444 101.512 179.982 101.512C179.744 101.512 179.562 101.442 179.296 101.316C178.988 101.176 178.736 101.092 178.47 101.092C177.952 101.092 177.532 101.54 177.266 102.072V105.726C177.266 106.412 177.784 106.454 178.876 106.538L179.212 106.566V107H174.606ZM186.635 107.168C184.759 107.168 183.135 105.74 183.135 103.584C183.135 101.428 184.759 99.944 186.635 99.944C188.511 99.944 190.135 101.372 190.135 103.528C190.135 105.684 188.511 107.168 186.635 107.168ZM184.591 103.276C184.591 104.97 185.347 106.608 186.719 106.608C188.021 106.608 188.679 105.432 188.679 103.836C188.679 101.96 187.853 100.504 186.551 100.504C185.249 100.504 184.591 101.68 184.591 103.276ZM193.652 110.094C192.322 110.094 191.44 109.604 191.23 109.24C191.412 108.932 191.762 108.61 192.252 108.61C192.672 108.61 192.924 108.834 193.12 109.016C193.456 109.324 193.75 109.604 194.212 109.604C195.038 109.604 195.22 108.988 195.22 107.532V101.82C195.22 101.232 194.87 101.12 193.484 100.91V100.588L196.494 99.958H196.676V107.49C196.676 109.296 195.248 110.094 193.652 110.094ZM194.772 97.564C194.772 97.004 195.262 96.528 195.836 96.528C196.41 96.528 196.9 97.004 196.9 97.564C196.9 98.124 196.382 98.6 195.836 98.6C195.262 98.6 194.772 98.124 194.772 97.564ZM205.107 107.168C203.203 107.168 201.831 105.838 201.831 103.724C201.831 101.442 203.455 99.944 205.107 99.944C207.123 99.944 208.187 101.456 208.061 103.08H203.063C203.077 105.264 204.365 106.076 205.667 106.076C206.619 106.076 207.319 105.67 207.893 104.928L208.201 105.138C207.529 106.524 206.381 107.168 205.107 107.168ZM203.105 102.478H206.675C206.563 101.33 205.961 100.49 204.911 100.49C204.071 100.49 203.287 101.204 203.105 102.478ZM214.364 107.154C212.278 107.154 210.948 105.684 210.948 103.654C210.948 101.498 212.586 99.93 214.56 99.93C216.45 99.93 217.22 100.938 217.36 101.372C217.178 101.666 216.856 101.918 216.436 101.918C216.1 101.918 215.876 101.736 215.666 101.386C215.428 100.98 215.12 100.476 214.224 100.476C213.328 100.476 212.25 101.246 212.25 103.164C212.25 105.068 213.496 106.062 214.896 106.062C215.932 106.062 216.59 105.642 217.206 104.858L217.472 105.026C216.898 106.342 215.834 107.154 214.364 107.154ZM224.083 107.154C222.837 107.154 221.829 106.622 221.829 105.404V100.896H220.051V100.518C221.465 100.224 222.263 99.244 222.711 98.208H223.215V100.112H226.393L226.127 100.896H223.215V105.236C223.215 105.936 223.845 106.272 224.769 106.272C225.301 106.272 225.875 106.188 226.407 105.936V106.272C225.917 106.762 224.909 107.154 224.083 107.154ZM231.87 107L229.686 98.558V105.502C229.686 106.244 229.896 106.496 230.302 106.58L230.428 106.608V107H228.23V106.608L228.356 106.58C228.748 106.496 228.972 106.23 228.972 105.502V98.404C228.972 97.858 228.72 97.69 228.384 97.62L228.23 97.592V97.2H230.512L232.332 104.326L234.152 97.2H236.49V97.592L236.336 97.62C236.028 97.676 235.748 97.83 235.748 98.404V105.796C235.748 106.37 236.028 106.524 236.336 106.58L236.49 106.608V107H233.732V106.608L233.9 106.58C234.18 106.524 234.488 106.398 234.488 105.796V98.544L232.276 107H231.87ZM241.687 107.168C239.783 107.168 238.411 105.838 238.411 103.724C238.411 101.442 240.035 99.944 241.687 99.944C243.703 99.944 244.767 101.456 244.641 103.08H239.643C239.657 105.264 240.945 106.076 242.247 106.076C243.199 106.076 243.899 105.67 244.473 104.928L244.781 105.138C244.109 106.524 242.961 107.168 241.687 107.168ZM239.685 102.478H243.255C243.143 101.33 242.541 100.49 241.491 100.49C240.651 100.49 239.867 101.204 239.685 102.478ZM250.034 107.14C248.382 107.14 247.122 105.838 247.122 103.738C247.122 101.512 248.606 99.958 250.804 99.958C251.252 99.958 251.7 100.028 252.106 100.168V98.348C252.106 97.788 251.952 97.62 251.14 97.466V97.144L253.296 96.5H253.422V105.572C253.422 106.202 253.632 106.314 254.332 106.44V106.762L252.47 107.098C252.316 106.79 252.218 106.496 252.162 106.118C251.812 106.608 251.098 107.14 250.034 107.14ZM248.536 103.486C248.536 105.362 249.432 106.37 250.748 106.37C251.322 106.37 251.798 106.16 252.134 105.852C252.12 105.628 252.106 105.39 252.106 105.096V101.232C251.826 100.812 251.364 100.504 250.622 100.504C249.39 100.504 248.536 101.442 248.536 103.486ZM257.583 107V106.622L258.045 106.594C258.955 106.552 259.305 106.384 259.305 105.754V101.82C259.305 101.246 259.039 101.134 257.583 100.91V100.588L260.509 99.958H260.761V105.754C260.761 106.384 261.111 106.552 262.021 106.594L262.483 106.622V107H257.583ZM258.857 97.564C258.857 97.004 259.347 96.528 259.921 96.528C260.495 96.528 260.985 97.004 260.985 97.564C260.985 98.124 260.467 98.6 259.921 98.6C259.347 98.6 258.857 98.124 258.857 97.564ZM268.17 107.154C266.84 107.154 266.112 106.37 266.112 104.956V101.484C266.112 100.938 265.916 100.826 265.132 100.644V100.322L267.274 99.958H267.414V104.774C267.414 105.684 267.792 106.342 268.814 106.342C269.5 106.342 270.018 106.048 270.368 105.684C270.354 105.544 270.354 105.39 270.354 105.236V101.498C270.354 100.994 270.228 100.84 269.388 100.658V100.322L271.502 99.958H271.628V105.516C271.628 106.146 271.782 106.314 272.566 106.44V106.762L270.732 107.098C270.564 106.832 270.452 106.426 270.396 105.964C270.046 106.524 269.206 107.154 268.17 107.154ZM279.918 107V106.636L280.044 106.608C280.338 106.552 280.422 106.384 280.422 105.922V101.862C280.422 101.106 280.086 100.77 279.596 100.77C279.246 100.77 278.924 101.022 278.7 101.344C278.714 101.414 278.714 101.47 278.714 101.54V105.922C278.714 106.398 278.784 106.552 279.078 106.608L279.218 106.636V107H277.006V106.636L277.174 106.608C277.468 106.552 277.51 106.384 277.51 105.922V101.862C277.51 101.12 277.174 100.77 276.67 100.77C276.334 100.77 276.012 100.994 275.816 101.344V105.922C275.816 106.398 275.872 106.552 276.18 106.608L276.334 106.636V107H274.066V106.636L274.206 106.608C274.528 106.552 274.612 106.398 274.612 105.922V101.792C274.612 101.232 274.542 101.05 274.052 100.91V100.588L275.648 99.958H275.774V101.05C276.04 100.476 276.628 99.916 277.37 99.916C278.126 99.916 278.532 100.434 278.672 101.064C278.938 100.49 279.512 99.916 280.254 99.916C281.304 99.916 281.612 100.728 281.612 101.568V105.922C281.612 106.37 281.696 106.552 282.004 106.608L282.158 106.636V107H279.918ZM296.668 107.154C294.582 107.154 293.252 105.684 293.252 103.654C293.252 101.498 294.89 99.93 296.864 99.93C298.754 99.93 299.524 100.938 299.664 101.372C299.482 101.666 299.16 101.918 298.74 101.918C298.404 101.918 298.18 101.736 297.97 101.386C297.732 100.98 297.424 100.476 296.528 100.476C295.632 100.476 294.554 101.246 294.554 103.164C294.554 105.068 295.8 106.062 297.2 106.062C298.236 106.062 298.894 105.642 299.51 104.858L299.776 105.026C299.202 106.342 298.138 107.154 296.668 107.154ZM303.125 107V106.622L303.517 106.58C304.553 106.51 304.875 106.37 304.875 105.74V98.446C304.875 97.802 304.567 97.634 303.125 97.466V97.144L306.065 96.5H306.289V105.74C306.289 106.37 306.667 106.51 307.633 106.58L308.039 106.622V107H303.125ZM316.918 107.098C316.12 107.098 315.84 106.58 315.784 106.048C315.392 106.65 314.552 107.154 313.67 107.154C312.578 107.154 311.598 106.398 311.598 105.292C311.598 104.312 312.284 103.836 313.6 103.458L315.77 102.828V101.988C315.77 100.91 315.224 100.392 314.398 100.392C313.712 100.392 313.502 100.714 313.264 101.456C313.152 101.848 312.914 101.988 312.55 101.988C312.144 101.988 311.808 101.722 311.654 101.484C311.878 100.756 312.914 99.916 314.482 99.916C316.372 99.916 317.086 100.896 317.086 101.974V105.67C317.086 106.16 317.31 106.342 317.758 106.342C317.94 106.342 318.122 106.314 318.206 106.286V106.538C317.856 106.902 317.296 107.098 316.918 107.098ZM312.956 105.096C312.956 105.726 313.404 106.356 314.342 106.356C314.986 106.356 315.462 106.104 315.77 105.768V103.374L314.104 103.892C313.18 104.186 312.956 104.55 312.956 105.096ZM323.907 107.168C322.759 107.168 321.779 106.888 321.191 106.594L321.261 104.564H321.681C322.017 105.964 322.857 106.636 323.991 106.636C324.901 106.636 325.475 106.146 325.475 105.404C325.475 104.578 324.663 104.354 323.963 104.13L323.459 103.962C322.171 103.556 321.331 103.094 321.331 101.96C321.331 100.77 322.535 99.916 323.949 99.916C324.901 99.916 325.699 100.154 326.175 100.308L326.161 102.016H325.741C325.503 101.106 324.887 100.448 323.781 100.448C323.025 100.448 322.437 100.896 322.437 101.54C322.437 102.114 322.801 102.436 323.907 102.786L324.425 102.954C325.895 103.416 326.623 103.92 326.623 105.026C326.623 106.328 325.447 107.168 323.907 107.168ZM333.052 107.168C331.904 107.168 330.924 106.888 330.336 106.594L330.406 104.564H330.826C331.162 105.964 332.002 106.636 333.136 106.636C334.046 106.636 334.62 106.146 334.62 105.404C334.62 104.578 333.808 104.354 333.108 104.13L332.604 103.962C331.316 103.556 330.476 103.094 330.476 101.96C330.476 100.77 331.68 99.916 333.094 99.916C334.046 99.916 334.844 100.154 335.32 100.308L335.306 102.016H334.886C334.648 101.106 334.032 100.448 332.926 100.448C332.17 100.448 331.582 100.896 331.582 101.54C331.582 102.114 331.946 102.436 333.052 102.786L333.57 102.954C335.04 103.416 335.768 103.92 335.768 105.026C335.768 106.328 334.592 107.168 333.052 107.168ZM338.613 101.176V100.182H345.025V101.176H338.613ZM338.613 103.962V102.968H345.025V103.962H338.613ZM348.681 97.004L348.401 100.616H347.631L347.351 97.004H348.681ZM351.243 97.004L350.963 100.616H350.193L349.913 97.004H351.243ZM358.859 107V106.636L358.985 106.608C359.279 106.552 359.363 106.384 359.363 105.922V101.862C359.363 101.106 359.027 100.77 358.537 100.77C358.187 100.77 357.865 101.022 357.641 101.344C357.655 101.414 357.655 101.47 357.655 101.54V105.922C357.655 106.398 357.725 106.552 358.019 106.608L358.159 106.636V107H355.947V106.636L356.115 106.608C356.409 106.552 356.451 106.384 356.451 105.922V101.862C356.451 101.12 356.115 100.77 355.611 100.77C355.275 100.77 354.953 100.994 354.757 101.344V105.922C354.757 106.398 354.813 106.552 355.121 106.608L355.275 106.636V107H353.007V106.636L353.147 106.608C353.469 106.552 353.553 106.398 353.553 105.922V101.792C353.553 101.232 353.483 101.05 352.993 100.91V100.588L354.589 99.958H354.715V101.05C354.981 100.476 355.569 99.916 356.311 99.916C357.067 99.916 357.473 100.434 357.613 101.064C357.879 100.49 358.453 99.916 359.195 99.916C360.245 99.916 360.553 100.728 360.553 101.568V105.922C360.553 106.37 360.637 106.552 360.945 106.608L361.099 106.636V107H358.859ZM363.776 107V106.622L364.168 106.58C365.204 106.51 365.526 106.37 365.526 105.74V98.446C365.526 97.802 365.218 97.634 363.776 97.466V97.144L366.716 96.5H366.94V105.74C366.94 106.37 367.318 106.51 368.284 106.58L368.69 106.622V107H363.776ZM373.313 103.472V102.324H377.317V103.472H373.313ZM385.258 107V104.718H381.03V103.808L385.398 97.2H386.574V103.738H387.974L387.722 104.718H386.574V107H385.258ZM381.786 103.738H385.258V98.46L381.786 103.738ZM391.575 97.004L391.295 100.616H390.525L390.245 97.004H391.575ZM394.137 97.004L393.857 100.616H393.087L392.807 97.004H394.137ZM409.863 97.004L406.139 107H404.935L408.659 97.004H409.863ZM411.304 104.284L416.582 102.086L411.304 99.58V98.488L417.898 101.778V102.478L411.304 105.376V104.284ZM80.4534 129.376L73.8594 126.478V125.778L80.4534 122.488V123.58L75.1754 126.072L80.4534 128.284V129.376ZM86.8391 121.004L83.1151 131H81.9111L85.6351 121.004H86.8391ZM91.2341 131.14C89.5821 131.14 88.3221 129.838 88.3221 127.738C88.3221 125.512 89.8061 123.958 92.0041 123.958C92.4521 123.958 92.9001 124.028 93.3061 124.168V122.348C93.3061 121.788 93.1521 121.62 92.3401 121.466V121.144L94.4961 120.5H94.6221V129.572C94.6221 130.202 94.8321 130.314 95.5321 130.44V130.762L93.6701 131.098C93.5161 130.79 93.4181 130.496 93.3621 130.118C93.0121 130.608 92.2981 131.14 91.2341 131.14ZM89.7361 127.486C89.7361 129.362 90.6321 130.37 91.9481 130.37C92.5221 130.37 92.9981 130.16 93.3341 129.852C93.3201 129.628 93.3061 129.39 93.3061 129.096V125.232C93.0261 124.812 92.5641 124.504 91.8221 124.504C90.5901 124.504 89.7361 125.442 89.7361 127.486ZM98.783 131V130.622L99.245 130.594C100.155 130.552 100.505 130.384 100.505 129.754V125.82C100.505 125.246 100.239 125.134 98.783 124.91V124.588L101.709 123.958H101.961V129.754C101.961 130.384 102.311 130.552 103.221 130.594L103.683 130.622V131H98.783ZM100.057 121.564C100.057 121.004 100.547 120.528 101.121 120.528C101.695 120.528 102.185 121.004 102.185 121.564C102.185 122.124 101.667 122.6 101.121 122.6C100.547 122.6 100.057 122.124 100.057 121.564ZM107.704 126.142C107.186 124.994 107.004 124.588 106.444 124.49V124.112H109.734V124.49L109.454 124.546C108.642 124.7 108.628 125.05 108.978 125.876L110.462 129.306L111.904 125.96C112.31 125.022 112.212 124.686 111.484 124.546L111.204 124.49V124.112H113.948V124.49C113.36 124.616 113.038 125.064 112.562 126.114L110.322 131.07H109.888L107.704 126.142ZM115.715 128.284L120.993 126.086L115.715 123.58V122.488L122.309 125.778V126.478L115.715 129.376V128.284ZM7.294 153.376L0.7 150.478V149.778L7.294 146.488V147.58L2.016 150.072L7.294 152.284V153.376ZM13.6797 145.004L9.95572 155H8.75172L12.4757 145.004H13.6797ZM18.7887 155.168C17.6407 155.168 16.6607 154.888 16.0727 154.594L16.1427 152.564H16.5627C16.8987 153.964 17.7387 154.636 18.8727 154.636C19.7827 154.636 20.3567 154.146 20.3567 153.404C20.3567 152.578 19.5447 152.354 18.8447 152.13L18.3407 151.962C17.0527 151.556 16.2127 151.094 16.2127 149.96C16.2127 148.77 17.4167 147.916 18.8307 147.916C19.7827 147.916 20.5807 148.154 21.0567 148.308L21.0427 150.016H20.6227C20.3847 149.106 19.7687 148.448 18.6627 148.448C17.9067 148.448 17.3187 148.896 17.3187 149.54C17.3187 150.114 17.6827 150.436 18.7887 150.786L19.3067 150.954C20.7767 151.416 21.5047 151.92 21.5047 153.026C21.5047 154.328 20.3287 155.168 18.7887 155.168ZM28.0176 155.168C26.1136 155.168 24.7416 153.838 24.7416 151.724C24.7416 149.442 26.3656 147.944 28.0176 147.944C30.0336 147.944 31.0976 149.456 30.9716 151.08H25.9736C25.9876 153.264 27.2756 154.076 28.5776 154.076C29.5296 154.076 30.2296 153.67 30.8036 152.928L31.1116 153.138C30.4396 154.524 29.2916 155.168 28.0176 155.168ZM26.0156 150.478H29.5856C29.4736 149.33 28.8716 148.49 27.8216 148.49C26.9816 148.49 26.1976 149.204 26.0156 150.478ZM37.2745 155.154C35.1885 155.154 33.8585 153.684 33.8585 151.654C33.8585 149.498 35.4965 147.93 37.4705 147.93C39.3605 147.93 40.1305 148.938 40.2705 149.372C40.0885 149.666 39.7665 149.918 39.3465 149.918C39.0105 149.918 38.7865 149.736 38.5765 149.386C38.3385 148.98 38.0305 148.476 37.1345 148.476C36.2385 148.476 35.1605 149.246 35.1605 151.164C35.1605 153.068 36.4065 154.062 37.8065 154.062C38.8425 154.062 39.5005 153.642 40.1165 152.858L40.3825 153.026C39.8085 154.342 38.7445 155.154 37.2745 155.154ZM46.9935 155.154C45.7475 155.154 44.7395 154.622 44.7395 153.404V148.896H42.9615V148.518C44.3755 148.224 45.1735 147.244 45.6215 146.208H46.1255V148.112H49.3035L49.0375 148.896H46.1255V153.236C46.1255 153.936 46.7555 154.272 47.6795 154.272C48.2115 154.272 48.7855 154.188 49.3175 153.936V154.272C48.8275 154.762 47.8195 155.154 46.9935 155.154ZM53.0584 155V154.622L53.5204 154.594C54.4304 154.552 54.7804 154.384 54.7804 153.754V149.82C54.7804 149.246 54.5144 149.134 53.0584 148.91V148.588L55.9844 147.958H56.2364V153.754C56.2364 154.384 56.5864 154.552 57.4964 154.594L57.9584 154.622V155H53.0584ZM54.3324 145.564C54.3324 145.004 54.8224 144.528 55.3964 144.528C55.9704 144.528 56.4604 145.004 56.4604 145.564C56.4604 146.124 55.9424 146.6 55.3964 146.6C54.8224 146.6 54.3324 146.124 54.3324 145.564ZM64.4153 155.168C62.5393 155.168 60.9153 153.74 60.9153 151.584C60.9153 149.428 62.5393 147.944 64.4153 147.944C66.2913 147.944 67.9153 149.372 67.9153 151.528C67.9153 153.684 66.2913 155.168 64.4153 155.168ZM62.3713 151.276C62.3713 152.97 63.1273 154.608 64.4993 154.608C65.8013 154.608 66.4593 153.432 66.4593 151.836C66.4593 149.96 65.6333 148.504 64.3313 148.504C63.0293 148.504 62.3713 149.68 62.3713 151.276ZM74.2042 155V154.622L74.4422 154.594C74.9742 154.538 75.1282 154.342 75.1282 153.81V150.282C75.1282 149.302 74.5962 148.742 73.7142 148.742C73.0702 148.742 72.4682 149.092 72.1462 149.456V153.81C72.1462 154.398 72.3562 154.538 72.8322 154.594L73.0982 154.622V155H69.9342V154.622L70.1862 154.594C70.6482 154.538 70.8582 154.412 70.8582 153.81V149.75C70.8582 149.162 70.6622 149.078 69.9342 148.91V148.588L71.9922 147.958H72.1182V149.106C72.5522 148.518 73.3922 147.916 74.3582 147.916C75.8562 147.916 76.4162 148.98 76.4162 149.932V153.81C76.4162 154.426 76.6402 154.538 77.1022 154.594L77.3542 154.622V155H74.2042ZM79.1352 152.284L84.4132 150.086L79.1352 147.58V146.488L85.7292 149.778V150.478L79.1352 153.376V152.284Z" fill="black"/>
</svg>
