<svg width="531" height="86" viewBox="0 0 531 86" fill="none" xmlns="http://www.w3.org/2000/svg">
<path d="M26.7444 0.495996C30.4564 0.495996 33.7524 1.072 36.6324 2.224C39.5124 3.376 41.7844 5.072 43.4484 7.31199C45.1124 9.488 45.9444 12.176 45.9444 15.376C45.9444 19.792 44.6324 23.504 42.0084 26.512C39.3844 29.52 36.1204 32.144 32.2164 34.384L45.5604 47.344C46.8404 45.168 47.9604 42.896 48.9204 40.528C49.8804 38.096 50.6804 35.664 51.3204 33.232H66.2004C65.2404 36.816 63.8324 40.656 61.9764 44.752C60.1204 48.848 57.7524 52.688 54.8724 56.272L68.9844 70H51.3204L45.9444 64.72C44.5364 65.68 43.0644 66.544 41.5284 67.312C39.9924 68.08 38.3924 68.752 36.7284 69.328C35.0644 69.84 33.3044 70.224 31.4484 70.48C29.5924 70.8 27.6724 70.96 25.6884 70.96C20.5044 70.96 16.0564 70.16 12.3444 68.56C8.63238 66.896 5.78438 64.592 3.80038 61.648C1.81638 58.704 0.824375 55.312 0.824375 51.472C0.824375 48.208 1.30438 45.424 2.26438 43.12C3.28838 40.752 4.72838 38.704 6.58438 36.976C8.50438 35.184 10.7764 33.552 13.4004 32.08C11.7364 30.16 10.3924 28.368 9.36838 26.704C8.40838 24.976 7.70438 23.28 7.25638 21.616C6.87238 19.952 6.68038 18.192 6.68038 16.336C6.68038 13.072 7.51238 10.256 9.17638 7.888C10.9044 5.52 13.2724 3.696 16.2804 2.41599C19.3524 1.136 22.8404 0.495996 26.7444 0.495996ZM21.7524 40.624C20.5364 41.52 19.4804 42.448 18.5844 43.408C17.7524 44.368 17.0804 45.392 16.5684 46.48C16.1204 47.568 15.8964 48.784 15.8964 50.128C15.8964 52.88 16.9204 55.056 18.9684 56.656C21.0164 58.192 23.5764 58.96 26.6484 58.96C28.6964 58.96 30.6164 58.704 32.4084 58.192C34.2004 57.68 35.8324 56.976 37.3044 56.08L21.7524 40.624ZM26.6484 11.536C25.0484 11.536 23.5124 11.952 22.0404 12.784C20.6324 13.552 19.9284 15.056 19.9284 17.296C19.9284 18.896 20.3124 20.432 21.0804 21.904C21.9124 23.376 23.0004 24.88 24.3444 26.416C27.0324 24.944 29.0804 23.472 30.4884 22C31.9604 20.528 32.6964 18.832 32.6964 16.912C32.6964 14.992 32.0564 13.616 30.7764 12.784C29.4964 11.952 28.1204 11.536 26.6484 11.536ZM124.886 70V63.856C121.814 68.656 115.67 70.96 110.582 70.96C96.9496 70.96 88.1176 60.112 88.1176 46.192C88.1176 32.368 96.9496 21.52 110.582 21.52C115.574 21.52 121.334 23.632 124.502 28.048V2.8H140.63V60.304V70H124.886ZM104.246 46.192C104.246 51.76 108.758 56.176 114.422 56.176C120.278 56.176 124.79 51.76 124.79 46.192C124.79 40.72 120.374 36.208 114.422 36.208C108.662 36.208 104.246 40.72 104.246 46.192ZM171.162 71.536C155.898 71.536 145.53 60.208 145.53 46.192C145.53 32.368 156.09 20.944 170.49 20.944C187.578 20.944 197.37 34.768 194.778 51.184H161.274C162.81 55.792 166.65 58 171.45 58C176.922 58 180.282 54.64 181.242 51.664L181.53 51.568C183.93 54.832 190.17 58 194.298 58L194.394 58.288C190.266 67.12 181.434 71.536 171.162 71.536ZM161.466 40.144H179.514C178.074 36.4 175.002 34.096 170.202 34.096C166.074 34.096 163.002 36.304 161.466 40.144ZM211.18 70L193.996 22.48H211.948L221.356 51.472H221.836L231.244 22.48H248.812L231.724 70H211.18ZM273.05 71.536C257.786 71.536 247.418 60.208 247.418 46.192C247.418 32.368 257.978 20.944 272.378 20.944C289.466 20.944 299.258 34.768 296.666 51.184H263.162C264.698 55.792 268.538 58 273.338 58C278.81 58 282.17 54.64 283.13 51.664L283.418 51.568C285.818 54.832 292.058 58 296.186 58L296.282 58.288C292.154 67.12 283.322 71.536 273.05 71.536ZM263.354 40.144H281.402C279.962 36.4 276.89 34.096 272.09 34.096C267.962 34.096 264.89 36.304 263.354 40.144ZM302.067 70V2.8H318.195V70H302.067ZM349.547 71.536C334.763 71.536 323.243 60.4 323.243 46.192C323.243 32.08 334.763 20.848 349.547 20.848C364.331 20.848 375.851 32.08 375.851 46.192C375.851 60.4 364.331 71.536 349.547 71.536ZM339.371 46.192C339.371 51.856 343.787 56.464 349.547 56.464C355.307 56.464 359.723 51.856 359.723 46.192C359.723 40.528 355.403 35.92 349.547 35.92C343.691 35.92 339.371 40.528 339.371 46.192ZM380.892 31.984V22.48H396.156V29.2C398.94 24.304 405.18 21.52 410.94 21.52C424.476 21.52 433.308 32.368 433.308 46.192C433.308 60.112 424.476 70.96 410.94 70.96C406.044 70.96 400.188 68.848 397.02 64.624V85.84H380.892V31.984ZM396.732 46.192C396.732 51.76 401.148 56.176 407.004 56.176C412.668 56.176 417.18 51.76 417.18 46.192C417.18 40.72 412.764 36.208 407.004 36.208C401.052 36.208 396.732 40.72 396.732 46.192ZM462.856 71.536C447.592 71.536 437.224 60.208 437.224 46.192C437.224 32.368 447.784 20.944 462.184 20.944C479.272 20.944 489.064 34.768 486.472 51.184H452.968C454.504 55.792 458.344 58 463.144 58C468.616 58 471.976 54.64 472.936 51.664L473.224 51.568C475.624 54.832 481.864 58 485.992 58L486.088 58.288C481.96 67.12 473.128 71.536 462.856 71.536ZM453.16 40.144H471.208C469.768 36.4 466.696 34.096 461.896 34.096C457.768 34.096 454.696 36.304 453.16 40.144ZM491.873 37.264V22.48H507.617V30.352C509.729 25.264 513.857 21.52 520.097 21.52C524.417 21.52 527.969 22.768 530.273 25.552L530.369 25.84C526.817 28.432 523.073 35.056 522.785 39.472L522.497 39.568C521.345 38.704 519.329 38.224 517.217 38.224C510.017 38.224 508.001 44.464 508.001 51.664V70H491.873V37.264Z" fill="#333333"/>
</svg>
