<svg width="406" height="80" viewBox="0 0 406 80" fill="none" xmlns="http://www.w3.org/2000/svg">
<path d="M18.1698 67.976C17.4871 67.976 16.8684 67.6133 16.3138 66.888C15.8018 66.1627 15.5458 65.2453 15.5458 64.136C15.5458 63.496 15.6311 62.408 15.8018 60.872C15.5458 60.872 15.2898 60.872 15.0338 60.872C12.6018 60.872 10.2978 60.36 8.12175 59.336C5.94575 58.2693 4.17509 56.8613 2.80975 55.112C1.44442 53.3627 0.761753 51.464 0.761753 49.416C0.761753 47.8373 1.40175 46.3867 2.68175 45.064C4.00442 43.6987 5.71109 42.4827 7.80175 41.416C9.93509 40.3067 12.2391 39.3467 14.7138 38.536C13.0071 37.6827 11.5564 36.6587 10.3618 35.464C9.16709 34.2267 8.56975 32.84 8.56975 31.304C8.56975 29.64 9.27375 27.9333 10.6818 26.184C12.0898 24.4347 13.9244 22.7707 16.1858 21.192C18.4471 19.5707 20.8578 18.1413 23.4178 16.904C23.9298 14.4293 24.4418 12.0613 24.9538 9.8C25.4658 7.496 25.9564 5.384 26.4258 3.464C26.6391 2.65333 26.9591 1.992 27.3858 1.48C27.8551 0.925331 28.3671 0.647999 28.9218 0.647999C29.5191 0.647999 29.9884 0.903998 30.3298 1.416C30.7138 1.928 30.9058 2.93066 30.9058 4.424C30.9058 4.72266 30.7564 5.78933 30.4578 7.624C30.1591 9.416 29.7538 11.72 29.2418 14.536C30.7351 14.024 32.1858 13.64 33.5938 13.384C35.0018 13.0853 36.2604 12.936 37.3698 12.936C38.9484 12.936 40.2924 13.2773 41.4018 13.96C42.5538 14.6427 43.1298 15.4747 43.1298 16.456C43.1298 17.0533 42.8738 17.544 42.3618 17.928C41.8924 18.2693 41.1031 18.5467 39.9938 18.76C37.9458 19.1013 35.8978 19.5067 33.8498 19.976C31.8018 20.4453 29.8391 20.9573 27.9618 21.512C27.5351 23.7307 27.1084 26.056 26.6818 28.488C26.2551 30.92 25.8071 33.416 25.3378 35.976C28.2391 35.464 30.6498 35.208 32.5698 35.208C34.0631 35.208 35.1511 35.3147 35.8338 35.528C36.5591 35.7413 37.0284 36.0187 37.2418 36.36C37.4551 36.7013 37.5618 37.064 37.5618 37.448C37.5618 38.472 36.5378 39.3893 34.4898 40.2C32.4844 40.968 29.3484 41.352 25.0818 41.352C24.8684 41.352 24.6124 41.352 24.3138 41.352C23.9298 43.528 23.5458 45.704 23.1618 47.88C22.7778 50.056 22.3938 52.1893 22.0098 54.28C25.1671 53.8107 28.0258 53.1707 30.5858 52.36C33.1884 51.5493 35.4711 50.7173 37.4338 49.864C39.3964 49.0107 40.9964 48.3067 42.2338 47.752C43.4711 47.1547 44.3031 46.856 44.7298 46.856C45.1564 46.856 45.4551 47.0053 45.6258 47.304C45.8391 47.6027 45.9458 47.8587 45.9458 48.072C45.9458 48.712 45.3911 49.6293 44.2818 50.824C43.1724 52.0187 41.5511 53.2987 39.4178 54.664C37.2844 55.9867 34.6604 57.2027 31.5458 58.312C28.4738 59.3787 24.9324 60.1253 20.9218 60.552C20.7084 62.0027 20.4951 63.3467 20.2818 64.584C20.1111 65.7787 19.8124 66.632 19.3858 67.144C18.9591 67.6987 18.5538 67.976 18.1698 67.976ZM16.6338 54.792C17.2311 50.9093 17.9564 46.4293 18.8098 41.352C16.8044 42.12 14.7991 42.952 12.7938 43.848C10.8311 44.7013 9.18842 45.7253 7.86575 46.92C6.58575 48.072 5.94575 49.48 5.94575 51.144C5.94575 52.2107 6.64975 53.1067 8.05775 53.832C9.46575 54.5147 11.5138 54.856 14.2018 54.856C15.0124 54.856 15.8231 54.8347 16.6338 54.792ZM19.5778 37.192C19.9618 34.9733 20.3671 32.7333 20.7938 30.472C21.2204 28.168 21.6471 25.8853 22.0738 23.624C19.5991 24.648 17.5938 25.8 16.0578 27.08C14.5218 28.3173 13.7538 29.6187 13.7538 30.984C13.7538 32.0933 14.2871 33.2027 15.3538 34.312C16.4204 35.4213 17.8071 36.3813 19.5138 37.192C19.5138 37.192 19.5351 37.192 19.5778 37.192ZM110.482 28.808C111.634 26.0347 112.722 23.176 113.746 20.232C114.812 17.288 115.772 14.28 116.626 11.208C116.882 10.3547 117.266 9.672 117.778 9.16C118.332 8.60533 118.972 8.328 119.698 8.328C120.21 8.328 120.636 8.52 120.978 8.904C121.362 9.288 121.554 9.8 121.554 10.44C121.554 11.2507 121.234 12.6587 120.594 14.664C119.996 16.6693 119.228 19.208 118.29 22.28C117.394 25.352 116.476 28.8933 115.538 32.904C114.642 36.872 113.874 41.2667 113.234 46.088C112.636 50.9093 112.338 56.0507 112.338 61.512C112.338 62.7067 112.082 63.688 111.57 64.456C111.058 65.2667 110.439 65.672 109.714 65.672C109.287 65.672 108.882 65.5653 108.498 65.352C108.114 65.1387 107.772 64.6267 107.474 63.816C107.218 63.048 107.004 61.832 106.834 60.168C106.663 58.4613 106.578 56.1573 106.578 53.256C106.578 51.0373 106.706 48.6267 106.962 46.024C104.999 49.5653 102.866 52.6587 100.562 55.304C98.3004 57.9067 96.1031 59.912 93.9698 61.32C91.8791 62.728 90.0871 63.432 88.5938 63.432C86.7591 63.432 85.2658 62.8133 84.1138 61.576C83.0044 60.3813 82.4498 58.5893 82.4498 56.2C82.4498 54.1093 82.9404 51.9547 83.9218 49.736C84.9031 47.5173 86.2044 45.3413 87.8258 43.208C89.4471 41.032 91.2391 38.984 93.2018 37.064C95.1644 35.144 97.1271 33.4587 99.0898 32.008C101.095 30.5147 102.951 29.3627 104.658 28.552C106.364 27.6987 107.751 27.272 108.818 27.272C109.244 27.272 109.628 27.4213 109.97 27.72C110.311 28.0187 110.482 28.3813 110.482 28.808ZM109.65 30.792C109.351 31.0907 108.988 31.3893 108.562 31.688C108.135 31.9867 107.666 32.3067 107.154 32.648C105.276 33.9707 103.207 35.5067 100.946 37.256C98.7271 38.9627 96.5938 40.84 94.5458 42.888C92.5404 44.8933 90.8978 47.0053 89.6178 49.224C88.3378 51.4427 87.6978 53.7253 87.6978 56.072C87.6978 57.096 88.2098 57.608 89.2338 57.608C90.6418 57.608 92.1778 56.9467 93.8418 55.624C95.5484 54.2587 97.2978 52.3813 99.0898 49.992C100.882 47.56 102.674 44.7227 104.466 41.48C106.258 38.1947 107.986 34.632 109.65 30.792ZM150.689 33.416C150.689 34.7813 150.263 36.1253 149.409 37.448C148.556 38.728 147.425 39.9653 146.017 41.16C144.609 42.312 143.052 43.4 141.345 44.424C139.639 45.448 137.932 46.344 136.225 47.112C134.519 47.88 132.961 48.4987 131.553 48.968C131.212 50.632 131.041 52.104 131.041 53.384C131.041 54.1947 131.233 54.7707 131.617 55.112C132.001 55.4533 132.599 55.624 133.409 55.624C135.201 55.624 137.1 55.304 139.105 54.664C141.111 54.024 143.159 53.192 145.249 52.168C147.34 51.144 149.345 50.056 151.265 48.904C153.185 47.752 154.935 46.664 156.513 45.64C158.135 44.616 159.479 43.784 160.545 43.144C161.612 42.504 162.316 42.184 162.657 42.184C163.169 42.184 163.553 42.3547 163.809 42.696C164.108 42.9947 164.257 43.3573 164.257 43.784C164.257 44.1253 163.724 44.7867 162.657 45.768C161.633 46.7493 160.247 47.9013 158.497 49.224C156.748 50.504 154.785 51.8267 152.609 53.192C150.433 54.5573 148.172 55.8373 145.825 57.032C143.521 58.2267 141.281 59.1867 139.105 59.912C136.972 60.6373 135.052 61 133.345 61C131.127 61 129.399 60.168 128.161 58.504C126.924 56.84 126.305 54.2587 126.305 50.76C126.305 48.4133 126.604 46.0453 127.201 43.656C127.841 41.2667 128.695 38.984 129.761 36.808C130.871 34.5893 132.087 32.6267 133.409 30.92C134.775 29.1707 136.204 27.8053 137.697 26.824C139.191 25.8 140.641 25.288 142.049 25.288C144.737 25.288 146.849 26.0347 148.385 27.528C149.921 29.0213 150.689 30.984 150.689 33.416ZM132.897 44.04C134.22 43.2293 135.585 42.376 136.993 41.48C138.401 40.584 139.703 39.6667 140.897 38.728C142.092 37.7893 143.052 36.808 143.777 35.784C144.545 34.7173 144.929 33.6293 144.929 32.52C144.929 30.9413 144.076 30.152 142.369 30.152C141.303 30.152 140.172 30.8347 138.977 32.2C137.825 33.5227 136.716 35.2507 135.649 37.384C134.583 39.5173 133.665 41.736 132.897 44.04ZM168.655 59.4C168.015 59.4 167.375 58.9307 166.735 57.992C166.137 57.0533 165.689 55.7307 165.391 54.024C165.092 52.232 164.815 50.184 164.559 47.88C164.303 45.576 164.089 43.3147 163.919 41.096C163.748 38.8773 163.62 36.9147 163.535 35.208C163.449 33.5013 163.407 32.3493 163.407 31.752C163.407 29.5333 163.748 27.8907 164.431 26.824C165.156 25.7147 166.073 25.16 167.183 25.16C167.951 25.16 168.505 25.3733 168.847 25.8C169.188 26.184 169.359 27.08 169.359 28.488C169.359 29.4267 169.38 30.6427 169.423 32.136C169.465 33.6293 169.529 35.2507 169.615 37C169.7 39.0907 169.785 41.3093 169.871 43.656C169.956 45.96 170.02 48.2427 170.063 50.504C171.087 48.7973 172.26 46.8987 173.583 44.808C174.948 42.7173 176.335 40.584 177.743 38.408C179.151 36.1893 180.516 34.0773 181.839 32.072C183.161 30.0667 184.335 28.3173 185.359 26.824C186.383 25.3307 187.172 24.2427 187.727 23.56C188.452 22.7067 189.113 22.1093 189.711 21.768C190.351 21.4267 190.905 21.256 191.375 21.256C192.015 21.256 192.527 21.4907 192.911 21.96C193.337 22.4293 193.551 23.0907 193.551 23.944C193.551 24.456 193.444 25.032 193.231 25.672C193.06 26.2693 192.74 26.888 192.271 27.528C191.119 29.2773 189.732 31.3253 188.111 33.672C186.489 36.0187 184.804 38.4507 183.055 40.968C181.305 43.4853 179.599 45.9387 177.935 48.328C176.271 50.6747 174.82 52.744 173.583 54.536C171.407 57.7787 169.764 59.4 168.655 59.4ZM220.952 33.416C220.952 34.7813 220.525 36.1253 219.672 37.448C218.818 38.728 217.688 39.9653 216.28 41.16C214.872 42.312 213.314 43.4 211.608 44.424C209.901 45.448 208.194 46.344 206.488 47.112C204.781 47.88 203.224 48.4987 201.816 48.968C201.474 50.632 201.304 52.104 201.304 53.384C201.304 54.1947 201.496 54.7707 201.88 55.112C202.264 55.4533 202.861 55.624 203.672 55.624C205.464 55.624 207.362 55.304 209.368 54.664C211.373 54.024 213.421 53.192 215.512 52.168C217.602 51.144 219.608 50.056 221.528 48.904C223.448 47.752 225.197 46.664 226.776 45.64C228.397 44.616 229.741 43.784 230.808 43.144C231.874 42.504 232.578 42.184 232.92 42.184C233.432 42.184 233.816 42.3547 234.072 42.696C234.37 42.9947 234.52 43.3573 234.52 43.784C234.52 44.1253 233.986 44.7867 232.92 45.768C231.896 46.7493 230.509 47.9013 228.76 49.224C227.01 50.504 225.048 51.8267 222.872 53.192C220.696 54.5573 218.434 55.8373 216.088 57.032C213.784 58.2267 211.544 59.1867 209.368 59.912C207.234 60.6373 205.314 61 203.608 61C201.389 61 199.661 60.168 198.424 58.504C197.186 56.84 196.568 54.2587 196.568 50.76C196.568 48.4133 196.866 46.0453 197.464 43.656C198.104 41.2667 198.957 38.984 200.024 36.808C201.133 34.5893 202.349 32.6267 203.672 30.92C205.037 29.1707 206.466 27.8053 207.96 26.824C209.453 25.8 210.904 25.288 212.312 25.288C215 25.288 217.112 26.0347 218.648 27.528C220.184 29.0213 220.952 30.984 220.952 33.416ZM203.16 44.04C204.482 43.2293 205.848 42.376 207.256 41.48C208.664 40.584 209.965 39.6667 211.16 38.728C212.354 37.7893 213.314 36.808 214.04 35.784C214.808 34.7173 215.192 33.6293 215.192 32.52C215.192 30.9413 214.338 30.152 212.632 30.152C211.565 30.152 210.434 30.8347 209.24 32.2C208.088 33.5227 206.978 35.2507 205.912 37.384C204.845 39.5173 203.928 41.736 203.16 44.04ZM242.629 63.56C239.344 63.56 236.763 62.4933 234.885 60.36C233.051 58.184 232.133 55.1547 232.133 51.272C232.133 48.8827 232.453 46.088 233.093 42.888C233.776 39.6453 234.629 36.232 235.653 32.648C236.72 29.0213 237.872 25.4373 239.109 21.896C240.347 18.3547 241.541 15.0693 242.693 12.04C243.888 8.968 244.933 6.408 245.829 4.36C246.341 3.208 247.067 2.632 248.005 2.632C249.285 2.632 249.925 3.42133 249.925 5C249.925 5.512 249.691 6.55733 249.221 8.136C248.752 9.71466 248.133 11.6773 247.365 14.024C246.597 16.328 245.765 18.888 244.869 21.704C243.973 24.52 243.056 27.4213 242.117 30.408C241.221 33.352 240.389 36.2747 239.621 39.176C238.853 42.0347 238.235 44.7227 237.765 47.24C237.296 49.7573 237.061 51.912 237.061 53.704C237.061 54.856 237.36 55.7733 237.957 56.456C238.597 57.096 239.451 57.416 240.517 57.416C242.48 57.416 244.443 57.032 246.405 56.264C248.411 55.4533 250.331 54.472 252.165 53.32C254 52.1253 255.664 50.952 257.157 49.8C258.693 48.6053 259.995 47.624 261.061 46.856C262.128 46.0453 262.875 45.64 263.301 45.64C264.24 45.64 264.709 46.152 264.709 47.176C264.709 47.5173 264.368 48.1573 263.685 49.096C263.003 49.992 262.085 51.0587 260.933 52.296C259.781 53.5333 258.437 54.8133 256.901 56.136C255.408 57.416 253.829 58.632 252.165 59.784C250.544 60.8933 248.901 61.7893 247.237 62.472C245.616 63.1973 244.08 63.56 242.629 63.56ZM270.208 61.64C267.69 61.64 265.706 60.68 264.256 58.76C262.805 56.84 262.08 54.344 262.08 51.272C262.08 50.1627 262.229 48.9893 262.528 47.752C262.869 46.472 263.296 45.32 263.808 44.296C263.509 43.9973 263.274 43.592 263.104 43.08C262.933 42.5253 262.848 41.8427 262.848 41.032C262.848 38.5147 263.274 36.2107 264.128 34.12C264.981 32.0293 266.112 30.216 267.52 28.68C268.928 27.1013 270.485 25.8853 272.192 25.032C273.941 24.1787 275.712 23.752 277.504 23.752C280.448 23.752 282.837 24.8187 284.672 26.952C286.506 29.0427 287.424 32.2427 287.424 36.552C287.424 38.8133 287.082 41.1173 286.4 43.464C285.76 45.8107 284.864 48.072 283.712 50.248C282.602 52.424 281.301 54.3653 279.808 56.072C278.357 57.7787 276.8 59.144 275.136 60.168C273.514 61.1493 271.872 61.64 270.208 61.64ZM268.032 42.12C268.288 42.4613 268.416 42.9093 268.416 43.464C268.416 44.104 268.288 44.744 268.032 45.384C267.818 46.024 267.584 46.8987 267.328 48.008C267.072 49.1173 266.944 50.696 266.944 52.744C266.944 54.792 267.754 55.816 269.376 55.816C271.168 55.816 272.832 55.112 274.368 53.704C275.904 52.2533 277.269 50.3973 278.464 48.136C279.658 45.8747 280.576 43.464 281.216 40.904C281.898 38.3013 282.24 35.848 282.24 33.544C282.24 32.0507 281.962 31.0053 281.408 30.408C280.853 29.768 279.85 29.448 278.4 29.448C276.906 29.448 275.349 29.96 273.728 30.984C272.149 31.9653 270.826 33.3093 269.76 35.016C268.693 36.7227 268.16 38.6427 268.16 40.776C268.16 41.2453 268.117 41.6933 268.032 42.12ZM296.195 80.008C295.469 80.008 294.893 79.752 294.467 79.24C294.083 78.728 293.891 77.7467 293.891 76.296C293.891 74.2053 294.04 71.7733 294.339 69C294.637 66.2267 295.043 63.2827 295.555 60.168C296.109 57.0533 296.707 53.9387 297.347 50.824C298.029 47.7093 298.733 44.744 299.459 41.928C300.227 39.112 300.973 36.616 301.699 34.44C302.424 32.2213 303.085 30.472 303.683 29.192C304.323 27.912 304.877 27.272 305.347 27.272C306.157 27.272 306.797 27.5067 307.267 27.976C307.779 28.4453 308.035 29.1493 308.035 30.088C308.035 31.2827 307.672 33.224 306.947 35.912C306.221 38.5573 305.283 42.0133 304.131 46.28C305.197 44.3173 306.349 42.2693 307.587 40.136C308.824 38.0027 310.125 35.9333 311.491 33.928C312.856 31.88 314.221 30.0453 315.587 28.424C316.995 26.8027 318.36 25.5013 319.683 24.52C321.005 23.5387 322.285 23.048 323.523 23.048C324.845 23.048 326.019 23.4747 327.043 24.328C328.067 25.1387 328.856 26.248 329.411 27.656C330.008 29.0213 330.307 30.5573 330.307 32.264C330.307 35.8053 329.709 39.24 328.515 42.568C327.32 45.8533 325.656 48.8187 323.523 51.464C321.432 54.0667 318.957 56.136 316.099 57.672C313.283 59.208 310.232 59.976 306.947 59.976C305.709 59.976 304.6 59.912 303.619 59.784C302.637 59.656 301.784 59.5067 301.059 59.336C300.547 62.152 300.056 65.0533 299.587 68.04C299.117 71.0267 298.648 74.2053 298.179 77.576C298.051 78.472 297.837 79.0907 297.539 79.432C297.24 79.816 296.792 80.008 296.195 80.008ZM324.675 27.912C323.779 27.912 322.712 28.424 321.475 29.448C320.28 30.472 318.979 31.8373 317.571 33.544C316.205 35.208 314.819 37.064 313.411 39.112C312.003 41.1173 310.637 43.1653 309.315 45.256C307.992 47.3467 306.776 49.288 305.667 51.08C304.6 52.872 303.725 54.3653 303.043 55.56C306.371 55.4747 309.293 54.8133 311.811 53.576C314.328 52.296 316.483 50.6747 318.275 48.712C320.067 46.7067 321.517 44.552 322.627 42.248C323.779 39.9013 324.611 37.64 325.123 35.464C325.635 33.2453 325.891 31.3253 325.891 29.704C325.891 28.5093 325.485 27.912 324.675 27.912ZM363.533 32.392C363.533 35.1227 362.231 37.768 359.629 40.328C357.026 42.888 353.058 45.2347 347.725 47.368C347.554 48.4347 347.469 49.3307 347.469 50.056C347.469 51.7627 347.682 53 348.109 53.768C348.578 54.536 349.346 54.92 350.413 54.92C351.991 54.92 353.762 54.4293 355.725 53.448C357.687 52.424 359.714 51.1227 361.805 49.544C363.895 47.9227 365.943 46.216 367.949 44.424C369.997 42.632 371.874 40.9467 373.581 39.368C375.287 37.7467 376.738 36.4453 377.933 35.464C379.127 34.44 379.938 33.928 380.365 33.928C380.962 33.928 381.453 34.2053 381.837 34.76C382.221 35.272 382.413 35.976 382.413 36.872C382.413 37.9813 382.349 39.2613 382.221 40.712C382.093 42.12 381.943 43.6133 381.773 45.192C382.882 42.0773 384.269 39.368 385.933 37.064C387.639 34.7173 389.453 32.776 391.373 31.24C393.293 29.704 395.17 28.552 397.005 27.784C398.839 27.016 400.418 26.632 401.741 26.632C402.978 26.632 403.895 26.8667 404.493 27.336C405.09 27.8053 405.389 28.36 405.389 29C405.389 29.5973 405.111 30.152 404.557 30.664C404.045 31.1333 402.85 31.752 400.973 32.52C398.797 33.3733 396.749 34.376 394.829 35.528C392.951 36.68 391.202 38.2587 389.581 40.264C387.959 42.2267 386.509 44.8507 385.229 48.136C383.949 51.4213 382.861 55.6453 381.965 60.808C381.794 61.832 381.495 62.5573 381.069 62.984C380.642 63.4533 380.13 63.688 379.533 63.688C379.106 63.688 378.679 63.496 378.253 63.112C377.826 62.7707 377.485 61.9387 377.229 60.616C376.973 59.2507 376.845 57.1173 376.845 54.216C376.845 52.2533 376.93 50.12 377.101 47.816C377.314 45.512 377.613 43.1013 377.997 40.584C376.034 42.7173 373.858 44.9573 371.469 47.304C369.079 49.608 366.605 51.7627 364.045 53.768C361.485 55.7307 358.967 57.3307 356.493 58.568C354.018 59.8053 351.714 60.424 349.581 60.424C347.319 60.424 345.506 59.6347 344.141 58.056C342.775 56.4773 342.093 54.1307 342.093 51.016C342.093 47.432 342.562 44.1467 343.501 41.16C344.439 38.1733 345.655 35.592 347.149 33.416C348.642 31.1973 350.242 29.4907 351.949 28.296C353.655 27.1013 355.298 26.504 356.877 26.504C359.01 26.504 360.653 27.0587 361.805 28.168C362.957 29.2347 363.533 30.6427 363.533 32.392ZM348.749 42.696C350.029 41.8 351.415 40.7973 352.909 39.688C354.445 38.5787 355.746 37.448 356.813 36.296C357.922 35.1013 358.477 34.0133 358.477 33.032C358.477 32.4347 358.327 32.008 358.029 31.752C357.73 31.496 357.218 31.368 356.493 31.368C355.341 31.368 354.274 31.944 353.293 33.096C352.311 34.2053 351.437 35.6347 350.669 37.384C349.901 39.0907 349.261 40.8613 348.749 42.696Z" fill="#333333"/>
</svg>
