<svg width="519" height="72" viewBox="0 0 519 72" fill="none" xmlns="http://www.w3.org/2000/svg">
<path d="M35.6176 71.44C17.2816 71.44 0.385637 58.672 0.385637 36.4C0.385637 14.128 17.5696 1.36 36.2896 1.36C50.8816 1.36 64.5136 7.31199 70.1776 23.056L69.9856 23.344C64.9936 23.152 56.6416 26.032 52.8016 29.296L52.5136 29.2C50.2096 22.384 43.6816 18.256 36.2896 18.256C25.6336 18.256 18.4336 26.128 18.4336 36.4C18.4336 46.768 25.9216 54.928 36.1936 54.928C44.6416 54.928 49.6336 50.8 52.0336 46.288H31.9696V30.736H71.2336C73.0576 56.848 57.4096 71.44 35.6176 71.44ZM100.85 71.536C85.5856 71.536 75.2176 60.208 75.2176 46.192C75.2176 32.368 85.7776 20.944 100.178 20.944C117.266 20.944 127.058 34.768 124.466 51.184H90.9616C92.4976 55.792 96.3376 58 101.138 58C106.61 58 109.97 54.64 110.93 51.664L111.218 51.568C113.618 54.832 119.858 58 123.986 58L124.082 58.288C119.954 67.12 111.122 71.536 100.85 71.536ZM91.1536 40.144H109.202C107.762 36.4 104.69 34.096 99.8896 34.096C95.7616 34.096 92.6896 36.304 91.1536 40.144ZM126.824 36.88V22.48H133.256V6.64H149.384V22.48H156.392V36.88H149.384V70H133.256V36.88H126.824ZM179.255 70V22.192L179.543 22.096C183.863 23.92 190.775 23.92 195.095 22.096L195.383 22.192V70H179.255ZM177.431 9.904C177.431 4.912 181.847 0.591995 187.319 0.591995C192.791 0.591995 197.207 4.912 197.207 9.904C197.207 14.896 192.791 19.216 187.319 19.216C181.847 19.216 177.431 14.896 177.431 9.904ZM202.542 33.424V22.48H218.286V29.68C221.262 24.016 227.406 21.328 232.974 21.328C243.438 21.328 250.926 28.624 250.926 38.704V70H234.798V44.56C234.798 39.376 231.342 36.208 226.734 36.208C222.126 36.208 218.67 39.088 218.67 44.656V70H202.542V33.424ZM273.543 36.88V22.48H279.975V6.64H296.103V22.48H303.111V36.88H296.103V70H279.975V36.88H273.543ZM331.753 71.536C316.969 71.536 305.449 60.4 305.449 46.192C305.449 32.08 316.969 20.848 331.753 20.848C346.537 20.848 358.057 32.08 358.057 46.192C358.057 60.4 346.537 71.536 331.753 71.536ZM321.577 46.192C321.577 51.856 325.993 56.464 331.753 56.464C337.513 56.464 341.929 51.856 341.929 46.192C341.929 40.528 337.609 35.92 331.753 35.92C325.897 35.92 321.577 40.528 321.577 46.192ZM380.57 71.152C370.49 71.152 363.002 63.856 363.002 53.584V22.48H379.13V47.728C379.13 53.104 382.394 56.176 386.906 56.176C391.322 56.176 394.682 53.2 394.682 47.728V22.48H410.81V58.96V70H395.066V62.608C391.898 68.848 385.754 71.152 380.57 71.152ZM441.788 71.536C426.908 71.536 415.868 60.208 415.868 46.192C415.868 32.272 426.908 20.848 441.788 20.848C453.212 20.848 461.756 25.36 465.788 35.056L465.692 35.344C461.276 35.248 454.268 38.32 451.388 41.584L451.1 41.488C449.084 37.648 445.916 35.92 441.788 35.92C435.74 35.92 431.996 40.624 431.996 46.192C431.996 51.76 435.74 56.56 441.788 56.56C445.916 56.56 449.276 54.832 451.388 50.416L451.676 50.32C454.652 53.488 461.66 56.368 466.076 56.176L466.172 56.464C461.468 67.312 452.828 71.536 441.788 71.536ZM469.955 70V2.8H486.083V29.392C489.059 23.92 494.915 21.328 500.387 21.328C510.851 21.328 518.339 28.624 518.339 38.704V70H502.211V44.56C502.211 39.376 498.755 36.208 494.147 36.208C489.347 36.208 486.083 39.088 486.083 44.656V70H469.955Z" fill="#333333"/>
</svg>
