<svg width="59" height="59" viewBox="0 0 59 59" fill="none" xmlns="http://www.w3.org/2000/svg">
<path d="M29.5003 4.91675C26.272 4.91675 23.0753 5.55261 20.0927 6.78804C17.1101 8.02347 14.4001 9.83426 12.1173 12.117C7.50701 16.7273 4.91699 22.9802 4.91699 29.5001C4.91699 40.3659 11.9724 49.5846 21.732 52.8542C22.9612 53.0509 23.3545 52.2888 23.3545 51.6251V47.4705C16.5449 48.9455 15.0945 44.1763 15.0945 44.1763C13.9637 41.3246 12.3657 40.5626 12.3657 40.5626C10.1287 39.0384 12.5378 39.0876 12.5378 39.0876C14.9962 39.2596 16.2991 41.6196 16.2991 41.6196C18.4378 45.3563 22.0516 44.2501 23.4528 43.6601C23.6741 42.0621 24.3132 40.9805 25.0016 40.3659C19.5441 39.7513 13.8162 37.6371 13.8162 28.2709C13.8162 25.5422 14.7503 23.3542 16.3482 21.6088C16.1024 20.9942 15.242 18.4376 16.5941 15.1188C16.5941 15.1188 18.6591 14.4551 23.3545 17.6263C25.2966 17.0855 27.4107 16.8151 29.5003 16.8151C31.5899 16.8151 33.7041 17.0855 35.6461 17.6263C40.3416 14.4551 42.4066 15.1188 42.4066 15.1188C43.7586 18.4376 42.8982 20.9942 42.6524 21.6088C44.2503 23.3542 45.1845 25.5422 45.1845 28.2709C45.1845 37.6617 39.432 39.7267 33.9499 40.3413C34.8349 41.1034 35.6461 42.603 35.6461 44.8892V51.6251C35.6461 52.2888 36.0395 53.0755 37.2932 52.8542C47.0528 49.5601 54.0836 40.3659 54.0836 29.5001C54.0836 26.2717 53.4478 23.075 52.2124 20.0924C50.9769 17.1099 49.1661 14.3998 46.8834 12.117C44.6006 9.83426 41.8905 8.02347 38.9079 6.78804C35.9254 5.55261 32.7286 4.91675 29.5003 4.91675Z" fill="#333333"/>
</svg>
