<svg width="164" height="29" viewBox="0 0 164 29" fill="none" xmlns="http://www.w3.org/2000/svg">
<path d="M6.80837 23.448C3.32037 23.448 0.888372 21.496 0.248372 18.488L0.280372 18.424C1.17637 18.52 2.61637 18.04 3.25637 17.4L3.32037 17.432C3.54437 18.776 4.66437 20.408 6.84037 20.408C9.01637 20.408 10.1044 18.872 10.1044 16.472V0.599998H13.2084V16.76C13.2084 20.792 10.7764 23.448 6.80837 23.448ZM22.9226 23.416C19.7546 23.416 17.2586 21.112 17.2586 17.816V7.736H20.2026V16.728C20.2026 19.096 21.4826 20.632 23.8506 20.632C26.0906 20.632 27.7546 18.936 27.7546 16.568V7.736H30.6986V19.608V23H27.8186V20.504C26.8586 22.456 24.9066 23.416 22.9226 23.416ZM34.6726 23V0.599998H37.6166V23H34.6726ZM41.4914 23V7.704L41.5554 7.672C42.3554 7.992 43.5714 7.992 44.3714 7.672L44.4354 7.704V23H41.4914ZM40.9154 3.448C40.9154 2.392 41.8434 1.464 42.9634 1.464C44.1154 1.464 45.0434 2.392 45.0434 3.448C45.0434 4.504 44.1154 5.432 42.9634 5.432C41.8434 5.432 40.9154 4.504 40.9154 3.448ZM54.7101 23.384C50.3901 23.384 47.3821 19.832 47.3821 15.352C47.3821 10.904 50.3901 7.352 54.7101 7.352C56.9501 7.352 59.2541 8.472 60.2781 10.552V7.736H63.1261V19.608V23H60.2781V20.152C59.2221 22.264 56.9181 23.384 54.7101 23.384ZM50.3581 15.352C50.3581 18.296 52.4061 20.632 55.3181 20.632C58.2621 20.632 60.2781 18.296 60.2781 15.352C60.2781 12.472 58.2621 10.104 55.3181 10.104C52.3741 10.104 50.3581 12.44 50.3581 15.352ZM74.2059 23V0.599998H81.5979C87.8699 0.599998 92.9579 5.272 92.9579 11.8C92.9579 18.328 87.8699 23 81.5979 23H74.2059ZM77.3099 20.056H81.3419C86.3659 20.056 89.7579 16.44 89.7579 11.8C89.7579 7.128 86.3339 3.544 81.3419 3.544H77.3099V20.056ZM102.221 18.488L106.701 7.736H109.933L100.877 28.28H97.7094L100.525 21.912L94.4454 7.736H97.7094L102.093 18.488H102.221ZM112.116 11.704V7.736H114.964V10.36C115.636 8.664 117.044 7.48 118.996 7.48C120.34 7.48 121.268 7.896 121.812 8.504L121.844 8.536C121.14 8.984 120.468 10.168 120.404 10.968L120.34 11C120.02 10.712 119.348 10.488 118.58 10.488C115.924 10.488 115.06 13.112 115.06 15.928V23H112.116V11.704ZM134.809 23L134.777 20.28C133.721 22.264 131.481 23.416 129.241 23.416C124.921 23.416 121.913 19.864 121.913 15.352C121.913 10.904 124.921 7.352 129.241 7.352C131.449 7.352 133.593 8.408 134.713 10.36V0.183998H137.657V19.608V23H134.809ZM124.889 15.352C124.889 18.296 126.969 20.632 129.849 20.632C132.761 20.632 134.809 18.296 134.809 15.352C134.809 12.44 132.793 10.104 129.849 10.104C126.905 10.104 124.889 12.44 124.889 15.352ZM147.935 23.384C143.615 23.384 140.607 19.832 140.607 15.352C140.607 10.904 143.615 7.352 147.935 7.352C150.175 7.352 152.479 8.472 153.503 10.552V7.736H156.351V19.608V23H153.503V20.152C152.447 22.264 150.143 23.384 147.935 23.384ZM143.583 15.352C143.583 18.296 145.631 20.632 148.543 20.632C151.487 20.632 153.503 18.296 153.503 15.352C153.503 12.472 151.487 10.104 148.543 10.104C145.599 10.104 143.583 12.44 143.583 15.352ZM160.229 23V0.599998H163.173V23H160.229Z" fill="black"/>
</svg>
