<svg width="48" height="48" viewBox="0 0 48 48" fill="none" xmlns="http://www.w3.org/2000/svg">
<path d="M41.5 1.5C42.8261 1.5 44.0979 2.02678 45.0355 2.96447C45.9732 3.90215 46.5 5.17392 46.5 6.5V41.5C46.5 42.8261 45.9732 44.0979 45.0355 45.0355C44.0979 45.9732 42.8261 46.5 41.5 46.5H6.5C5.17392 46.5 3.90215 45.9732 2.96447 45.0355C2.02678 44.0979 1.5 42.8261 1.5 41.5V6.5C1.5 5.17392 2.02678 3.90215 2.96447 2.96447C3.90215 2.02678 5.17392 1.5 6.5 1.5H41.5ZM40.25 40.25V27C40.25 24.8385 39.3913 22.7655 37.8629 21.2371C36.3345 19.7087 34.2615 18.85 32.1 18.85C29.975 18.85 27.5 20.15 26.3 22.1V19.325H19.325V40.25H26.3V27.925C26.3 26 27.85 24.425 29.775 24.425C30.7033 24.425 31.5935 24.7937 32.2499 25.4501C32.9063 26.1065 33.275 26.9967 33.275 27.925V40.25H40.25ZM11.2 15.4C12.3139 15.4 13.3822 14.9575 14.1698 14.1698C14.9575 13.3822 15.4 12.3139 15.4 11.2C15.4 8.875 13.525 6.975 11.2 6.975C10.0795 6.975 9.00481 7.42013 8.21247 8.21247C7.42013 9.00481 6.975 10.0795 6.975 11.2C6.975 13.525 8.875 15.4 11.2 15.4ZM14.675 40.25V19.325H7.75V40.25H14.675Z" fill="white" stroke="#333333" stroke-width="2"/>
</svg>
