<svg width="67" height="45" viewBox="0 0 67 45" fill="none" xmlns="http://www.w3.org/2000/svg">
<g clip-path="url(#clip0_69_733)">
<path d="M36.8955 0.126654C30.1659 -0.603872 23.5977 1.97199 18.098 5.64364C12.679 9.26583 7.97094 13.942 4.32751 19.322C2.4789 22.0538 0.849346 25.052 0.242107 28.3166C-0.322855 31.3376 0.0268834 34.5869 1.69487 37.2237C3.36285 39.8604 5.98397 41.4013 8.7396 42.4401C11.9833 43.6652 15.4653 44.2093 18.9281 44.2816C25.7653 44.4224 32.6679 42.9119 39.09 40.6746C45.5121 38.4374 51.2924 35.3897 56.6499 31.505C61.577 27.9361 66.5003 23.1801 66.9538 16.7918C67.1613 13.8659 66.3696 10.9171 64.3403 8.72174C62.3111 6.52636 59.5593 5.36589 56.7845 4.57829C49.928 2.63403 42.5336 2.72915 35.5426 3.81353C28.5517 4.8979 21.188 7.21503 14.2547 9.68817C12.5752 10.2855 10.9034 10.9019 9.23154 11.5145C9.02016 11.5906 8.63968 11.8493 8.83568 12.1042C9.03169 12.3592 9.58512 12.2032 9.81572 12.1194C16.3839 9.72241 22.979 7.32918 29.8008 5.73496C36.6226 4.14074 43.4982 3.3988 50.3585 4.30054C55.8928 5.02726 62.926 6.74704 64.9168 12.6597C65.8277 15.365 65.5625 18.3517 64.544 20.9885C63.4679 23.7774 61.4963 26.1592 59.3018 28.1682C57.1073 30.1771 54.4785 32.0377 51.8651 33.6699C49.2516 35.3022 46.4076 36.8165 43.5213 38.0873C37.7103 40.648 31.488 42.4325 25.1619 43.1554C21.8029 43.5397 18.3824 43.5853 15.0387 43.0488C12.0025 42.5618 8.92408 41.641 6.34908 39.9251C3.8471 38.2624 2.1599 35.8045 1.64106 32.8557C1.12222 29.907 1.78711 26.6957 3.05155 23.8954C4.34289 21.0303 6.19919 18.386 8.17464 15.9433C10.1501 13.5006 12.3292 11.29 14.7159 9.27725C19.4508 5.27838 25.1504 1.78556 31.4188 0.9523C32.9484 0.74684 34.505 0.712596 36.0384 0.880008C36.3728 0.914252 36.7763 0.860984 37.03 0.617476C37.2183 0.434844 37.2145 0.160897 36.8955 0.126654Z" fill="black"/>
</g>
<g clip-path="url(#clip1_69_733)">
<path d="M23.0309 11.8196C21.3294 17.1858 19.7065 22.5717 18.1621 27.9837C17.8741 28.9915 17.8545 29.8815 18.9736 30.2741C19.9944 30.6275 21.2247 30.4443 22.2718 30.3134C24.7389 29.9993 27.1145 29.2401 29.4834 28.5072C30.7661 28.108 32.0553 27.7219 33.3641 27.4209C34.6729 27.1198 36.0145 27.0544 37.3691 26.9562C37.8207 26.9235 38.6191 26.6487 38.7958 26.1709C38.9724 25.6932 38.4489 25.5427 38.0497 25.5034C35.2161 25.2286 32.1993 26.2102 29.5293 27.0413C26.8592 27.8724 24.2023 28.8606 21.4276 28.9653C20.8255 28.9849 20.518 28.9064 20.5965 28.2127C20.6881 27.4143 21.0546 26.5636 21.2705 25.7914C21.7155 24.2339 22.1605 22.6764 22.6186 21.1254C23.561 17.9122 24.5361 14.7121 25.5242 11.5121C25.7925 10.6417 23.2992 10.9885 23.0309 11.8262V11.8196Z" fill="#333333"/>
<path d="M29.5438 24.3305C28.7258 28.5907 28.0779 32.9753 28.0518 37.3206C28.0518 38.4004 30.6105 37.8703 30.689 36.9868C31.0882 32.6219 31.4874 28.2897 32.312 23.9836C32.5149 22.9366 29.7205 23.3816 29.5438 24.3305Z" fill="#333333"/>
</g>
<defs>
<clipPath id="clip0_69_733">
<rect width="67" height="44.2881" fill="white"/>
</clipPath>
<clipPath id="clip1_69_733">
<rect width="20.83" height="26.9226" fill="white" transform="translate(18 11)"/>
</clipPath>
</defs>
</svg>
