<svg width="67" height="45" viewBox="0 0 67 45" fill="none" xmlns="http://www.w3.org/2000/svg">
<g clip-path="url(#clip0_69_734)">
<path d="M36.8955 0.126654C30.1659 -0.603872 23.5977 1.97199 18.098 5.64364C12.679 9.26583 7.97094 13.942 4.32751 19.322C2.4789 22.0538 0.849346 25.052 0.242107 28.3166C-0.322855 31.3376 0.0268834 34.5869 1.69487 37.2237C3.36285 39.8604 5.98397 41.4013 8.7396 42.4401C11.9833 43.6652 15.4653 44.2093 18.9281 44.2816C25.7653 44.4224 32.6679 42.9119 39.09 40.6746C45.5121 38.4374 51.2924 35.3897 56.6499 31.505C61.577 27.9361 66.5003 23.1801 66.9538 16.7918C67.1613 13.8659 66.3696 10.9171 64.3403 8.72174C62.3111 6.52636 59.5593 5.36589 56.7845 4.57829C49.928 2.63403 42.5336 2.72915 35.5426 3.81353C28.5517 4.8979 21.188 7.21503 14.2547 9.68817C12.5752 10.2855 10.9034 10.9019 9.23154 11.5145C9.02016 11.5906 8.63968 11.8493 8.83568 12.1042C9.03169 12.3592 9.58512 12.2032 9.81572 12.1194C16.3839 9.72241 22.979 7.32918 29.8008 5.73496C36.6226 4.14074 43.4982 3.3988 50.3585 4.30054C55.8928 5.02726 62.926 6.74704 64.9168 12.6597C65.8277 15.365 65.5625 18.3517 64.544 20.9885C63.4679 23.7774 61.4963 26.1592 59.3018 28.1682C57.1073 30.1771 54.4785 32.0377 51.8651 33.6699C49.2516 35.3022 46.4076 36.8165 43.5213 38.0873C37.7103 40.648 31.488 42.4325 25.1619 43.1554C21.8029 43.5397 18.3824 43.5853 15.0387 43.0488C12.0025 42.5618 8.92408 41.641 6.34908 39.9251C3.8471 38.2624 2.1599 35.8045 1.64106 32.8557C1.12222 29.907 1.78711 26.6957 3.05155 23.8954C4.34289 21.0303 6.19919 18.386 8.17464 15.9433C10.1501 13.5006 12.3292 11.29 14.7159 9.27725C19.4508 5.27838 25.1504 1.78556 31.4188 0.9523C32.9484 0.74684 34.505 0.712596 36.0384 0.880008C36.3728 0.914252 36.7763 0.860984 37.03 0.617476C37.2183 0.434844 37.2145 0.160897 36.8955 0.126654Z" fill="black"/>
</g>
<g clip-path="url(#clip1_69_734)">
<path d="M18.9266 15.8114C20.2176 14.341 21.8672 12.5241 23.9591 12.3627C25.7821 12.2252 27.2404 13.4983 27.8441 15.13C29.1291 18.6085 27.6468 22.7505 25.9136 25.8047C24.9453 27.5081 23.7559 29.086 22.3513 30.4487C21.6461 31.136 20.899 31.7815 20.104 32.3493C19.5004 32.7797 18.6517 33.6762 17.9823 32.9829C17.4204 32.4091 17.3487 31.4229 17.7551 30.7475C18.2572 29.9108 19.1358 29.7614 20.0443 29.8032C21.2397 29.857 22.441 30.1319 23.6184 30.3232C24.7959 30.5144 26.0929 30.7236 27.3301 30.9268C32.3506 31.7397 37.8195 32.959 42.6428 30.6818C42.9715 30.5264 43.623 30.1439 43.2883 29.7076C42.9775 29.3011 42.0451 29.5223 41.6865 29.6837C39.3017 30.7356 36.66 30.6818 34.1198 30.377C31.2569 30.0303 28.4179 29.4984 25.5729 29.0382C22.7279 28.5779 19.6558 27.7711 17.008 29.2772C16.0936 29.7972 15.1851 30.6818 15.0357 31.7756C14.9102 32.702 15.2508 33.6882 16.0278 34.2321C18.2333 35.7801 21.1978 33.5029 22.8833 32.1461C24.7361 30.6519 26.3499 28.8349 27.6349 26.8327C29.8404 23.3781 31.9382 18.2678 30.187 14.1976C29.1291 11.7889 26.7204 10.7489 24.1683 11.0478C21.0305 11.4184 18.6995 13.4804 16.7092 15.7635C16.3267 16.1998 17.0319 16.4509 17.3547 16.4628C17.9344 16.4867 18.5441 16.2477 18.9266 15.8114Z" fill="black"/>
</g>
<defs>
<clipPath id="clip0_69_734">
<rect width="67" height="44.2881" fill="white"/>
</clipPath>
<clipPath id="clip1_69_734">
<rect width="28.3721" height="23.77" fill="white" transform="translate(15 11)"/>
</clipPath>
</defs>
</svg>
