<svg width="62" height="73" viewBox="0 0 62 73" fill="none" xmlns="http://www.w3.org/2000/svg">
<g clip-path="url(#clip0_127_761)">
<path d="M16.0566 27.2172C27.8095 20.5605 39.5625 13.9037 51.3154 7.24699C54.6478 5.3568 57.9951 3.48156 61.3051 1.54655C61.7609 1.28506 62.1344 0.739671 61.5666 0.388529C60.9987 0.0373883 59.9975 0.373587 59.467 0.66496C47.6244 7.17228 35.9238 13.956 24.1708 20.6128L14.1438 26.2908C13.6657 26.5598 13.2846 27.1425 13.8749 27.5011C14.4651 27.8597 15.5186 27.5235 16.0715 27.2097L16.0566 27.2172Z" fill="#333333"/>
<path d="M59.1084 1.21787C58.9066 16.8399 58.5555 32.462 58.0474 48.0765C57.9054 52.5368 57.7411 56.997 57.5767 61.4573C57.5319 62.6377 60.4234 62.0549 60.4608 61.0986C61.0585 45.4841 61.4993 29.8695 61.7907 14.2474C61.8729 9.78721 61.9402 5.31949 61.9999 0.859255C62.0149 -0.328648 59.1233 0.269039 59.1159 1.21787H59.1084Z" fill="#333333"/>
<path d="M13.7331 27.1724C26.0016 35.4728 37.1494 45.26 48.4466 54.8005C51.6146 57.4752 54.805 60.1349 58.0327 62.7423C58.5483 63.1607 59.3776 63.0187 59.9455 62.7722C60.2294 62.6526 61.2306 62.0325 60.7151 61.6142C49.1041 52.2305 38.046 42.1595 26.181 33.0896C22.8635 30.5569 19.4863 28.1063 16.027 25.7679C15.2499 25.2449 12.5825 26.388 13.7331 27.165V27.1724Z" fill="#333333"/>
<path d="M58.9144 0.791829C50.4639 10.1606 42.1629 19.6638 34.0113 29.2866C31.6876 32.0284 29.3788 34.7853 27.0776 37.5496C26.6293 38.0875 27.4586 38.3789 27.8621 38.4013C28.5495 38.4386 29.3265 38.1473 29.7674 37.6168C37.8368 27.9193 46.0482 18.3414 54.4164 8.89796C56.7999 6.20837 59.1983 3.52625 61.6042 0.851597C62.0824 0.32115 61.2007 0.0223067 60.8197 -0.000106608C60.1099 -0.037462 59.3851 0.268853 58.9144 0.784358V0.791829Z" fill="#333333"/>
<path d="M55.5745 2.6971C50.6283 13.8514 45.9062 25.1178 41.4381 36.4739C40.1679 39.6939 38.9202 42.9214 37.6873 46.1564C37.4483 46.7765 38.6138 46.8064 38.9351 46.7765C39.5403 46.7093 40.3398 46.4179 40.5789 45.7978C44.9199 34.3895 49.4926 23.0708 54.3118 11.8567C55.6792 8.67397 57.0614 5.50623 58.4661 2.33849C58.7351 1.72586 57.5097 1.68851 57.2183 1.71839C56.5832 1.7931 55.851 2.08448 55.5745 2.6971V2.6971Z" fill="#333333"/>
<path d="M37.3583 45.4766C35.3185 48.5024 33.1293 51.4086 30.9924 54.3672C30.6113 54.8902 31.3137 55.1591 31.7321 55.1741C32.3821 55.1965 33.1218 54.9425 33.5402 54.427C35.834 51.5879 37.9186 48.5622 39.9584 45.5364C40.3245 44.991 39.6446 44.7295 39.2038 44.7145C38.5911 44.6996 37.7244 44.9312 37.3583 45.4766V45.4766Z" fill="#333333"/>
<path d="M28.0115 38.648C28.6914 44.722 29.1995 50.8483 30.111 56.8998C30.253 57.8412 32.9278 57.1688 32.8531 56.1677C32.3899 50.0638 31.5232 43.9748 30.8358 37.8934C30.7312 36.9595 27.8919 37.5871 28.0115 38.648V38.648Z" fill="#333333"/>
<path d="M34.7587 55.7045C36.0214 54.5465 37.329 53.4408 38.6813 52.3874C40.0337 51.334 41.4234 50.4449 42.8356 49.4064C43.254 49.0926 43.1718 48.6145 42.7011 48.4576C42.1034 48.2559 41.3637 48.4576 40.8407 48.7639C39.294 49.6604 37.837 50.7811 36.4249 51.8719C35.0127 52.9626 33.7276 54.0609 32.45 55.2339C32.293 55.3758 32.0988 55.6224 32.166 55.854C32.2333 56.0856 32.5172 56.2051 32.7264 56.2499C33.3764 56.3919 34.2656 56.1603 34.7662 55.7045H34.7587Z" fill="#333333"/>
<path d="M37.3512 51.3786C38.2404 50.5269 39.137 49.6826 40.0261 48.8234C40.168 48.6815 40.3474 48.4723 40.2876 48.2482C40.2278 48.024 39.9663 47.9194 39.772 47.8821C39.4433 47.8223 39.0921 47.8447 38.7783 47.9419C38.4645 48.039 38.1283 48.1585 37.8892 48.3901C36.9851 49.2344 36.0885 50.0861 35.1919 50.9378C35.0425 51.0797 34.8632 51.2964 34.9229 51.5205C34.9827 51.7446 35.2517 51.8567 35.4459 51.8941C35.7747 51.9538 36.1333 51.9314 36.4546 51.8343C36.7759 51.7372 37.1121 51.6102 37.3512 51.3786V51.3786Z" fill="#333333"/>
<path d="M33.9666 52.7758L33.6976 52.9102C33.3987 53.0597 33.8919 52.8131 33.6528 52.9327L35.2517 53.7022C36.746 52.0735 38.3001 50.5045 39.8841 48.958C40.0261 48.8161 40.2054 48.6069 40.1457 48.3828C40.0859 48.1586 39.8244 48.054 39.6301 48.0167C39.0249 47.9046 38.203 48.0839 37.7398 48.5247C36.1334 50.0413 34.5942 51.6327 33.1073 53.2689C32.9878 53.4033 32.7636 53.6275 32.8458 53.8441C32.9131 54.0234 33.0625 54.1131 33.2418 54.1729C33.8246 54.3596 34.4971 54.1729 35.0126 53.8815C35.2143 53.7694 35.4161 53.6723 35.6103 53.5677C35.9765 53.3734 36.3949 52.7832 35.842 52.5292C35.2368 52.2603 34.512 52.4993 33.9591 52.7758H33.9666Z" fill="#333333"/>
<path d="M38.8824 50.3775C39.4652 49.4436 40.048 48.5097 40.6083 47.5609C40.713 47.3741 40.7578 47.1799 40.6083 47.0005C40.4589 46.8212 40.1003 46.7615 39.8761 46.7615C39.5175 46.7615 39.1439 46.8212 38.8151 46.9707C38.5462 47.0902 38.2548 47.2471 38.0904 47.5011C37.4852 48.4275 36.9099 49.3764 36.3271 50.3177C36.215 50.5045 36.1776 50.7062 36.3271 50.8855C36.4765 51.0648 36.8426 51.1246 37.0668 51.1246C37.4329 51.1246 37.8139 51.0648 38.1427 50.9079C38.4117 50.7884 38.718 50.6315 38.8824 50.37V50.3775Z" fill="#333333"/>
<path d="M38.4862 48.6069C38.8896 49.0999 39.2931 49.593 39.7115 50.0787C39.7937 50.1608 39.8983 50.2206 40.0178 50.243C40.1523 50.2953 40.2943 50.3177 40.4437 50.3177C40.6231 50.3177 40.7949 50.3028 40.9668 50.2654C41.1535 50.2356 41.3329 50.1833 41.5047 50.1085L41.8111 49.9517C41.9754 49.8545 42.1174 49.735 42.2295 49.5781L42.3191 49.3838C42.349 49.2494 42.3191 49.1298 42.222 49.0252C41.8335 48.5247 41.43 48.0316 41.034 47.546C40.9443 47.4563 40.8472 47.404 40.7277 47.3816C40.5932 47.3293 40.4437 47.3069 40.2943 47.3069C40.115 47.3069 39.9357 47.3218 39.7638 47.3592C39.577 47.3891 39.3977 47.4414 39.2184 47.5161L38.912 47.673C38.7477 47.7701 38.6057 47.8971 38.4862 48.0465L38.389 48.2482C38.3591 48.3902 38.389 48.5097 38.4862 48.6143V48.6069Z" fill="#333333"/>
<path d="M3.73628 37.5423L0.269419 41.0089C0.127457 41.1509 -0.0518635 41.3526 0.00790996 41.5767C0.0676834 41.7859 0.329192 41.9054 0.515984 41.9353C0.837266 41.9951 1.18096 41.9727 1.49477 41.8756C1.80858 41.7784 2.14481 41.6664 2.36896 41.4348L5.84329 37.9682C5.98525 37.8262 6.16457 37.6245 6.1048 37.4004C6.04503 37.1912 5.78352 37.0716 5.59673 37.0418C5.27544 36.982 4.93175 37.0044 4.61794 37.1015C4.30413 37.1987 3.9679 37.3107 3.74375 37.5423H3.73628Z" fill="#333333"/>
<path d="M14.7487 43.661L8.42762 49.989C8.28566 50.131 8.10634 50.3327 8.16611 50.5643C8.22589 50.7735 8.4874 50.893 8.68166 50.9304C9.27192 51.0424 10.1162 50.8706 10.5571 50.4298L16.8856 44.1018C17.0275 43.9598 17.2068 43.7506 17.1471 43.5265C17.0873 43.3099 16.8258 43.1978 16.6315 43.1604C16.0413 43.0484 15.1895 43.2202 14.7487 43.6685V43.661Z" fill="#333333"/>
<path d="M36.9846 59.5819C35.012 61.756 33.0395 63.9375 31.0745 66.1116C30.9325 66.261 30.7457 66.4553 30.813 66.6869C30.8727 66.9036 31.1417 67.0156 31.3285 67.053C31.8964 67.1576 32.8004 67.0007 33.2188 66.5449C35.1988 64.3709 37.1714 62.1893 39.1439 60.0152C39.2859 59.8583 39.4726 59.6715 39.4129 59.4325C39.3531 59.2158 39.0841 59.0963 38.8899 59.0589C38.3145 58.9543 37.403 59.1112 36.9846 59.567V59.5819Z" fill="#333333"/>
<path d="M55.9483 66.306C53.9758 68.2111 52.0108 70.1162 50.0382 72.0213C49.8963 72.1633 49.7095 72.3725 49.7693 72.5966C49.829 72.8207 50.098 72.9328 50.2923 72.9627C50.8975 73.0748 51.7268 72.8955 52.1901 72.4547C54.1701 70.5495 56.1426 68.6444 58.1151 66.7393C58.2646 66.5973 58.4439 66.3807 58.3841 66.1565C58.3243 65.9324 58.0554 65.8203 57.8611 65.783C57.2484 65.6709 56.4116 65.8502 55.9483 66.2985V66.306Z" fill="#333333"/>
</g>
<defs>
<clipPath id="clip0_127_761">
<rect width="62" height="73" fill="white"/>
</clipPath>
</defs>
</svg>
