<svg width="351" height="86" viewBox="0 0 351 86" fill="none" xmlns="http://www.w3.org/2000/svg">
<path d="M0.291369 70V2.8H28.2274C41.9554 2.8 52.3234 12.976 52.3234 26.032C52.3234 39.088 42.0514 49.36 28.2274 49.36H17.5714V70H0.291369ZM17.5714 33.808H26.3074C31.0114 33.808 34.7554 31.216 34.7554 26.032C34.7554 20.848 30.9154 18.352 26.3074 18.352H17.5714V33.808ZM57.3109 37.264V22.48H73.0549V30.352C75.1669 25.264 79.2949 21.52 85.5349 21.52C89.8549 21.52 93.4069 22.768 95.7109 25.552L95.8069 25.84C92.2549 28.432 88.5109 35.056 88.2229 39.472L87.9349 39.568C86.7829 38.704 84.7669 38.224 82.6549 38.224C75.4549 38.224 73.4389 44.464 73.4389 51.664V70H57.3109V37.264ZM118.947 71.536C104.163 71.536 92.6426 60.4 92.6426 46.192C92.6426 32.08 104.163 20.848 118.947 20.848C133.731 20.848 145.251 32.08 145.251 46.192C145.251 60.4 133.731 71.536 118.947 71.536ZM108.771 46.192C108.771 51.856 113.187 56.464 118.947 56.464C124.707 56.464 129.123 51.856 129.123 46.192C129.123 40.528 124.803 35.92 118.947 35.92C113.091 35.92 108.771 40.528 108.771 46.192ZM150.292 85.84V22.192L150.484 22.096C154.804 23.92 161.908 23.92 166.228 22.096L166.42 22.192V85.84H150.292ZM148.468 9.904C148.468 4.912 152.884 0.591995 158.356 0.591995C163.828 0.591995 168.244 4.912 168.244 9.904C168.244 14.896 163.828 19.216 158.356 19.216C152.884 19.216 148.468 14.896 148.468 9.904ZM197.1 71.536C181.836 71.536 171.468 60.208 171.468 46.192C171.468 32.368 182.028 20.944 196.428 20.944C213.516 20.944 223.308 34.768 220.716 51.184H187.212C188.748 55.792 192.588 58 197.388 58C202.86 58 206.22 54.64 207.18 51.664L207.468 51.568C209.868 54.832 216.108 58 220.236 58L220.332 58.288C216.204 67.12 207.372 71.536 197.1 71.536ZM187.404 40.144H205.452C204.012 36.4 200.94 34.096 196.14 34.096C192.012 34.096 188.94 36.304 187.404 40.144ZM250.675 71.536C235.795 71.536 224.755 60.208 224.755 46.192C224.755 32.272 235.795 20.848 250.675 20.848C262.099 20.848 270.643 25.36 274.675 35.056L274.579 35.344C270.163 35.248 263.155 38.32 260.275 41.584L259.987 41.488C257.971 37.648 254.803 35.92 250.675 35.92C244.627 35.92 240.883 40.624 240.883 46.192C240.883 51.76 244.627 56.56 250.675 56.56C254.803 56.56 258.163 54.832 260.275 50.416L260.563 50.32C263.539 53.488 270.547 56.368 274.963 56.176L275.059 56.464C270.355 67.312 261.715 71.536 250.675 71.536ZM277.393 36.88V22.48H283.825V6.64H299.953V22.48H306.961V36.88H299.953V70H283.825V36.88H277.393ZM330.78 71.536C319.836 71.536 311.196 66.16 309.18 56.944L309.276 56.656C313.212 57.04 319.548 54.448 322.044 51.472L322.332 51.568C323.1 55.696 326.748 58.288 330.876 58.288C334.14 58.288 335.388 56.944 335.388 55.408C335.388 53.968 334.14 53.296 331.452 52.816L326.364 51.952C315.804 50.128 310.908 44.848 310.908 37.168C310.908 28.144 318.684 20.848 330.78 20.848C342.396 20.848 349.02 27.28 350.844 34.192L350.748 34.48C346.812 34.096 340.476 36.592 337.884 39.568L337.596 39.472C337.02 35.44 334.14 33.424 330.588 33.424C327.9 33.424 326.364 34.864 326.364 36.208C326.364 37.936 328.572 38.416 330.78 38.8L335.772 39.568C343.548 40.72 350.94 45.04 350.94 54.64C350.94 64.624 342.78 71.536 330.78 71.536Z" fill="#333333"/>
</svg>
