<svg width="622" height="621" viewBox="0 0 622 621" fill="none" xmlns="http://www.w3.org/2000/svg">
<path d="M328.569 582.563C334.084 572.805 385.561 469.85 433.503 421.908C440.999 414.412 433.786 403.523 424.169 404.372C410.593 405.503 391.926 408.332 376.511 411.867L364.348 414.695C375.945 335.782 370.147 354.309 385.986 174.705C397.441 44.7383 404.371 60.1532 335.64 60.7189C304.669 60.8603 278.082 60.2946 276.243 59.3047C271.859 56.9005 249.232 60.0119 249.515 95.0844C250.222 260.688 241.453 360.53 251.776 405.644C251.776 405.927 174.703 418.515 174.42 418.515C174.137 418.515 144.863 420.353 183.047 465.325C198.462 483.568 288.971 605.756 289.82 609.15C295.052 625.979 310.184 615.655 328.569 582.563ZM360.389 86.0336C362.934 86.3164 363.218 91.6899 361.662 110.216C359.258 138.642 361.519 138.358 331.396 114.175C318.103 103.427 304.809 93.2447 301.98 91.2648C297.313 88.2949 341.721 84.3365 360.389 86.0336ZM281.333 121.811C280.626 99.3252 280.345 99.6098 291.375 108.378C306.083 119.974 356.711 155.894 357.418 158.864C358.125 161.551 354.165 198.32 353.882 201.997C305.375 157.45 304.952 157.875 282.183 140.198L281.333 121.811ZM279.636 181.208C280.06 169.47 280.769 159.431 281.193 159.007C283.597 156.32 351.055 220.667 351.197 220.808L349.922 241.03C348.225 266.203 348.508 266.203 334.649 252.344C321.214 238.909 293.78 215.434 278.789 202.706L279.636 181.208ZM279.072 226.182C308.771 253.052 311.173 254.889 346.67 289.82C345.822 300.285 344.124 324.892 342.852 326.165C341.296 327.721 292.789 276.95 283.738 272.142C276.242 268.041 277.375 269.457 279.072 226.182ZM276.244 321.5C276.102 288.831 271.01 293.921 330.548 341.297C343.277 351.48 342.711 349.501 340.449 374.674L338.468 395.887L276.242 343.277L276.244 321.5ZM281.192 390.653C280.485 384.855 280.769 380.614 281.618 380.897C284.305 382.452 327.579 415.544 331.963 417.382C332.528 417.665 332.811 419.645 332.811 422.191C333.094 431.807 340.165 439.727 349.64 441C351.762 441.141 367.884 433.505 393.057 430.676C396.876 430.252 400.128 430.394 400.128 430.959C400.128 433.788 365.904 475.365 365.762 475.506C349.923 462.779 317.962 435.909 308.911 428.272C283.315 406.352 282.465 402.391 281.192 390.653ZM263.091 429.121L272.566 425.868L300.709 448.919C339.6 480.739 355.015 490.497 355.156 492.053C355.297 493.043 342.852 511.993 339.458 516.236C337.62 518.64 331.68 511.004 287.84 468.295C248.808 430.111 250.788 433.222 263.091 429.121ZM225.473 462.214C208.927 442.273 206.946 438.595 203.835 433.787C216.987 432.231 216.847 431.243 221.089 438.879C230.706 456.133 315.558 525.994 327.579 537.732C317.113 559.228 307.073 580.866 304.386 578.179C304.103 577.896 254.888 497.568 225.473 462.214Z" fill="#333333"/>
</svg>
