<svg width="118" height="59" viewBox="0 0 118 59" fill="none" xmlns="http://www.w3.org/2000/svg">
<path fill-rule="evenodd" clip-rule="evenodd" d="M117.126 26.8935C117.363 16.1437 117.448 14.1268 117.651 12.6861C117.821 11.467 117.448 10.1815 116.787 9.78254C115.752 9.13977 116.007 9.71605 115.685 19.1359C115.6 21.6183 115.634 26.8048 115.549 29.0434C115.515 29.7305 114.498 30.0408 114.532 28.8883L114.667 7.74341L115.43 7.58826C116.312 7.41095 116.431 6.98982 115.803 6.05892C115.312 5.32749 114.684 5.15018 111.361 4.83987C68.8586 1.0276 69.0111 0.628635 40.5798 0.495649C31.5774 0.45132 24.1348 0.45132 24.05 0.495649C23.6431 0.695129 12.0298 0.584309 2.31532 1.42656C0.772532 1.55954 0.636903 1.73686 1.2981 2.73426C1.9593 3.73165 3.38344 3.84248 13.0301 3.53218C30.4924 3.00023 69.5706 3.44352 69.5706 4.17494C69.5706 4.37442 65.7221 4.46308 59.8222 4.39659C42.9703 4.19711 19.5742 5.5713 4.63801 7.61043C0.111371 8.23103 0.077457 8.2532 0.348716 9.31709C0.772558 10.9351 0.789518 20.0003 0.992962 22.9925C1.04382 23.6575 1.92542 50.2991 1.92542 51.0305C1.92542 52.8923 2.09493 54.0892 2.40009 54.3995C2.73916 54.732 3.55294 54.7763 3.63771 54.4438C3.67162 54.2887 3.84115 54.2887 4.18023 54.4438C5.12963 54.9093 10.7074 55.1531 17.082 55.0201C20.5236 54.9314 25.6776 54.9758 28.5258 55.1088C34.8834 55.3747 57.8726 55.9732 67.604 56.5716C70.4861 56.7489 88.813 57.7463 93.1193 58.0345C99.2734 58.4334 112.514 58.4113 112.718 57.9901C113.243 56.8597 111.158 55.818 108.361 55.7959C106.055 55.7959 105.987 54.3108 108.649 54.1779C108.835 54.1779 110.276 54.0892 114.701 54.333C114.701 54.333 114.701 54.9536 114.583 56.217C114.464 57.5247 115.532 59.5195 116.058 56.1505C116.091 55.8845 116.244 54.2887 116.244 54.2887C116.244 54.2887 117.109 54.1778 117.244 54.1114C117.736 53.8675 117.838 53.0475 117.38 52.2717C117.227 52.0279 116.566 51.7619 116.566 51.7619C116.566 51.7619 116.719 45.024 117.126 26.8935ZM113.328 13.3953C113.226 15.5675 112.073 47.2404 112.006 48.5481C111.904 50.7867 111.87 50.9418 111.548 50.9418C110.141 50.9418 100.935 49.1909 76.9454 50.0553C73.8599 50.1661 4.07852 51.7176 4.07852 51.7176C3.85812 51.7176 3.68859 51.496 3.68859 51.23C3.45124 43.7827 3.24777 42.0096 3.24777 39.0839C3.24777 38.8179 3.40037 38.6184 3.60382 38.6184C3.79031 38.6184 3.95983 38.8179 3.97678 39.0617C4.43453 50.3434 4.28197 50.7202 5.35005 50.7202C5.62131 50.7202 5.82477 50.4321 5.82477 50.0774C5.82477 47.8832 5.68914 45.0239 5.57046 42.8518C4.96013 30.8166 4.84144 22.1059 3.90899 10.0042C6.41813 9.91552 10.7752 9.8047 13.2844 9.40574C22.4224 7.98722 45.4794 7.76558 45.632 7.5661C45.8185 7.34445 64.6032 7.52177 72.0458 7.8099C76.6911 7.98722 105.614 9.09544 108.361 9.16194C114.294 9.29492 113.531 8.62999 113.328 13.3953Z" fill="#333333"/>
</svg>
