<svg width="88" height="56" viewBox="0 0 88 56" fill="none" xmlns="http://www.w3.org/2000/svg">
<g clip-path="url(#clip0_118_919)">
<path d="M25.232 3.3307C25.3106 7.36844 25.3106 11.4062 25.232 15.4439C25.232 15.9781 25.342 16.2766 25.8447 16.528C26.3946 16.8108 27.243 16.8265 27.84 16.7322C28.6256 16.6222 29.4583 16.4023 30.1338 15.9466C30.5423 15.6796 31.2808 15.2082 31.2808 14.6583C31.375 10.3378 31.375 6.00158 31.2808 1.68105C31.2808 1.20972 30.4166 0.911209 30.1024 0.848365C29.3954 0.691254 28.5156 0.78552 27.84 0.974053C26.7246 1.30398 25.1849 1.94814 25.2163 3.29928L25.232 3.3307Z" fill="black"/>
<path d="M43.0478 2.10519L42.875 13.9827C42.875 14.5169 42.985 14.8154 43.4877 15.0668C44.0376 15.3496 44.886 15.3653 45.483 15.271C46.2686 15.1611 47.1013 14.9411 47.7768 14.4855C48.1696 14.2184 48.9237 13.7471 48.9237 13.1972L49.0966 1.31964C49.0966 0.785466 48.9866 0.486956 48.4838 0.23558C47.9339 -0.0472186 47.0856 -0.0629297 46.4885 0.0313365C45.703 0.141314 44.8703 0.361268 44.1947 0.816888C43.8019 1.08398 43.0478 1.55531 43.0478 2.10519Z" fill="black"/>
<path d="M0.28234 38.7905C8.57777 48.2957 20.5967 53.5903 33.0241 54.7844C45.4516 55.9784 59.2301 52.302 70.3221 45.5777C76.6851 41.7128 82.3254 36.8267 87.2429 31.2493C88.3113 30.0238 86.3317 29.3325 85.4361 29.3011C83.8179 29.2225 82.1211 29.8981 81.0528 31.1079C73.6529 39.529 63.9592 46.3161 53.1185 49.4269C42.2779 52.5377 31.3431 51.705 21.3508 47.2588C15.5849 44.6979 10.4788 40.9901 6.31538 36.2454C4.83854 34.5643 -1.39874 36.8895 0.266629 38.7905H0.28234Z" fill="black"/>
</g>
<defs>
<clipPath id="clip0_118_919">
<rect width="87.5575" height="55.02" fill="white"/>
</clipPath>
</defs>
</svg>
