<svg width="666" height="41" viewBox="0 0 666 41" fill="none" xmlns="http://www.w3.org/2000/svg">
<path fill-rule="evenodd" clip-rule="evenodd" d="M220.475 3.59932C147.138 2.75499 73.5014 5.84061 2.51671 18.7972C1.25022 19.0274 0.724462 19.4803 0.62084 19.5839C0.0144608 20.198 -0.0508949 20.8504 0.0258619 21.3877C0.071916 21.7139 0.382916 23.0917 2.08308 23.2337C3.25746 23.3296 11.5931 22.658 14.8092 22.4853C29.9495 21.6755 45.0593 20.5204 60.1612 19.1848C94.4024 16.1682 128.597 13.5585 162.892 11.1829C182.147 9.84733 201.409 8.74199 220.66 7.83626C266.971 8.3774 313.167 10.4882 358.5 12.6681C340.481 13.7773 323.925 14.9018 310.197 15.6309C287.047 16.8591 263.939 18.3097 240.835 20.221C228.965 21.1996 217.11 22.2628 205.262 23.5177C203.95 23.6597 200.96 23.8055 199.513 23.9782C198.899 24.0473 198.454 24.1586 198.254 24.2354C197.003 24.719 196.846 25.7091 196.831 26.208C196.823 26.5112 196.926 28.1653 199.037 28.4877C297.182 43.6165 399.576 26.0161 498.074 40.7228C499.23 40.8955 500.312 40.0972 500.484 38.9381C500.657 37.783 499.859 36.7007 498.7 36.528C405.932 22.6772 309.705 37.4874 216.818 26.6148C224.935 25.8281 233.056 25.1181 241.184 24.4465C264.246 22.539 287.311 21.0922 310.423 19.8641C333.68 18.6321 365.12 16.2258 398.029 14.7099C426.272 16.2834 454.499 18.0488 482.746 19.5455C494.662 20.1749 506.583 20.6969 518.495 21.3378C523.393 21.5988 535.992 22.6926 537.819 22.2857C539.239 21.9672 539.58 20.9502 539.665 20.4398C539.753 19.8871 539.699 19.2001 539.055 18.5439C538.855 18.3366 538.257 17.9068 537.028 17.5537C503.812 8.03969 449.422 8.18936 398.482 10.4882C387.525 9.87417 376.568 9.29082 365.607 8.76504C340.515 7.55612 315.147 6.34334 289.633 5.38772C361.535 3.6108 433.472 4.12125 505.427 5.40693C535.639 5.94806 617.074 9.21024 649.147 12.0925C648.756 12.4954 648.525 13.0558 648.552 13.666C648.606 14.8327 649.6 15.7384 650.77 15.6847C657.387 15.3777 661.213 14.9862 662.729 14.5832C663.673 14.3338 664.188 13.9346 664.425 13.6737C665.009 13.0442 665.116 12.3688 665.001 11.7278C664.928 11.3287 664.748 10.8912 664.333 10.4882C664.057 10.2119 663.382 9.78976 662.23 9.50192C649.623 6.3664 541.476 1.81085 505.504 1.16609C410.445 -0.530234 315.424 -0.875606 220.475 3.59932ZM511.315 16.717C492.74 14.1956 470.964 13.309 448.248 13.3666C459.819 14.0382 471.394 14.6945 482.972 15.3086C492.417 15.8113 501.866 16.2411 511.315 16.717ZM132.865 9.07593C108.495 10.872 84.1514 12.814 59.7888 14.9632C56.9757 15.2088 54.1664 15.4506 51.3532 15.6885C78.2949 12.388 105.517 10.2887 132.865 9.07593Z" fill="#333333"/>
</svg>
