<svg width="723" height="122" viewBox="0 0 723 122" fill="none" xmlns="http://www.w3.org/2000/svg">
<path d="M667.357 30.684H665.857V32.184V51.896V95.544V97.044H667.357H688.861H690.361V95.544V71.096C690.361 66.3857 691.029 62.2203 692.708 59.2795C694.313 56.4675 696.887 54.676 701.149 54.676C703.821 54.676 706.127 55.2966 707.289 56.168L707.918 56.6396L708.663 56.391L709.047 56.263L710.004 55.944L710.07 54.9376C710.242 52.304 711.474 48.8479 713.306 45.5721C715.137 42.2985 717.441 39.4287 719.569 37.8757L720.455 37.2296L720.108 36.1897L719.98 35.8057L719.891 35.5397L719.713 35.3236C716.261 31.1534 711.023 29.404 704.989 29.404C698.246 29.404 693.215 32.4454 689.849 36.9701V32.184V30.684H688.349H667.357Z" fill="white" stroke="black" stroke-width="3"/>
<path d="M660.955 71.956H662.237L662.437 70.6899C664.22 59.3978 661.757 48.8863 655.79 41.1703C649.806 33.4343 640.395 28.636 628.571 28.636C608.498 28.636 593.791 44.5851 593.791 63.8C593.791 83.2901 608.261 99.092 629.467 99.092C643.588 99.092 655.991 92.9958 661.802 80.5631L662.055 80.0212L661.866 79.4537L661.738 79.0697L661.396 78.044H660.315C657.886 78.044 654.67 77.0918 651.615 75.5491C649.552 74.507 647.672 73.251 646.236 71.956H660.955ZM618.542 71.956H640.921C639.344 74.9712 635.629 78.044 629.851 78.044C626.877 78.044 624.293 77.3604 622.247 76.0428C620.736 75.0697 619.47 73.7216 618.542 71.956ZM638.211 54.236H618.953C620.95 50.956 624.116 49.172 628.187 49.172C631.143 49.172 633.462 49.8788 635.236 51.0756C636.432 51.8821 637.425 52.941 638.211 54.236Z" fill="white" stroke="black" stroke-width="3"/>
<path d="M524.982 30.684H523.482V32.184V46.776V95.544V97.044H524.982H546.486H547.986V95.544V61.752C547.986 58.358 549.031 55.9575 550.61 54.4056C552.195 52.8463 554.477 51.988 557.238 51.988C559.961 51.988 562.251 52.9185 563.857 54.5247C565.46 56.1272 566.49 58.5116 566.49 61.624V95.544V97.044H567.99H589.494H590.994V95.544V53.816C590.994 39.5046 580.295 29.148 565.558 29.148C559.175 29.148 552.171 31.6524 547.474 36.9799V32.184V30.684H545.974H524.982Z" fill="white" stroke="black" stroke-width="3"/>
<path d="M494.255 32.184V35.828C490.207 31.649 483.881 29.02 476.939 29.02C459.666 29.02 447.919 43.5894 447.919 61.368C447.919 74.9083 454.733 86.5871 465.612 91.3859C464.125 93.4037 461.697 95.5863 458.932 97.4527C455.773 99.5844 452.389 101.158 449.796 101.619L448.918 101.775L448.636 102.622L448.508 103.006L448.301 103.625L448.614 104.198C453.543 113.234 464.746 120.34 481.931 120.34C491.702 120.34 500.649 117.336 507.176 111.616C513.725 105.877 517.735 97.4895 517.735 86.968V32.184V30.684H516.235H495.755H494.255V32.184ZM482.315 98.652C476.437 98.652 472.43 95.9261 470.398 92.9797C472.472 93.4618 474.657 93.716 476.939 93.716C483.464 93.716 489.418 91.5033 493.487 87.8384V87.992C493.487 91.5996 492.43 94.2042 490.639 95.9155C488.838 97.6366 486.087 98.652 482.315 98.652ZM483.083 71.516C476.743 71.516 472.423 66.6836 472.423 61.368C472.423 56.0629 476.861 51.22 483.083 51.22C489.295 51.22 493.615 55.9244 493.615 61.368C493.615 66.8223 489.412 71.516 483.083 71.516Z" fill="white" stroke="black" stroke-width="3"/>
<path d="M420.357 95.544V97.044H421.857H443.361H444.861V95.544V31.8V30.7189L443.835 30.377L443.451 30.249L442.915 30.0701L442.394 30.2901C439.749 31.4067 436.216 31.996 432.609 31.996C429.002 31.996 425.469 31.4067 422.824 30.2901L422.303 30.0701L421.767 30.249L421.383 30.377L420.357 30.7189V31.8V95.544ZM432.609 1.5C424.553 1.5 417.925 7.86438 417.925 15.416C417.925 22.9676 424.553 29.332 432.609 29.332C440.665 29.332 447.293 22.9676 447.293 15.416C447.293 7.86438 440.665 1.5 432.609 1.5Z" fill="white" stroke="black" stroke-width="3"/>
<path d="M359.335 77.6616L359.204 78.0532L359.293 78.4565C362.18 91.6551 374.517 99.092 389.558 99.092C397.838 99.092 404.922 96.7062 409.963 92.4682C415.025 88.2133 417.938 82.1601 417.938 75.064C417.938 68.2263 415.283 63.1711 411.192 59.6545C408.452 57.2997 405.11 55.6676 401.572 54.613C403.116 53.363 405.205 52.1919 407.485 51.2911C410.567 50.0738 413.739 49.4528 416.036 49.6769L417.227 49.7931L417.605 48.6583L417.733 48.2743L417.875 47.8499L417.76 47.4173C415.143 37.4978 405.679 28.508 389.558 28.508C372.832 28.508 361.562 38.6945 361.562 51.768C361.562 57.2334 363.317 61.9572 367.033 65.6202C369.271 67.8263 372.171 69.6002 375.723 70.9324C374.196 72.2907 371.992 73.5936 369.553 74.5867C366.486 75.835 363.32 76.4823 361.032 76.2591L359.841 76.143L359.463 77.2776L359.335 77.6616ZM380.217 72.2991C381.242 72.5472 382.308 72.7669 383.415 72.9581L383.419 72.9588L390.19 74.1086C390.192 74.109 390.194 74.1093 390.196 74.1097C391.959 74.4248 393.021 74.7707 393.623 75.1493C393.899 75.3233 394.026 75.4729 394.09 75.5829C394.15 75.6863 394.202 75.8344 394.202 76.088C394.202 76.6624 393.992 77.1612 393.439 77.5664C392.831 78.0123 391.685 78.428 389.686 78.428C385.378 78.428 381.643 76.0671 380.217 72.2991ZM396.833 53.5453C396.701 53.5245 396.57 53.5043 396.438 53.4848C396.437 53.4846 396.435 53.4844 396.434 53.4842L389.801 52.4637C388.305 52.2033 387.034 51.9414 386.141 51.5272C385.287 51.1309 385.17 50.7997 385.17 50.488C385.17 49.9216 386.084 48.276 389.302 48.276C391.389 48.276 393.18 48.8661 394.514 49.9544C395.535 50.7868 396.356 51.9652 396.833 53.5453Z" fill="white" stroke="black" stroke-width="3"/>
<path d="M358.08 71.956H359.362L359.562 70.6899C361.345 59.3978 358.882 48.8863 352.915 41.1703C346.931 33.4343 337.52 28.636 325.696 28.636C305.623 28.636 290.916 44.585 290.916 63.8C290.916 83.2901 305.386 99.092 326.592 99.092C340.713 99.092 353.116 92.9958 358.927 80.5631L359.18 80.0212L358.991 79.4537L358.863 79.0697L358.521 78.044H357.44C355.011 78.044 351.795 77.0918 348.74 75.5491C346.677 74.507 344.797 73.251 343.361 71.956H358.08ZM315.667 71.956H338.046C336.469 74.9712 332.754 78.044 326.976 78.044C324.002 78.044 321.418 77.3604 319.372 76.0428C317.861 75.0697 316.595 73.7216 315.667 71.956ZM335.336 54.236H316.078C318.075 50.956 321.241 49.172 325.312 49.172C328.268 49.172 330.587 49.8788 332.361 51.0756C333.557 51.8821 334.55 52.941 335.336 54.236Z" fill="white" stroke="black" stroke-width="3"/>
<path d="M204.256 95.544V97.044H205.756H243.26C267.013 97.044 289.432 80.0997 289.432 50.744C289.432 21.3857 266.882 4.444 243.26 4.444H205.756H204.256V5.944V95.544ZM240.7 72.284H230.296V29.204H240.7C247.968 29.204 253.34 31.6057 256.902 35.4023C260.479 39.2149 262.368 44.5812 262.368 50.744C262.368 56.9129 260.508 62.2783 256.948 66.0879C253.404 69.8805 248.035 72.284 240.7 72.284Z" fill="white" stroke="black" stroke-width="3"/>
<path d="M84.2282 94.7234L82.7117 97.044H85.4839H113.132H113.963L114.404 96.339L132.012 68.1662L149.62 96.339L150.061 97.044H150.892H178.924H181.662L180.188 94.7364L151.27 49.4729L179.156 6.76408L180.671 4.444H177.9H150.38H149.548L149.107 5.15005L132.659 31.5157L116.458 5.15851L116.019 4.444H115.18H87.2759H84.5537L86.0078 6.74527L113.397 50.0904L84.2282 94.7234Z" fill="white" stroke="black" stroke-width="3"/>
<path d="M3 4.444H1.5V5.944V59.96C1.5 71.7764 5.60181 81.5947 12.8142 88.4549C20.0186 95.3075 30.2031 99.092 42.168 99.092C54.1333 99.092 64.2872 95.3071 71.4603 88.4525C78.6407 81.5908 82.708 71.7727 82.708 59.96V5.944V4.444H81.208H58.168H56.668V5.944V58.424C56.668 62.5686 55.4648 66.4944 53.0933 69.3546C50.7534 72.1767 47.1858 74.076 42.168 74.076C37.0805 74.076 33.4811 72.1722 31.1279 69.3512C28.743 66.4922 27.54 62.5685 27.54 58.424V5.944V4.444H26.04H3Z" fill="white" stroke="black" stroke-width="3"/>
</svg>
