<svg width="721" height="121" viewBox="0 0 721 121" fill="none" xmlns="http://www.w3.org/2000/svg">
<path d="M666.477 30.64H665.477V31.64V51.352V95V96H666.477H687.981H688.981V95V70.552C688.981 65.8118 689.651 61.5415 691.394 58.4877C693.087 55.5196 695.828 53.632 700.269 53.632C702.989 53.632 705.422 54.259 706.709 55.224L707.128 55.5384L707.625 55.3727L708.009 55.2447L708.647 55.032L708.691 54.3611C708.869 51.624 710.139 48.0933 711.99 44.7841C713.84 41.4763 716.186 38.5391 718.395 36.9278L718.985 36.497L718.754 35.8038L718.626 35.4198L718.567 35.2424L718.447 35.0984C715.123 31.0809 710.052 29.36 704.109 29.36C696.924 29.36 691.732 32.8991 688.469 38.0338V31.64V30.64H687.469H666.477Z" fill="white" stroke="black" stroke-width="2"/>
<path d="M660.075 70.912H660.93L661.063 70.068C662.827 58.8919 660.386 48.5242 654.514 40.9322C648.632 33.3269 639.371 28.592 627.691 28.592C607.909 28.592 593.411 44.302 593.411 63.256C593.411 82.4787 607.665 98.048 628.587 98.048C642.566 98.048 654.76 92.0212 660.469 79.8074L660.638 79.4461L660.512 79.0678L660.384 78.6838L660.156 78H659.435C656.898 78 653.602 77.0132 650.51 75.4514C647.972 74.1697 645.68 72.5555 644.126 70.912H660.075ZM616.863 70.912H640.828C639.408 74.3113 635.4 78 628.971 78C625.922 78 623.239 77.2989 621.096 75.9192C619.304 74.7654 617.85 73.1121 616.863 70.912ZM638.183 54.192H617.217C619.258 50.2904 622.745 48.128 627.307 48.128C630.344 48.128 632.765 48.8552 634.636 50.1171C636.126 51.1223 637.31 52.4947 638.183 54.192Z" fill="white" stroke="black" stroke-width="2"/>
<path d="M524.102 30.64H523.102V31.64V46.232V95V96H524.102H545.606H546.606V95V61.208C546.606 57.708 547.687 55.169 549.379 53.505C551.076 51.8362 553.493 50.944 556.358 50.944C559.197 50.944 561.62 51.9163 563.331 53.6271C565.039 55.3355 566.11 57.8531 566.11 61.08V95V96H567.11H588.614H589.614V95V53.272C589.614 39.251 579.153 29.104 564.678 29.104C557.997 29.104 550.653 31.8989 546.094 37.8296V31.64V30.64H545.094H524.102Z" fill="white" stroke="black" stroke-width="2"/>
<path d="M493.875 31.64V36.5853C490.011 31.9722 483.409 28.976 476.059 28.976C459.125 28.976 447.539 43.2542 447.539 60.824C447.539 74.4346 454.492 86.0699 465.497 90.6226C464.009 92.8505 461.353 95.2844 458.332 97.3231C455.143 99.475 451.692 101.09 449.004 101.567L448.418 101.672L448.23 102.236L448.102 102.62L447.965 103.033L448.173 103.415C452.995 112.255 464.005 119.296 481.051 119.296C490.722 119.296 499.546 116.322 505.966 110.696C512.402 105.056 516.355 96.809 516.355 86.424V31.64V30.64H515.355H494.875H493.875V31.64ZM481.435 98.608C474.696 98.608 470.296 95.1164 468.452 91.6444C470.837 92.315 473.381 92.672 476.059 92.672C482.949 92.672 489.152 90.1648 493.107 86.1221V87.448C493.107 91.1544 492.018 93.9042 490.104 95.733C488.183 97.5684 485.294 98.608 481.435 98.608ZM482.203 71.472C475.587 71.472 471.043 66.4157 471.043 60.824C471.043 55.2393 475.708 50.176 482.203 50.176C488.691 50.176 493.235 55.1043 493.235 60.824C493.235 66.5509 488.812 71.472 482.203 71.472Z" fill="white" stroke="black" stroke-width="2"/>
<path d="M419.977 95V96H420.977H442.481H443.481V95V31.256V30.5353L442.797 30.3073L442.413 30.1793L442.056 30.0601L441.708 30.2067C438.985 31.3565 435.382 31.952 431.729 31.952C428.076 31.952 424.473 31.3565 421.75 30.2067L421.403 30.0601L421.045 30.1793L420.661 30.3073L419.977 30.5352V31.256V95ZM431.729 1.45599C423.927 1.45599 417.545 7.61891 417.545 14.872C417.545 22.1251 423.927 28.288 431.729 28.288C439.531 28.288 445.913 22.1251 445.913 14.872C445.913 7.61891 439.531 1.45599 431.729 1.45599Z" fill="white" stroke="black" stroke-width="2"/>
<path d="M358.929 77.2757L358.842 77.5368L358.901 77.8057C361.722 90.7007 373.786 98.048 388.678 98.048C396.865 98.048 403.827 95.6895 408.761 91.5414C413.709 87.3822 416.558 81.4694 416.558 74.52C416.558 67.8282 413.967 62.9114 409.986 59.4896C407.084 56.9958 403.478 55.3218 399.665 54.2977C401.307 52.7688 403.751 51.3368 406.421 50.2821C409.543 49.0492 412.799 48.4005 415.205 48.6353L415.998 48.7127L416.251 47.9562L416.379 47.5722L416.473 47.2892L416.397 47.0008C413.841 37.3158 404.588 28.464 388.678 28.464C372.151 28.464 361.182 38.4977 361.182 51.224C361.182 56.5742 362.896 61.1634 366.504 64.7201C368.838 67.0207 371.926 68.8531 375.773 70.1932C374.189 71.8126 371.658 73.3672 368.861 74.5058C365.755 75.77 362.503 76.4469 360.103 76.2127L359.309 76.1353L359.057 76.8917L358.929 77.2757ZM378.582 71.0484C379.858 71.3856 381.204 71.6768 382.62 71.9214L382.623 71.9219L389.398 73.0724C389.399 73.0727 389.401 73.0729 389.402 73.0731C391.175 73.3899 392.32 73.7485 393.009 74.1822C393.337 74.3889 393.528 74.5926 393.642 74.7873C393.753 74.9775 393.822 75.2149 393.822 75.544C393.822 76.2682 393.543 76.9208 392.855 77.4256C392.129 77.9575 390.864 78.384 388.806 78.384C383.993 78.384 379.808 75.5454 378.582 71.0484ZM396.629 53.6224C396.248 53.5542 395.866 53.4918 395.483 53.4351C395.482 53.435 395.481 53.4349 395.481 53.4348L388.84 52.4131C387.352 52.1542 386.014 51.8835 385.051 51.4368C384.113 51.0019 383.79 50.5358 383.79 49.944C383.79 48.9691 385.082 47.232 388.422 47.232C390.602 47.232 392.511 47.8494 393.95 49.023C395.218 50.0573 396.181 51.5716 396.629 53.6224Z" fill="white" stroke="black" stroke-width="2"/>
<path d="M357.2 70.912H358.055L358.188 70.068C359.952 58.8919 357.511 48.5242 351.639 40.9322C345.757 33.3269 336.496 28.592 324.816 28.592C305.034 28.592 290.536 44.302 290.536 63.256C290.536 82.4787 304.79 98.048 325.712 98.048C339.691 98.048 351.885 92.0212 357.594 79.8074L357.763 79.4461L357.637 79.0678L357.509 78.6838L357.281 78H356.56C354.023 78 350.727 77.0132 347.635 75.4514C345.097 74.1697 342.805 72.5555 341.251 70.912H357.2ZM313.988 70.912H337.953C336.533 74.3113 332.525 78 326.096 78C323.047 78 320.364 77.2989 318.221 75.9192C316.429 74.7654 314.975 73.1121 313.988 70.912ZM335.308 54.192H314.342C316.383 50.2904 319.87 48.128 324.432 48.128C327.469 48.128 329.89 48.8552 331.761 50.1171C333.251 51.1223 334.435 52.4947 335.308 54.192Z" fill="white" stroke="black" stroke-width="2"/>
<path d="M203.876 95V96H204.876H242.38C265.895 96 288.052 79.2424 288.052 50.2C288.052 21.1558 265.765 4.39999 242.38 4.39999H204.876H203.876V5.39999V95ZM239.82 72.24H228.916V28.16H239.82C247.204 28.16 252.716 30.6038 256.387 34.5162C260.067 38.4393 261.988 43.9368 261.988 50.2C261.988 56.4673 260.097 61.9642 256.433 65.8853C252.78 69.795 247.27 72.24 239.82 72.24Z" fill="white" stroke="black" stroke-width="2"/>
<path d="M83.7669 94.4529L82.7559 96H84.604H112.252H112.806L113.1 95.53L131.132 66.6788L149.164 95.53L149.458 96H150.012H178.044H179.87L178.887 94.4616L149.794 48.9259L177.857 5.94671L178.867 4.39999H177.02H149.5H148.945L148.652 4.8707L131.776 31.9214L115.152 4.87633L114.859 4.39999H114.3H86.396H84.5812L85.5506 5.93417L113.111 49.5509L83.7669 94.4529Z" fill="white" stroke="black" stroke-width="2"/>
<path d="M2.12 4.39999H1.12V5.39999V59.416C1.12 71.1122 5.1772 80.7938 12.2788 87.5486C19.3751 94.2983 29.4287 98.048 41.288 98.048C53.1475 98.048 63.1701 94.2981 70.2349 87.547C77.3045 80.7912 81.328 71.1098 81.328 59.416V5.39999V4.39999H80.328H57.288H56.288V5.39999V57.88C56.288 62.1151 55.0592 66.1616 52.5982 69.1297C50.1583 72.0724 46.4465 74.032 41.288 74.032C36.0616 74.032 32.3181 72.0695 29.8639 69.1274C27.3887 66.1601 26.16 62.115 26.16 57.88V5.39999V4.39999H25.16H2.12Z" fill="white" stroke="black" stroke-width="2"/>
</svg>
